<svg width="20" height="19" viewBox="0 0 20 19" fill="none" xmlns="http://www.w3.org/2000/svg">
<path fill-rule="evenodd" clip-rule="evenodd" d="M4.65116 4.63415C4.65116 3.09853 5.9006 1.85366 7.44186 1.85366C8.98316 1.85366 10.2326 3.09853 10.2326 4.63415C10.2326 6.16976 8.98316 7.41463 7.44186 7.41463C5.9006 7.41463 4.65116 6.16976 4.65116 4.63415ZM10.7033 7.93811C11.5611 7.09738 12.093 5.92768 12.093 4.63415C12.093 2.07478 10.0106 0 7.44186 0C4.8731 0 2.7907 2.07478 2.7907 4.63415C2.7907 5.9301 3.32461 7.10183 4.18525 7.94283C1.62737 8.8388 0 10.7752 0 12.9756C0 13.4875 0.416484 13.9024 0.930233 13.9024C1.44398 13.9024 1.86047 13.4875 1.86047 12.9756C1.86047 11.3723 3.65649 9.26829 7.44186 9.26829C9.25972 9.26829 10.6562 9.77351 11.5887 10.4724C11.9993 10.78 12.5825 10.6979 12.8913 10.2888C13.2001 9.87982 13.1177 9.29869 12.7071 8.99099C12.1331 8.56094 11.461 8.20337 10.7033 7.93811ZM15.814 10.6585C16.3277 10.6585 16.7442 11.0735 16.7442 11.5854V13.9024H19.0698C19.5835 13.9024 20 14.3174 20 14.8293C20 15.3412 19.5835 15.7561 19.0698 15.7561H16.7442V18.0732C16.7442 18.5851 16.3277 19 15.814 19C15.3002 19 14.8837 18.5851 14.8837 18.0732V15.7561H12.5581C12.0444 15.7561 11.6279 15.3412 11.6279 14.8293C11.6279 14.3174 12.0444 13.9024 12.5581 13.9024H14.8837V11.5854C14.8837 11.0735 15.3002 10.6585 15.814 10.6585Z" fill="#FBFBFB"/>
</svg>
