<svg width="19" height="19" viewBox="0 0 19 19" fill="none" xmlns="http://www.w3.org/2000/svg">
<path d="M1 6.58615V16.2688C1 16.7903 1 17.0508 1.10147 17.2499C1.19074 17.4251 1.33306 17.5678 1.50825 17.657C1.70721 17.7584 1.9678 17.7584 2.48821 17.7584H12.1724M11.2413 10.3102V7.51717M11.2413 7.51717V4.7241M11.2413 7.51717H8.44819M11.2413 7.51717H14.0343M4.7241 11.0552V3.97946C4.7241 2.93661 4.7241 2.4148 4.92705 2.01649C5.10556 1.66612 5.39022 1.38147 5.74059 1.20295C6.1389 1 6.66071 1 7.70356 1H14.7793C15.8222 1 16.3434 1 16.7417 1.20295C17.092 1.38147 17.3772 1.66612 17.5557 2.01649C17.7586 2.4148 17.7586 2.93624 17.7586 3.97907V11.0549C17.7586 12.0977 17.7586 12.6192 17.5557 13.0175C17.3772 13.3678 17.092 13.6531 16.7417 13.8316C16.3437 14.0343 15.8233 14.0343 14.7825 14.0343H7.70049C6.65969 14.0343 6.13851 14.0343 5.74059 13.8316C5.39022 13.6531 5.10556 13.3679 4.92705 13.0176C4.7241 12.6193 4.7241 12.0981 4.7241 11.0552Z" stroke="#FBFBFB" stroke-width="2" stroke-linecap="round" stroke-linejoin="round"/>
</svg>
