<svg width="84" height="80" viewBox="0 0 84 80" fill="none" xmlns="http://www.w3.org/2000/svg">
<path id="Vector" d="M24.6667 24.7647H59.3333M24.6667 42.1765H50.6667M68 3C71.4478 3 74.7544 4.37584 77.1924 6.82484C79.6304 9.27385 81 12.5954 81 16.0588V50.8824C81 54.3458 79.6304 57.6673 77.1924 60.1163C74.7544 62.5653 71.4478 63.9412 68 63.9412H46.3333L24.6667 77V63.9412H16C12.5522 63.9412 9.24559 62.5653 6.80761 60.1163C4.36964 57.6673 3 54.3458 3 50.8824V16.0588C3 12.5954 4.36964 9.27385 6.80761 6.82484C9.24559 4.37584 12.5522 3 16 3H68Z" stroke="#5D982E" stroke-width="6" stroke-linecap="round" stroke-linejoin="round"/>
</svg>
