<svg width="86" height="85" viewBox="0 0 86 85" fill="none" xmlns="http://www.w3.org/2000/svg">
<path id="Vector" d="M80.1875 7.95194L58.9189 7.95202V2.65687C58.9189 1.18895 57.7302 0 56.2627 0C54.7951 0 53.6064 1.18895 53.6064 2.65687V7.95069H32.3564V2.65687C32.3564 1.18895 31.1677 0 29.7002 0C28.2326 0 27.0439 1.18895 27.0439 2.65687V7.95069H5.8125C2.87867 7.95069 0.5 10.3299 0.5 13.2644V79.6863C0.5 82.6207 2.87867 85 5.8125 85H80.1875C83.1213 85 85.5 82.6207 85.5 79.6863V13.2644C85.5 10.3312 83.1213 7.95194 80.1875 7.95194ZM80.1875 79.6863H5.8125V13.2644H27.0439V15.9412C27.0439 17.4091 28.2326 18.5981 29.7002 18.5981C31.1677 18.5981 32.3564 17.4091 32.3564 15.9412V13.2658H53.6064V15.9426C53.6064 17.4105 54.7951 18.5994 56.2627 18.5994C57.7302 18.5994 58.9189 17.4105 58.9189 15.9426V13.2658H80.1875V79.6863ZM61.5938 42.4913H66.9062C68.3725 42.4913 69.5625 41.301 69.5625 39.8344V34.5207C69.5625 33.0541 68.3725 31.8638 66.9062 31.8638H61.5938C60.1275 31.8638 58.9375 33.0541 58.9375 34.5207V39.8344C58.9375 41.301 60.1275 42.4913 61.5938 42.4913ZM61.5938 63.7449H66.9062C68.3725 63.7449 69.5625 62.556 69.5625 61.0881V55.7743C69.5625 54.3077 68.3725 53.1174 66.9062 53.1174H61.5938C60.1275 53.1174 58.9375 54.3077 58.9375 55.7743V61.0881C58.9375 62.5573 60.1275 63.7449 61.5938 63.7449ZM45.6562 53.1174H40.3438C38.8775 53.1174 37.6875 54.3077 37.6875 55.7743V61.0881C37.6875 62.556 38.8775 63.7449 40.3438 63.7449H45.6562C47.1225 63.7449 48.3125 62.556 48.3125 61.0881V55.7743C48.3125 54.3091 47.1225 53.1174 45.6562 53.1174ZM45.6562 31.8638H40.3438C38.8775 31.8638 37.6875 33.0541 37.6875 34.5207V39.8344C37.6875 41.301 38.8775 42.4913 40.3438 42.4913H45.6562C47.1225 42.4913 48.3125 41.301 48.3125 39.8344V34.5207C48.3125 33.0527 47.1225 31.8638 45.6562 31.8638ZM24.4062 31.8638H19.0938C17.6275 31.8638 16.4375 33.0541 16.4375 34.5207V39.8344C16.4375 41.301 17.6275 42.4913 19.0938 42.4913H24.4062C25.8725 42.4913 27.0625 41.301 27.0625 39.8344V34.5207C27.0625 33.0527 25.8725 31.8638 24.4062 31.8638ZM24.4062 53.1174H19.0938C17.6275 53.1174 16.4375 54.3077 16.4375 55.7743V61.0881C16.4375 62.556 17.6275 63.7449 19.0938 63.7449H24.4062C25.8725 63.7449 27.0625 62.556 27.0625 61.0881V55.7743C27.0625 54.3091 25.8725 53.1174 24.4062 53.1174Z" fill="#5D982E"/>
</svg>
