<svg width="24" height="29" viewBox="0 0 24 29" fill="none" xmlns="http://www.w3.org/2000/svg">
<g id="Billing">
<path id="Vector" fill-rule="evenodd" clip-rule="evenodd" d="M0.666504 4.25C0.666504 3.12283 1.11427 2.04183 1.9113 1.2448C2.70833 0.447767 3.78933 0 4.9165 0H19.0832C20.2103 0 21.2913 0.447767 22.0884 1.2448C22.8854 2.04183 23.3332 3.12283 23.3332 4.25V26.9167C23.333 27.1835 23.2575 27.4448 23.1153 27.6706C22.9731 27.8964 22.7701 28.0775 22.5295 28.1929C22.289 28.3084 22.0207 28.3536 21.7556 28.3233C21.4905 28.293 21.2394 28.1884 21.0311 28.0217L18.3748 25.8967L15.7186 28.0217C15.4465 28.2397 15.1035 28.3497 14.7553 28.3306C14.4072 28.3115 14.0783 28.1647 13.8316 27.9182L11.9998 26.0865L10.1681 27.9182C9.92159 28.1649 9.59279 28.312 9.24462 28.3313C8.89645 28.3507 8.55338 28.2409 8.28109 28.0231L5.62484 25.8967L2.96859 28.0217C2.7603 28.1884 2.50915 28.293 2.24405 28.3233C1.97895 28.3536 1.71068 28.3084 1.47013 28.1929C1.22959 28.0775 1.02654 27.8964 0.884362 27.6706C0.742188 27.4448 0.666671 27.1835 0.666504 26.9167V4.25ZM4.9165 2.83333C4.54078 2.83333 4.18045 2.98259 3.91477 3.24827C3.64909 3.51394 3.49984 3.87428 3.49984 4.25V23.97L4.73942 22.9783C4.99068 22.7772 5.30296 22.6676 5.62484 22.6676C5.94671 22.6676 6.25899 22.7772 6.51025 22.9783L9.06025 25.0183L10.9983 23.0817C11.2639 22.8162 11.6242 22.667 11.9998 22.667C12.3755 22.667 12.7358 22.8162 13.0014 23.0817L14.938 25.0183L17.4894 22.9783C17.7407 22.7772 18.053 22.6676 18.3748 22.6676C18.6967 22.6676 19.009 22.7772 19.2602 22.9783L20.4998 23.97V4.25C20.4998 3.87428 20.3506 3.51394 20.0849 3.24827C19.8192 2.98259 19.4589 2.83333 19.0832 2.83333H4.9165ZM6.33317 9.91667C6.33317 9.54094 6.48242 9.18061 6.7481 8.91493C7.01378 8.64925 7.37411 8.5 7.74984 8.5H16.2498C16.6256 8.5 16.9859 8.64925 17.2516 8.91493C17.5172 9.18061 17.6665 9.54094 17.6665 9.91667C17.6665 10.2924 17.5172 10.6527 17.2516 10.9184C16.9859 11.1841 16.6256 11.3333 16.2498 11.3333H7.74984C7.37411 11.3333 7.01378 11.1841 6.7481 10.9184C6.48242 10.6527 6.33317 10.2924 6.33317 9.91667ZM7.74984 14.1667C7.37411 14.1667 7.01378 14.3159 6.7481 14.5816C6.48242 14.8473 6.33317 15.2076 6.33317 15.5833C6.33317 15.9591 6.48242 16.3194 6.7481 16.5851C7.01378 16.8507 7.37411 17 7.74984 17H11.9998C12.3756 17 12.7359 16.8507 13.0016 16.5851C13.2672 16.3194 13.4165 15.9591 13.4165 15.5833C13.4165 15.2076 13.2672 14.8473 13.0016 14.5816C12.7359 14.3159 12.3756 14.1667 11.9998 14.1667H7.74984Z" fill="black"/>
</g>
</svg>
