<svg width="22" height="15" viewBox="0 0 22 15" fill="none" xmlns="http://www.w3.org/2000/svg">
<path d="M5.21649 14.8671C3.96609 14.8671 2.805 14.3908 1.94162 13.5125C1.51151 13.0825 1.17033 12.5719 0.937549 12.01C0.704771 11.4481 0.584961 10.8459 0.584961 10.2376C0.584961 9.62943 0.704771 9.02717 0.937549 8.46527C1.17033 7.90336 1.51151 7.39281 1.94162 6.96278L6.06498 2.83942C6.93521 1.97404 8.11258 1.48828 9.33985 1.48828C10.5671 1.48828 11.7445 1.97404 12.6147 2.83942C13.0464 3.26855 13.389 3.77881 13.6228 4.34084C13.8566 4.90287 13.977 5.50557 13.977 6.11429C13.977 6.723 13.8566 7.32571 13.6228 7.88773C13.389 8.44976 13.0464 8.96002 12.6147 9.38916C12.317 9.68687 11.8555 9.68687 11.5578 9.38916C11.2601 9.09144 11.2601 8.62998 11.5578 8.33227C12.7785 7.11163 12.7785 5.11694 11.5578 3.88142C10.3223 2.6459 8.32761 2.6459 7.10698 3.88142L2.98363 8.00478C1.76299 9.22541 1.74811 11.2201 2.98363 12.4556C3.57906 13.0511 4.35312 13.3934 5.21649 13.3785C6.05009 13.3785 6.83904 13.0511 7.43447 12.4556C7.73218 12.1579 8.19364 12.1579 8.49136 12.4556C8.78907 12.7533 8.78907 13.2148 8.49136 13.5125C7.6131 14.3908 6.45201 14.8671 5.21649 14.8671Z" fill="#FBFBFB"/>
<path d="M12.6916 13.3342C11.4561 13.3342 10.2801 12.8578 9.41672 11.9796C8.98661 11.5495 8.64542 11.039 8.41265 10.4771C8.17987 9.91518 8.06006 9.31292 8.06006 8.70471C8.06006 8.09649 8.17987 7.49423 8.41265 6.93233C8.64542 6.37042 8.98661 5.85987 9.41672 5.42984C9.71444 5.13212 10.1759 5.14701 10.4736 5.42984C10.7713 5.72755 10.7564 6.18901 10.4736 6.48673C9.25298 7.70736 9.23809 9.70205 10.4736 10.9376C11.069 11.533 11.8878 11.8754 12.7065 11.8605C13.5401 11.8605 14.329 11.533 14.9245 10.9376L19.018 6.84398C19.6135 6.24855 19.941 5.45961 19.941 4.62601C19.941 3.7924 19.6135 2.98857 19.018 2.40803C17.7825 1.17251 15.7878 1.17251 14.5672 2.40803C14.2695 2.70574 13.808 2.69086 13.5103 2.40803C13.2126 2.11031 13.2275 1.64885 13.5103 1.35114C14.3805 0.485759 15.5579 0 16.7852 0C18.0124 0 19.1898 0.485759 20.06 1.35114C20.9383 2.2294 21.4146 3.39049 21.4146 4.62601C21.4146 5.86152 20.9383 7.02261 20.06 7.90087L15.9665 11.9945C15.0882 12.8727 13.9271 13.3491 12.6916 13.3491V13.3342Z" fill="#FBFBFB"/>
</svg>
