<svg width="36" height="26" viewBox="0 0 36 26" fill="none" xmlns="http://www.w3.org/2000/svg">
<g id="message">
<path id="Vector" d="M32.625 0H14.75C12.9625 0 11.5 1.4625 11.5 3.25V26L18 19.5H32.625C34.4125 19.5 35.875 18.0375 35.875 16.25V3.25C35.875 1.4625 34.4125 0 32.625 0ZM32.625 16.25H16.7L14.75 18.2V3.25H32.625V16.25ZM5 3.25C4.025 3.25 3.375 3.9 3.375 4.875C3.375 5.85 4.025 6.5 5 6.5H8.25V3.25H5ZM3.375 9.75C2.4 9.75 1.75 10.4 1.75 11.375C1.75 12.35 2.4 13 3.375 13H8.25V9.75H3.375ZM1.75 16.25C0.775 16.25 0.125 16.9 0.125 17.875C0.125 18.85 0.775 19.5 1.75 19.5H8.25V16.25H1.75Z" fill="black"/>
</g>
</svg>
