<svg width="28" height="29" viewBox="0 0 28 29" fill="none" xmlns="http://www.w3.org/2000/svg">
<g id="Group 945">
<path id="Vector" d="M23.5 15.586V13H21.5V16C21.5001 16.2652 21.6054 16.5195 21.793 16.707L24.5 19.414V21H2.5V19.414L5.207 16.707C5.39455 16.5195 5.49994 16.2652 5.5 16V12C5.49721 10.5948 5.8653 9.21374 6.56709 7.99632C7.26887 6.7789 8.2795 5.76823 9.4969 5.06641C10.7143 4.36458 12.0953 3.99644 13.5005 3.99918C14.9058 4.00192 16.2853 4.37543 17.5 5.082V2.847C16.5481 2.42552 15.5356 2.15688 14.5 2.051V0H12.5V2.05C10.0346 2.30093 7.74976 3.45712 6.08737 5.29498C4.42498 7.13285 3.5031 9.52184 3.5 12V15.586L0.793 18.293C0.605451 18.4805 0.500057 18.7348 0.5 19V22C0.5 22.2652 0.605357 22.5196 0.792893 22.7071C0.98043 22.8946 1.23478 23 1.5 23H8.5V24C8.5 25.3261 9.02678 26.5979 9.96447 27.5355C10.9021 28.4732 12.1739 29 13.5 29C14.8261 29 16.0979 28.4732 17.0355 27.5355C17.9732 26.5979 18.5 25.3261 18.5 24V23H25.5C25.7652 23 26.0196 22.8946 26.2071 22.7071C26.3946 22.5196 26.5 22.2652 26.5 22V19C26.4999 18.7348 26.3946 18.4805 26.207 18.293L23.5 15.586ZM16.5 24C16.5 24.7956 16.1839 25.5587 15.6213 26.1213C15.0587 26.6839 14.2956 27 13.5 27C12.7044 27 11.9413 26.6839 11.3787 26.1213C10.8161 25.5587 10.5 24.7956 10.5 24V23H16.5V24Z" fill="black"/>
<path id="Vector_2" d="M23.5 11C25.7091 11 27.5 9.20914 27.5 7C27.5 4.79086 25.7091 3 23.5 3C21.2909 3 19.5 4.79086 19.5 7C19.5 9.20914 21.2909 11 23.5 11Z" fill="black"/>
</g>
</svg>
