<svg width="601" height="515" viewBox="0 0 601 515" fill="none" xmlns="http://www.w3.org/2000/svg">
<path d="M6.60599 375.839C-7.61251 339.896 0.990965 293.048 33.6829 272.453C47.4085 263.818 64.8338 259.644 74.1298 246.361C94.7557 213.569 54.9826 154.292 59.9924 111.598C57.8088 39.1261 83.3884 6.87666 171.925 0.52535C260.461 -5.82596 317.616 47.2805 337.718 59.0161C381.771 84.7333 439.088 57.344 488.294 70.7205C532.073 82.612 562.843 130.334 555.612 175.137C549.717 211.629 522.234 245.307 529.502 281.549C548.781 347.683 654.087 381.61 566.936 459.81C521.392 492.003 462.122 480.892 409.671 483.899C372.007 486.189 335.272 495.928 298.4 503.939C223.477 523.904 140.362 521.183 86.6326 459.199C56.8355 431.591 22.6338 416.355 6.60599 375.839Z" fill="#FCFCFC"/>
<path d="M502.489 416.418H465.792V416.695H502.489V416.418Z" fill="#EBEBEB"/>
<path d="M370.992 419.431H361.363V419.708H370.992V419.431Z" fill="#EBEBEB"/>
<path d="M464.684 406.142H443.422V406.419H464.684V406.142Z" fill="#EBEBEB"/>
<path d="M109.98 408.002H62.1257V408.279H109.98V408.002Z" fill="#EBEBEB"/>
<path d="M126.866 408.002H119.853V408.279H126.866V408.002Z" fill="#EBEBEB"/>
<path d="M253.466 412.676H149.669V412.953H253.466V412.676Z" fill="#EBEBEB"/>
<path d="M558 398.601H4V398.878H558V398.601Z" fill="#EBEBEB"/>
<path d="M136.218 323.689C135.287 312.992 124.362 308.995 111.409 310.124C98.468 311.254 88.4073 317.101 89.3381 327.786L136.218 323.689Z" fill="#D0D0D0"/>
<path d="M110.989 305.23C116.994 304.709 118.911 299.638 118.39 293.625C117.869 287.623 115.099 282.961 109.083 283.481C103.077 284.002 101.161 289.073 101.681 295.086C102.202 301.088 104.972 305.75 110.989 305.23Z" fill="#D0D0D0"/>
<path d="M380.831 95.819C381.119 99.13 378.67 102.053 375.357 102.341C372.044 102.629 369.119 100.182 368.831 96.871C368.543 93.56 370.992 90.6366 374.305 90.3487C377.618 90.0608 380.543 92.508 380.831 95.819Z" fill="#D0D0D0"/>
<path d="M414.148 92.9066C414.436 96.2176 411.988 99.141 408.675 99.4289C405.362 99.7168 402.437 97.2696 402.149 93.9586C401.861 90.6476 404.309 87.7243 407.622 87.4363C410.935 87.1484 413.86 89.5957 414.148 92.9066Z" fill="#D0D0D0"/>
<path d="M447.477 89.9943C447.765 93.3053 445.317 96.2287 442.004 96.5166C438.691 96.8045 435.766 94.3572 435.478 91.0463C435.19 87.7353 437.638 84.8119 440.951 84.524C444.264 84.2361 447.189 86.6833 447.477 89.9943Z" fill="#D0D0D0"/>
<path d="M383.8 129.759C384.088 133.07 381.64 135.994 378.327 136.281C375.014 136.569 372.089 134.122 371.801 130.811C371.513 127.5 373.961 124.577 377.274 124.289C380.587 124.001 383.512 126.448 383.8 129.759Z" fill="#D0D0D0"/>
<path d="M417.118 126.847C417.406 130.158 414.957 133.081 411.644 133.369C408.331 133.657 405.406 131.21 405.118 127.899C404.83 124.588 407.279 121.664 410.592 121.377C413.905 121.089 416.83 123.536 417.118 126.847Z" fill="#D0D0D0"/>
<path d="M450.446 123.934C450.735 127.245 448.286 130.169 444.973 130.457C441.66 130.745 438.735 128.297 438.447 124.986C438.159 121.675 440.607 118.752 443.92 118.464C447.233 118.176 450.158 120.624 450.446 123.934Z" fill="#D0D0D0"/>
<path d="M386.77 163.699C387.058 167.01 384.609 169.934 381.296 170.222C377.983 170.51 375.058 168.062 374.77 164.751C374.482 161.44 376.931 158.517 380.244 158.229C383.557 157.941 386.482 160.388 386.77 163.699Z" fill="#D0D0D0"/>
<path d="M420.098 160.787C420.386 164.098 417.938 167.021 414.625 167.309C411.312 167.597 408.387 165.15 408.099 161.839C407.811 158.528 410.259 155.605 413.572 155.317C416.885 155.029 419.81 157.476 420.098 160.787Z" fill="#D0D0D0"/>
<path d="M453.416 157.875C453.704 161.186 451.255 164.109 447.942 164.397C444.63 164.685 441.704 162.238 441.416 158.927C441.128 155.616 443.577 152.692 446.89 152.404C450.203 152.116 453.128 154.564 453.416 157.875Z" fill="#D0D0D0"/>
<path d="M446.214 159.835L377.751 165.825L438.447 92.1092L376.255 97.5463C375.524 97.6128 374.892 97.0702 374.826 96.3504C374.759 95.6195 375.302 94.9883 376.022 94.9219L444.486 88.9312L383.789 162.647L445.981 157.21C446.713 157.144 447.344 157.686 447.411 158.406C447.477 159.137 446.934 159.768 446.214 159.835Z" fill="#D0D0D0"/>
<path d="M447.266 291.41C447.045 290.756 446.458 290.269 445.771 290.225C442.635 290.014 439.976 288.841 437.882 286.737C435.145 283.99 433.538 279.805 433.272 274.844C433.228 273.914 432.452 273.194 431.522 273.194C430.491 273.194 429.682 274.058 429.738 275.076C430.059 280.901 432.02 285.873 435.378 289.239C437.992 291.864 441.372 293.403 445.217 293.735C445.283 293.735 445.372 293.746 445.471 293.757C446.746 293.857 447.71 292.617 447.289 291.41H447.266Z" fill="#D0D0D0"/>
<path d="M443.721 312.671C429.04 311.386 418.447 301.387 415.09 285.773C414.879 284.777 415.511 283.802 416.519 283.625C417.45 283.459 418.348 284.057 418.547 284.976C421.55 299.017 430.979 308.009 444.031 309.15C458.346 310.401 473.714 300.988 476.462 277.269C476.573 276.306 477.415 275.597 478.379 275.685C479.365 275.774 480.107 276.649 479.986 277.634C477.349 300.003 462.634 314.343 443.71 312.682L443.721 312.671Z" fill="#D0D0D0"/>
<path d="M416.021 270.215C415.035 270.126 414.292 269.252 414.414 268.266C417.051 245.898 431.766 231.558 450.69 233.219C467.266 234.669 478.434 247.072 480.185 265.752C480.274 266.738 479.509 267.602 478.523 267.657C477.559 267.712 476.739 266.982 476.651 266.029C475.055 249.198 465.105 238.047 450.391 236.751C436.076 235.5 420.708 244.912 417.96 268.632C417.849 269.595 417.007 270.304 416.043 270.215H416.021Z" fill="#D0D0D0"/>
<path d="M444.441 303.181C441.716 302.937 439.156 302.306 436.796 301.276C435.843 300.855 435.444 299.704 435.943 298.796C436.375 297.998 437.35 297.655 438.181 298.021C440.386 298.995 442.835 299.56 445.461 299.704C456.319 300.324 467.776 292.639 468.895 274.08C469.582 262.641 465.67 253.406 458.347 248.987C457.56 248.511 457.272 247.526 457.671 246.695C458.125 245.765 459.299 245.422 460.186 245.953C468.651 251.058 473.205 261.489 472.429 274.279C471.343 292.185 460.175 304.089 445.25 303.236C444.973 303.225 444.696 303.203 444.419 303.181H444.441Z" fill="#D0D0D0"/>
<path d="M428.663 292.141C427.81 292.728 426.636 292.451 426.115 291.554C422.968 286.128 421.506 279.118 421.96 271.599C422.99 254.469 433.272 242.831 447.222 242.609C448.253 242.587 449.095 243.462 449.039 244.492C448.984 245.422 448.242 246.141 447.311 246.164C436.962 246.363 426.569 254.181 425.505 271.821C425.095 278.664 426.403 284.987 429.206 289.826C429.671 290.624 429.428 291.631 428.663 292.152V292.141Z" fill="#D0D0D0"/>
<path d="M452.884 290.69C452.518 289.871 452.84 288.918 453.604 288.453C458.258 285.652 461.128 279.761 461.172 272.674C461.205 266.993 459.565 262.187 456.529 259.142C454.192 256.794 451.167 255.609 447.532 255.62C442.07 255.631 437.649 258.621 435.2 263.892C434.813 264.723 433.86 265.11 432.995 264.8C432.02 264.446 431.555 263.316 431.998 262.375C435.034 255.908 440.718 252.099 447.532 252.077C452.075 252.077 456.053 253.649 459.045 256.65C462.756 260.371 464.773 266.074 464.729 272.707C464.673 281.078 461.15 288.099 455.399 291.532C454.491 292.074 453.316 291.665 452.884 290.701V290.69Z" fill="#D0D0D0"/>
<path d="M440.12 277.668C439.112 278.077 437.981 277.491 437.727 276.439C437.605 275.962 437.516 275.464 437.439 274.955C436.43 268.333 439.998 262.563 445.726 261.534C448.685 261.002 451.322 261.7 453.338 263.494C454.158 264.224 454.092 265.531 453.205 266.162L453.095 266.24C452.419 266.716 451.543 266.616 450.912 266.074C449.704 265.044 448.186 264.69 446.358 265.011C441.992 265.786 440.33 270.326 440.951 274.412C441.006 274.811 441.084 275.198 441.173 275.564C441.383 276.427 440.951 277.324 440.12 277.657V277.668Z" fill="#D0D0D0"/>
<path d="M445.981 284.489C445.981 284.489 445.981 284.489 445.97 284.489C444.751 284.378 444.075 283.016 444.729 281.975L444.884 281.732C445.217 281.211 445.793 280.923 446.413 280.968C446.934 281.001 447.499 280.968 448.075 280.868C451.887 280.181 453.637 276.638 453.604 273.028C453.604 272.131 454.225 271.356 455.111 271.212C456.153 271.057 457.139 271.832 457.15 272.884C457.261 278.664 453.848 283.437 448.696 284.356C447.765 284.522 446.856 284.567 445.992 284.489H445.981Z" fill="#D0D0D0"/>
<path d="M446.768 277.945C444.884 277.778 443.477 276.505 442.956 274.689C442.657 273.637 443.543 272.618 444.629 272.718L445.039 272.751C445.671 272.806 446.192 273.238 446.402 273.836C446.502 274.124 446.701 274.379 447.067 274.412C447.92 274.49 448.064 273.26 448.086 273.017C448.097 272.84 448.142 272.164 447.842 271.766C447.554 271.378 447.366 270.924 447.399 270.437C447.532 268.864 449.527 268.222 450.535 269.451C451.333 270.426 451.743 271.788 451.61 273.327C451.355 276.228 449.305 278.166 446.746 277.945H446.768Z" fill="#D0D0D0"/>
<path d="M413.439 238.312C412.464 238.224 411.744 237.371 411.833 236.397L413.173 221.038L428.541 222.378C429.516 222.466 430.236 223.319 430.148 224.293C430.059 225.268 429.206 225.988 428.231 225.899L416.398 224.869L415.367 236.696C415.278 237.67 414.425 238.39 413.45 238.301L413.439 238.312Z" fill="#6A6C6F"/>
<path d="M486.49 244.702C485.515 244.613 484.794 243.761 484.883 242.786L485.913 230.96L474.08 229.93C473.105 229.841 472.385 228.989 472.473 228.014C472.562 227.04 473.415 226.32 474.39 226.408L489.758 227.748L488.418 243.107C488.329 244.082 487.476 244.802 486.501 244.713L486.49 244.702Z" fill="#6A6C6F"/>
<path d="M481.05 327.255L465.682 325.915C464.707 325.826 463.986 324.973 464.075 323.999C464.164 323.024 465.017 322.305 465.992 322.393L477.825 323.423L478.856 311.597C478.944 310.622 479.797 309.902 480.773 309.991C481.748 310.08 482.468 310.932 482.379 311.907L481.038 327.266L481.05 327.255Z" fill="#6A6C6F"/>
<path d="M419.832 321.895L404.464 320.555L405.805 305.196C405.894 304.222 406.747 303.502 407.722 303.591C408.697 303.679 409.417 304.532 409.328 305.506L408.298 317.333L420.131 318.363C421.107 318.451 421.827 319.304 421.738 320.278C421.649 321.253 420.796 321.973 419.821 321.884L419.832 321.895Z" fill="#6A6C6F"/>
<path d="M86.8007 288.664C86.2024 288.719 85.6706 288.276 85.6152 287.678L84.7842 278.232L94.2354 277.402C94.8337 277.347 95.3656 277.789 95.421 278.387C95.4764 278.985 95.0332 279.517 94.4349 279.572L87.1664 280.203L87.7979 287.468C87.8533 288.066 87.4101 288.597 86.8118 288.653L86.8007 288.664Z" fill="#6A6C6F"/>
<path d="M131.719 284.744C131.121 284.799 130.589 284.356 130.534 283.758L129.902 276.494L122.634 277.125C122.035 277.18 121.503 276.737 121.448 276.139C121.393 275.541 121.836 275.01 122.434 274.955L131.885 274.124L132.716 283.57C132.772 284.168 132.329 284.699 131.73 284.755L131.719 284.744Z" fill="#6A6C6F"/>
<path d="M136.373 325.394L126.921 326.225C126.323 326.28 125.791 325.837 125.736 325.239C125.68 324.641 126.124 324.11 126.722 324.054L133.99 323.423L133.359 316.159C133.304 315.561 133.747 315.03 134.345 314.974C134.943 314.919 135.475 315.362 135.531 315.96L136.362 325.405L136.373 325.394Z" fill="#6A6C6F"/>
<path d="M98.723 328.683L89.2717 329.514L88.4407 320.068C88.3853 319.47 88.8285 318.938 89.4268 318.883C90.0252 318.828 90.557 319.271 90.6124 319.869L91.244 327.133L98.5124 326.502C99.1108 326.446 99.6426 326.889 99.698 327.487C99.7534 328.085 99.3102 328.617 98.7119 328.672L98.723 328.683Z" fill="#6A6C6F"/>
<path d="M130.955 131.232L94.8006 134.388L94.0582 125.928C93.2937 117.157 99.8087 109.395 108.584 108.631C117.359 107.867 125.127 114.378 125.891 123.148L126.323 128.065L131.542 127.611L131.11 122.694C130.09 111.045 119.775 102.397 108.13 103.415C96.4736 104.434 87.8202 114.743 88.8395 126.382L89.5819 134.886C85.3715 135.706 82.3799 139.581 82.7566 143.944L85.3382 173.444C85.7482 178.106 89.8589 181.561 94.5346 181.151L135.01 177.608C139.675 177.198 143.132 173.09 142.722 168.417L140.14 138.917C139.73 134.255 135.619 130.8 130.944 131.21L130.955 131.232ZM115.598 153.966L116.484 164.12C116.628 165.792 115.398 167.254 113.725 167.409C112.052 167.553 110.59 166.324 110.434 164.652L109.548 154.497C108.218 153.678 107.277 152.283 107.122 150.61C106.878 147.809 108.95 145.328 111.764 145.085C114.567 144.841 117.049 146.912 117.293 149.725C117.437 151.397 116.75 152.936 115.587 153.977L115.598 153.966Z" fill="#D0D0D0"/>
<path d="M192.848 148.329L189.191 142.372C187.208 142.649 185.59 142.649 183.607 142.372L179.951 148.329L179.252 148.141C176.892 147.51 174.621 146.569 172.494 145.34L171.862 144.974L173.413 138.507C173.535 137.987 174.067 137.666 174.588 137.788C175.109 137.909 175.43 138.441 175.308 138.961L174.1 144C175.685 144.863 177.336 145.55 179.053 146.059L182.621 140.246L183.263 140.357C185.335 140.7 187.441 140.7 189.513 140.357L190.155 140.246L193.723 146.059C195.429 145.55 197.091 144.863 198.676 144L197.091 137.378L197.623 137.001C199.075 135.96 200.36 134.731 201.468 133.336C201.8 132.926 202.388 132.827 202.809 133.137C203.252 133.458 203.363 134.089 203.019 134.521C201.933 135.894 200.681 137.123 199.285 138.197L200.914 144.985L200.282 145.351C198.155 146.58 195.884 147.521 193.535 148.152L192.837 148.341L192.848 148.329ZM170.444 135.329C170.134 134.975 169.834 134.621 169.557 134.244L162.765 135.872L162.4 135.241C161.17 133.115 160.228 130.844 159.597 128.486L159.408 127.788L165.369 124.134C165.236 123.137 165.17 122.229 165.17 121.343C165.17 120.458 165.236 119.55 165.369 118.553L159.408 114.899L159.597 114.201C160.228 111.842 161.17 109.572 162.4 107.446L162.765 106.815L169.557 108.443C170.699 106.959 172.017 105.641 173.502 104.501L172.272 99.3626C172.15 98.8421 172.472 98.3106 172.992 98.1888C173.513 98.067 174.045 98.3881 174.167 98.9085L175.696 105.309L175.164 105.697C173.458 106.926 171.973 108.41 170.743 110.115L170.366 110.646L163.729 109.063C162.876 110.646 162.178 112.296 161.68 114.013L167.497 117.578L167.397 118.221C167.209 119.361 167.12 120.38 167.12 121.343C167.12 122.307 167.209 123.326 167.397 124.466L167.508 125.108L161.691 128.674C162.2 130.379 162.887 132.04 163.74 133.624L170.377 132.04L170.754 132.572C171.12 133.07 171.496 133.557 171.906 134.023C172.25 134.41 172.239 134.986 171.862 135.351L171.829 135.385C171.441 135.761 170.81 135.728 170.455 135.318L170.444 135.329ZM210.044 135.872L207.54 135.274C207.019 135.152 206.698 134.621 206.82 134.1C206.941 133.58 207.473 133.258 207.994 133.38L209.08 133.635C209.933 132.051 210.631 130.402 211.13 128.685L205.313 125.119L205.423 124.477C205.612 123.337 205.7 122.318 205.7 121.354C205.7 120.391 205.612 119.372 205.423 118.232L205.324 117.59L211.141 114.024C210.631 112.319 209.944 110.658 209.091 109.074L202.454 110.658L202.066 110.126C200.836 108.421 199.352 106.937 197.645 105.708L197.113 105.32L198.698 98.6871C197.113 97.8233 195.463 97.1368 193.745 96.6274L190.177 102.441L189.535 102.341C187.463 102.009 185.358 102.009 183.286 102.341L182.643 102.441L179.075 96.6274C178.854 96.6938 178.632 96.7603 178.41 96.8378C177.912 97.0039 177.38 96.7381 177.203 96.2509C177.014 95.7415 177.28 95.1657 177.801 94.9885C178.289 94.8335 178.776 94.6895 179.264 94.5567L179.962 94.3684L183.618 100.326C185.601 100.049 187.208 100.049 189.202 100.326L192.859 94.3684L193.557 94.5567C195.917 95.1878 198.188 96.1291 200.304 97.3582L200.936 97.7237L199.307 104.512C200.792 105.652 202.111 106.97 203.252 108.454L210.044 106.826L210.409 107.457C211.639 109.583 212.581 111.853 213.213 114.212L213.401 114.91L207.44 118.564C207.573 119.561 207.639 120.48 207.639 121.354C207.639 122.229 207.573 123.148 207.44 124.145L213.401 127.799L213.213 128.497C212.581 130.856 211.639 133.126 210.409 135.252L210.044 135.883V135.872ZM186.133 130.844C181.18 130.701 177.059 126.581 176.915 121.631C176.771 116.648 180.505 112.485 185.313 111.92C185.889 111.853 186.41 112.307 186.41 112.894C186.41 113.382 186.045 113.802 185.557 113.858C181.313 114.334 178.122 118.354 179.009 122.872C179.585 125.806 181.956 128.176 184.892 128.752C189.712 129.693 193.956 126.005 193.956 121.354C193.956 119.793 193.479 118.287 192.593 117.025C192.316 116.626 192.393 116.084 192.759 115.762C193.202 115.375 193.878 115.452 194.21 115.94C195.318 117.523 195.906 119.417 195.906 121.366C195.906 126.692 191.496 131.011 186.133 130.856V130.844Z" fill="#D0D0D0"/>
<path d="M124.008 229.387L121.647 225.545C120.373 225.722 119.321 225.722 118.046 225.545L115.686 229.387L115.232 229.265C113.714 228.856 112.241 228.247 110.867 227.46L110.457 227.228L111.454 223.053C111.531 222.71 111.875 222.511 112.218 222.588C112.562 222.666 112.761 223.009 112.684 223.352L111.897 226.608C112.916 227.161 113.991 227.604 115.099 227.937L117.404 224.183L117.825 224.249C119.166 224.471 120.528 224.471 121.858 224.249L122.279 224.183L124.584 227.937C125.692 227.604 126.766 227.161 127.786 226.608L126.755 222.322L127.099 222.079C128.041 221.403 128.872 220.617 129.581 219.709C129.791 219.443 130.168 219.377 130.445 219.576C130.733 219.787 130.8 220.196 130.578 220.473C129.869 221.359 129.06 222.156 128.163 222.843L129.215 227.228L128.805 227.46C127.431 228.258 125.969 228.867 124.44 229.265L123.985 229.387H124.008ZM109.537 220.994C109.338 220.772 109.149 220.528 108.961 220.296L104.573 221.348L104.341 220.938C103.543 219.565 102.933 218.103 102.534 216.575L102.413 216.121L106.257 213.763C106.169 213.12 106.124 212.533 106.124 211.958C106.124 211.382 106.169 210.795 106.257 210.153L102.413 207.794L102.534 207.34C102.944 205.823 103.554 204.35 104.341 202.977L104.573 202.567L108.961 203.619C109.692 202.656 110.556 201.803 111.509 201.072L110.712 197.75C110.634 197.418 110.833 197.075 111.177 196.997C111.509 196.92 111.853 197.119 111.93 197.462L112.916 201.593L112.573 201.848C111.476 202.634 110.512 203.597 109.714 204.704L109.471 205.048L105.183 204.018C104.629 205.037 104.185 206.111 103.853 207.218L107.609 209.521L107.543 209.942C107.421 210.684 107.365 211.337 107.365 211.958C107.365 212.578 107.421 213.242 107.543 213.973L107.609 214.394L103.853 216.697C104.185 217.804 104.629 218.879 105.183 219.897L109.471 218.867L109.714 219.211C109.947 219.532 110.202 219.853 110.457 220.152C110.678 220.407 110.667 220.772 110.435 221.005L110.412 221.027C110.158 221.27 109.759 221.248 109.526 220.982L109.537 220.994ZM135.121 221.348L133.503 220.96C133.16 220.883 132.96 220.54 133.038 220.196C133.115 219.853 133.459 219.654 133.802 219.731L134.5 219.897C135.054 218.879 135.497 217.804 135.83 216.697L132.074 214.394L132.14 213.973C132.262 213.231 132.318 212.578 132.318 211.958C132.318 211.337 132.262 210.673 132.14 209.942L132.074 209.521L135.83 207.218C135.497 206.111 135.054 205.037 134.5 204.018L130.212 205.048L129.969 204.704C129.182 203.608 128.218 202.645 127.11 201.848L126.766 201.593L127.797 197.307C126.778 196.754 125.703 196.311 124.595 195.979L122.29 199.732L121.869 199.666C120.528 199.445 119.166 199.445 117.825 199.666L117.404 199.732L115.099 195.979C114.955 196.023 114.811 196.067 114.667 196.111C114.346 196.211 114.002 196.045 113.891 195.724C113.77 195.392 113.947 195.015 114.279 194.915C114.59 194.816 114.911 194.716 115.221 194.639L115.675 194.517L118.035 198.359C119.321 198.182 120.351 198.182 121.636 198.359L123.996 194.517L124.451 194.639C125.969 195.048 127.442 195.657 128.816 196.444L129.226 196.676L128.174 201.061C129.138 201.792 129.991 202.656 130.722 203.608L135.11 202.556L135.342 202.966C136.14 204.339 136.75 205.801 137.148 207.329L137.27 207.783L133.426 210.142C133.514 210.784 133.558 211.371 133.558 211.947C133.558 212.522 133.514 213.109 133.426 213.751L137.27 216.11L137.148 216.564C136.738 218.081 136.129 219.554 135.342 220.927L135.11 221.337L135.121 221.348ZM119.675 218.103C116.473 218.015 113.814 215.346 113.714 212.157C113.626 208.935 116.03 206.244 119.143 205.889C119.52 205.845 119.853 206.144 119.853 206.521C119.853 206.842 119.62 207.107 119.299 207.141C116.562 207.451 114.501 210.042 115.066 212.965C115.443 214.859 116.972 216.387 118.866 216.763C121.98 217.373 124.717 214.992 124.717 211.991C124.717 210.983 124.406 210.009 123.83 209.189C123.653 208.935 123.697 208.58 123.93 208.37C124.218 208.115 124.65 208.17 124.872 208.481C125.581 209.499 125.969 210.728 125.969 211.98C125.969 215.424 123.121 218.203 119.653 218.114L119.675 218.103Z" fill="#D0D0D0"/>
<path d="M281 451.5C340.369 451.5 394.148 450.096 433.112 447.823C452.58 446.687 468.418 445.33 479.426 443.811C484.906 443.055 489.322 442.242 492.425 441.357C493.95 440.922 495.362 440.414 496.464 439.781C497.015 439.465 497.655 439.024 498.193 438.405C498.75 437.764 499.33 436.766 499.33 435.465C499.33 434.164 498.75 433.166 498.193 432.524C497.655 431.906 497.015 431.465 496.464 431.148C495.362 430.515 493.95 430.007 492.425 429.573C489.322 428.688 484.906 427.874 479.426 427.118C468.418 425.6 452.58 424.243 433.112 423.107C394.148 420.834 340.369 419.43 281 419.43C221.631 419.43 167.852 420.834 128.888 423.107C109.42 424.243 93.5814 425.6 82.5738 427.118C77.0934 427.874 72.6776 428.688 69.5745 429.573C68.0498 430.007 66.6373 430.515 65.5352 431.148C64.9849 431.465 64.3444 431.906 63.807 432.524C63.2499 433.166 62.6697 434.164 62.6697 435.465C62.6697 436.766 63.2499 437.764 63.807 438.405C64.3444 439.024 64.9849 439.465 65.5352 439.781C66.6373 440.414 68.0498 440.922 69.5745 441.357C72.6776 442.242 77.0934 443.055 82.5738 443.811C93.5814 445.33 109.42 446.687 128.888 447.823C167.852 450.096 221.631 451.5 281 451.5Z" fill="#D0D0D0" stroke="#E4E4E2" stroke-width="7"/>
<path d="M406.703 136.625H370.626L345.109 428.134H381.185C391.445 428.134 400.52 419.796 401.417 409.542L423.677 155.228C424.575 144.974 416.963 136.636 406.703 136.636V136.625Z" fill="#407BFF"/>
<path d="M399.346 136.625H277.244C266.984 136.625 257.91 144.963 257.012 155.217L234.752 409.531C233.855 419.785 241.467 428.123 251.727 428.123H373.828C384.089 428.123 393.163 419.785 394.061 409.531L416.32 155.217C417.218 144.963 409.606 136.625 399.346 136.625Z" fill="#407BFF"/>
<path opacity="0.3" d="M399.346 136.625H277.244C266.984 136.625 257.91 144.963 257.012 155.217L234.752 409.531C233.855 419.785 241.467 428.123 251.727 428.123H373.828C384.089 428.123 393.163 419.785 394.061 409.531L416.32 155.217C417.218 144.963 409.606 136.625 399.346 136.625Z" fill="white"/>
<path opacity="0.4" d="M398.825 142.582H366.638C364.743 142.582 362.959 143.823 362.25 145.65C359.646 152.371 353.054 156.978 346.04 156.978H327.004C319.98 156.978 314.196 152.371 312.778 145.65C312.39 143.834 310.828 142.582 308.933 142.582H276.746C269.765 142.582 263.605 148.241 262.995 155.217L240.736 409.531C240.126 416.507 245.289 422.166 252.27 422.166H374.371C381.352 422.166 387.512 416.507 388.122 409.531L410.381 155.217C410.991 148.241 405.828 142.582 398.847 142.582H398.825Z" fill="white"/>
<path d="M368.399 280.735H282.95C280.413 280.735 278.54 278.687 278.762 276.151L279.194 271.267C279.416 268.731 281.654 266.683 284.18 266.683H369.629C372.166 266.683 374.039 268.731 373.817 271.267L373.385 276.151C373.164 278.687 370.925 280.735 368.399 280.735Z" fill="white"/>
<path d="M366.56 301.819H281.111C278.574 301.819 276.701 299.77 276.923 297.234L277.355 292.351C277.577 289.815 279.815 287.767 282.341 287.767H367.79C370.327 287.767 372.2 289.815 371.978 292.351L371.546 297.234C371.324 299.77 369.086 301.819 366.56 301.819Z" fill="white"/>
<path opacity="0.1" d="M342.439 147.355C342.195 150.168 339.713 152.438 336.91 152.438C334.107 152.438 332.024 150.157 332.267 147.355C332.511 144.542 334.993 142.272 337.796 142.272C340.6 142.272 342.683 144.553 342.439 147.355Z" fill="black"/>
<path opacity="0.1" d="M340.134 147.355C340.001 148.894 338.649 150.134 337.109 150.134C335.569 150.134 334.439 148.894 334.572 147.355C334.705 145.816 336.057 144.575 337.597 144.575C339.137 144.575 340.267 145.816 340.134 147.355Z" fill="black"/>
<g opacity="0.8">
<path d="M383.789 155.826C382.969 155.826 382.36 155.162 382.426 154.331L382.67 151.607C382.748 150.788 383.468 150.112 384.288 150.112C385.108 150.112 385.717 150.777 385.651 151.607L385.407 154.331C385.329 155.151 384.609 155.826 383.789 155.826Z" fill="white"/>
<path d="M395.711 155.826C394.891 155.826 394.282 155.162 394.348 154.331L394.902 147.942C394.969 147.123 395.7 146.447 396.52 146.447C397.34 146.447 397.949 147.111 397.883 147.942L397.329 154.331C397.263 155.151 396.531 155.826 395.711 155.826Z" fill="white"/>
<path d="M389.75 155.826C388.93 155.826 388.321 155.162 388.387 154.331L388.786 149.78C388.864 148.961 389.584 148.285 390.404 148.285C391.224 148.285 391.833 148.95 391.767 149.78L391.368 154.331C391.301 155.151 390.57 155.826 389.75 155.826Z" fill="white"/>
</g>
<g opacity="0.8">
<path d="M281.709 155.826H274.219C273.754 155.826 273.41 155.45 273.455 154.985L273.809 150.965C273.854 150.5 274.264 150.124 274.729 150.124H282.219C282.684 150.124 283.028 150.5 282.984 150.965L282.629 154.985C282.585 155.45 282.175 155.826 281.709 155.826Z" fill="white"/>
<path d="M285.177 154.741C284.712 154.741 284.368 154.365 284.413 153.9L284.579 152.061C284.623 151.596 285.033 151.22 285.499 151.22C285.964 151.22 286.307 151.596 286.263 152.061L286.097 153.9C286.053 154.365 285.643 154.741 285.177 154.741Z" fill="white"/>
</g>
<path d="M354.321 248.596C369.231 234.331 370.718 211.701 357.642 198.05C344.567 184.399 321.88 184.897 306.97 199.162C292.06 213.427 290.573 236.057 303.649 249.708C316.724 263.359 339.411 262.861 354.321 248.596Z" fill="white"/>
<path d="M330.772 222.511C321.365 222.511 313.432 226.087 312.756 233.85L312.002 242.465H346.051L346.804 233.85C347.48 226.087 340.179 222.511 330.772 222.511Z" fill="#407BFF"/>
<path d="M331.082 218.956C335.447 218.956 337.453 215.424 337.841 211.061C338.217 206.698 336.832 203.165 332.467 203.165C328.101 203.165 326.096 206.698 325.708 211.061C325.331 215.424 326.716 218.956 331.082 218.956Z" fill="#407BFF"/>
<path d="M364.499 273.449C362.172 273.449 360.222 274.335 360.045 276.25L359.856 278.376H368.266L368.455 276.25C368.621 274.335 366.815 273.449 364.499 273.449Z" fill="#407BFF"/>
<path d="M364.577 272.574C365.651 272.574 366.15 271.699 366.25 270.625C366.349 269.551 365.995 268.676 364.92 268.676C363.845 268.676 363.347 269.551 363.247 270.625C363.147 271.699 363.502 272.574 364.577 272.574Z" fill="#407BFF"/>
<path d="M338.605 322.903H305.354C301.465 322.903 298.595 319.758 298.939 315.871C299.282 311.984 302.706 308.84 306.584 308.84H339.835C343.724 308.84 346.594 311.984 346.25 315.871C345.907 319.758 342.483 322.903 338.605 322.903Z" fill="#407BFF"/>
<path d="M334.594 401.27H299.005C294.906 401.27 291.87 397.948 292.224 393.84L294.496 367.894C294.85 363.797 298.473 360.464 302.573 360.464H338.162C342.261 360.464 345.297 363.786 344.943 367.894L342.671 393.84C342.317 397.937 338.694 401.27 334.594 401.27Z" fill="#407BFF"/>
<g opacity="0.6">
<path d="M323.625 374.461C323.835 371.992 322.018 369.987 319.548 369.987C317.077 369.987 314.905 371.992 314.683 374.461C314.55 375.934 315.16 377.218 316.19 378.038L315.404 386.974C315.271 388.436 316.356 389.632 317.83 389.632C319.304 389.632 320.589 388.447 320.722 386.974L321.509 378.038C322.672 377.218 323.503 375.934 323.636 374.461H323.625Z" fill="white"/>
</g>
<path d="M338.483 365.879H333.896L335.015 353.045C335.691 345.338 329.963 339.059 322.24 339.059C314.517 339.059 307.692 345.338 307.016 353.045L305.897 365.879H301.31L302.429 353.045C303.326 342.802 312.39 334.475 322.639 334.475C332.888 334.475 340.489 342.802 339.591 353.045L338.472 365.879H338.483Z" fill="#407BFF"/>
<path d="M365.064 293.104L365.175 291.875C365.286 290.613 364.355 289.594 363.092 289.594C361.829 289.594 360.721 290.613 360.61 291.875L360.499 293.104C360.001 293.104 359.557 293.514 359.513 294.012L359.225 297.29C359.181 297.788 359.557 298.198 360.056 298.198H364.621C365.12 298.198 365.563 297.788 365.607 297.29L365.895 294.012C365.939 293.514 365.563 293.104 365.064 293.104ZM363.037 290.159C363.989 290.159 364.687 290.934 364.61 291.875L364.499 293.104H361.064L361.175 291.875C361.253 290.923 362.095 290.159 363.048 290.159H363.037Z" fill="#407BFF"/>
<path d="M296.346 294.422L294.751 294.09C294.562 294.045 294.463 293.857 294.54 293.669L295.205 292.096C295.349 291.764 294.939 291.51 294.684 291.775L293.476 293.016C293.332 293.16 293.1 293.16 292.989 293.016L292.003 291.775C291.792 291.51 291.338 291.753 291.427 292.096L291.814 293.669C291.859 293.857 291.726 294.056 291.537 294.09L289.886 294.422C289.532 294.488 289.488 294.987 289.831 295.064L291.427 295.396C291.615 295.441 291.715 295.629 291.637 295.817L290.972 297.39C290.828 297.722 291.238 297.976 291.493 297.711L292.701 296.47C292.845 296.327 293.078 296.327 293.188 296.47L294.174 297.711C294.385 297.976 294.839 297.733 294.751 297.39L294.363 295.817C294.319 295.629 294.451 295.43 294.64 295.396L296.291 295.064C296.645 294.998 296.69 294.499 296.346 294.422Z" fill="#263238"/>
<path d="M306.828 294.422L305.232 294.09C305.044 294.045 304.944 293.857 305.022 293.669L305.687 292.096C305.831 291.764 305.421 291.51 305.166 291.775L303.958 293.016C303.814 293.16 303.581 293.16 303.471 293.016L302.484 291.775C302.274 291.51 301.82 291.753 301.908 292.096L302.296 293.669C302.34 293.857 302.207 294.056 302.019 294.09L300.368 294.422C300.014 294.488 299.969 294.987 300.313 295.064L301.908 295.396C302.097 295.441 302.196 295.629 302.119 295.817L301.454 297.39C301.31 297.722 301.72 297.976 301.975 297.711L303.182 296.47C303.327 296.327 303.559 296.327 303.67 296.47L304.656 297.711C304.867 297.976 305.321 297.733 305.232 297.39L304.844 295.817C304.8 295.629 304.933 295.43 305.121 295.396L306.772 295.064C307.127 294.998 307.171 294.499 306.828 294.422Z" fill="#263238"/>
<path d="M317.309 294.422L315.714 294.09C315.525 294.045 315.426 293.857 315.503 293.669L316.168 292.096C316.312 291.764 315.902 291.51 315.647 291.775L314.44 293.016C314.295 293.16 314.063 293.16 313.952 293.016L312.966 291.775C312.755 291.51 312.301 291.753 312.39 292.096L312.778 293.669C312.822 293.857 312.689 294.056 312.501 294.09L310.85 294.422C310.495 294.488 310.451 294.987 310.794 295.064L312.39 295.396C312.578 295.441 312.678 295.629 312.6 295.817L311.935 297.39C311.791 297.722 312.201 297.976 312.456 297.711L313.664 296.47C313.808 296.327 314.041 296.327 314.151 296.47L315.138 297.711C315.348 297.976 315.802 297.733 315.714 297.39L315.326 295.817C315.282 295.629 315.415 295.43 315.603 295.396L317.254 295.064C317.608 294.998 317.653 294.499 317.309 294.422Z" fill="#263238"/>
<path d="M327.802 294.422L326.207 294.09C326.019 294.045 325.919 293.857 325.996 293.669L326.661 292.096C326.805 291.764 326.395 291.51 326.14 291.775L324.933 293.016C324.789 293.16 324.556 293.16 324.445 293.016L323.459 291.775C323.249 291.51 322.794 291.753 322.883 292.096L323.271 293.669C323.315 293.857 323.182 294.056 322.994 294.09L321.343 294.422C320.988 294.488 320.944 294.987 321.287 295.064L322.883 295.396C323.071 295.441 323.171 295.629 323.093 295.817L322.429 297.39C322.285 297.722 322.695 297.976 322.949 297.711L324.157 296.47C324.301 296.327 324.534 296.327 324.645 296.47L325.631 297.711C325.841 297.976 326.296 297.733 326.207 297.39L325.819 295.817C325.775 295.629 325.908 295.43 326.096 295.396L327.747 295.064C328.102 294.998 328.146 294.499 327.802 294.422Z" fill="#263238"/>
<path d="M338.284 294.422L336.688 294.09C336.5 294.045 336.4 293.857 336.478 293.669L337.143 292.096C337.287 291.764 336.877 291.51 336.622 291.775L335.414 293.016C335.27 293.16 335.037 293.16 334.927 293.016L333.941 291.775C333.73 291.51 333.276 291.753 333.364 292.096L333.752 293.669C333.796 293.857 333.664 294.056 333.475 294.09L331.824 294.422C331.47 294.488 331.425 294.987 331.769 295.064L333.364 295.396C333.553 295.441 333.652 295.629 333.575 295.817L332.91 297.39C332.766 297.722 333.176 297.976 333.431 297.711L334.639 296.47C334.783 296.327 335.015 296.327 335.126 296.47L336.112 297.711C336.323 297.976 336.777 297.733 336.688 297.39L336.301 295.817C336.256 295.629 336.389 295.43 336.578 295.396L338.228 295.064C338.583 294.998 338.627 294.499 338.284 294.422Z" fill="#263238"/>
<path d="M348.766 294.422L347.17 294.09C346.982 294.045 346.882 293.857 346.96 293.669L347.624 292.096C347.768 291.764 347.358 291.51 347.104 291.775L345.896 293.016C345.752 293.16 345.519 293.16 345.408 293.016L344.422 291.775C344.212 291.51 343.757 291.753 343.846 292.096L344.234 293.669C344.278 293.857 344.145 294.056 343.957 294.09L342.306 294.422C341.951 294.488 341.907 294.987 342.251 295.064L343.846 295.396C344.034 295.441 344.134 295.629 344.057 295.817L343.392 297.39C343.248 297.722 343.658 297.976 343.913 297.711L345.12 296.47C345.264 296.327 345.497 296.327 345.608 296.47L346.594 297.711C346.804 297.976 347.259 297.733 347.17 297.39L346.782 295.817C346.738 295.629 346.871 295.43 347.059 295.396L348.71 295.064C349.065 294.998 349.109 294.499 348.766 294.422Z" fill="#263238"/>
<path d="M323.492 271.489H303.803C302.584 271.489 301.498 272.485 301.398 273.703C301.288 274.922 302.196 275.918 303.415 275.918H323.104C324.323 275.918 325.409 274.922 325.508 273.703C325.619 272.485 324.711 271.489 323.492 271.489Z" fill="#263238"/>
<path d="M343.48 271.489H332.057C330.838 271.489 329.752 272.485 329.652 273.703C329.542 274.922 330.45 275.918 331.669 275.918H343.093C344.311 275.918 345.397 274.922 345.497 273.703C345.608 272.485 344.699 271.489 343.48 271.489Z" fill="#263238"/>
<path d="M358.56 371.87C351.137 374.837 344.633 379.156 340.178 384.062C337.564 381.836 333.852 380.297 329.409 379.588L328.888 379.51L328.655 382.124L328.943 382.235C333.331 383.896 336.91 386.841 339.281 390.75L339.658 391.359L340.068 390.706C344.633 383.397 351.292 377.285 358.815 373.475L359.07 373.343L359.225 371.604L358.571 371.87H358.56Z" fill="#263238"/>
<path opacity="0.2" d="M259.549 153.844C258.164 156.28 257.255 158.993 257 161.872L240.502 350.365H291.559L301.819 311.065L298.44 271.766L308.7 232.466L305.32 193.166L315.58 153.866H259.56L259.549 153.844Z" fill="black"/>
<path d="M300.888 182.07L311.148 142.771H182.033L171.784 182.07L175.152 221.381L164.903 260.681L168.272 299.981L158.023 339.292H287.127L297.387 299.981L294.008 260.681L304.268 221.381L300.888 182.07Z" fill="#407BFF"/>
<path opacity="0.7" d="M300.888 182.07L311.148 142.771H182.033L171.784 182.07L175.152 221.381L164.903 260.681L168.272 299.981L158.023 339.292H287.127L297.387 299.981L294.008 260.681L304.268 221.381L300.888 182.07Z" fill="white"/>
<path opacity="0.5" d="M300.888 182.07H171.784L182.033 142.771H311.148L300.888 182.07Z" fill="white"/>
<path opacity="0.5" d="M294.008 260.681H164.904L175.153 221.381H304.268L294.008 260.681Z" fill="white"/>
<path opacity="0.5" d="M287.127 339.292H158.023L168.272 299.981H297.387L287.127 339.292Z" fill="white"/>
<path opacity="0.2" d="M283.615 198.503C282.507 198.847 281.088 199.057 279.537 199.057C277.255 199.057 275.26 198.603 274.119 197.927C273.809 197.739 273.465 197.651 273.122 197.651C272.8 197.651 272.49 197.739 272.191 197.905C272.169 197.916 272.147 197.916 272.125 197.939C272.125 197.939 272.102 197.95 272.08 197.961C271.659 198.204 271.127 198.426 270.507 198.592C269.443 198.891 268.125 199.068 266.706 199.068C266.319 199.068 265.942 199.057 265.576 199.035C264.468 198.957 263.46 198.78 262.629 198.514C262.485 198.47 262.341 198.437 262.197 198.437C261.189 198.37 260.291 199.146 260.291 200.209V201.405H210.11C206.221 201.405 203.074 204.549 203.074 208.436V215.523C203.074 219.41 206.221 222.555 210.11 222.555H267.205C267.327 222.555 267.449 222.544 267.582 222.533C268.202 223.042 268.834 223.552 269.521 224.061C270.33 224.681 271.194 225.301 272.091 225.954C272.712 226.408 273.576 226.408 274.197 225.954C281.376 220.75 285.986 217.162 285.986 207.296V200.209C285.986 198.991 284.8 198.16 283.648 198.525L283.615 198.503Z" fill="black"/>
<path d="M266.086 197.484H209.002C205.116 197.484 201.966 200.633 201.966 204.516V211.592C201.966 215.475 205.116 218.624 209.002 218.624H266.086C269.972 218.624 273.122 215.475 273.122 211.592V204.516C273.122 200.633 269.972 197.484 266.086 197.484Z" fill="#407BFF"/>
<path d="M278.44 195.148C276.158 195.148 274.163 194.694 273.022 194.018C272.401 193.642 271.648 193.642 271.028 194.018C269.886 194.694 267.881 195.148 265.609 195.148C264.058 195.148 262.64 194.938 261.532 194.594C260.369 194.229 259.194 195.07 259.194 196.277V203.364C259.194 213.231 263.803 216.819 270.983 222.023C271.604 222.477 272.468 222.477 273.088 222.023C280.268 216.819 284.878 213.231 284.878 203.364V196.277C284.878 195.059 283.692 194.229 282.54 194.594C281.432 194.938 280.013 195.148 278.462 195.148H278.44Z" fill="#407BFF"/>
<path opacity="0.3" d="M278.44 195.148C276.158 195.148 274.163 194.694 273.022 194.018C272.401 193.642 271.648 193.642 271.028 194.018C269.886 194.694 267.881 195.148 265.609 195.148C264.058 195.148 262.64 194.938 261.532 194.594C260.369 194.229 259.194 195.07 259.194 196.277V203.364C259.194 213.231 263.803 216.819 270.983 222.023C271.604 222.477 272.468 222.477 273.088 222.023C280.268 216.819 284.878 213.231 284.878 203.364V196.277C284.878 195.059 283.692 194.229 282.54 194.594C281.432 194.938 280.013 195.148 278.462 195.148H278.44Z" fill="white"/>
<path opacity="0.2" d="M271.028 194.019C269.886 194.694 267.881 195.148 265.609 195.148C264.058 195.148 262.64 194.938 261.532 194.594C260.369 194.229 259.194 195.071 259.194 196.278V203.365C259.194 213.231 263.803 216.819 270.983 222.023C271.293 222.245 271.67 222.367 272.036 222.367V193.742C271.692 193.742 271.349 193.83 271.039 194.019H271.028Z" fill="white"/>
<path d="M282.318 201.438C277.676 203.353 273.709 206.155 271.105 209.333C269.288 207.894 266.795 206.897 263.87 206.443L263.526 206.388V208.082L263.726 208.148C266.662 209.222 269.144 211.127 270.906 213.663L271.183 214.062L271.415 213.63C273.953 208.901 277.919 204.937 282.573 202.468L282.728 202.379V201.25L282.318 201.416V201.438Z" fill="#263238"/>
<path d="M308.866 153.822H303.969C301.254 153.822 299.237 151.618 299.481 148.905L299.913 144.011C300.146 141.298 302.55 139.094 305.265 139.094H310.162C312.877 139.094 314.893 141.298 314.65 144.011L314.218 148.905C313.985 151.618 311.581 153.822 308.866 153.822Z" fill="#407BFF"/>
<path d="M310.905 144L309.841 142.837L307.159 145.295L304.921 142.837L303.647 144L305.896 146.458L303.226 148.916L304.29 150.09L306.96 147.632L309.209 150.09L310.472 148.916L308.223 146.458L310.905 144Z" fill="white"/>
<path d="M199.418 196.056C202.254 199.146 204.969 202.335 207.65 205.568C210.332 208.791 212.947 212.068 215.528 215.379C215.639 215.523 215.595 215.468 215.628 215.512C215.639 215.534 215.639 215.568 215.661 215.579C215.694 215.612 215.705 215.667 215.739 215.689C215.794 215.767 215.861 215.833 215.938 215.911C216.093 216.055 216.315 216.155 216.548 216.199C216.669 216.221 216.791 216.232 216.924 216.221C216.991 216.221 217.057 216.21 217.124 216.21C217.157 216.21 217.19 216.188 217.223 216.188C217.279 216.166 217.246 216.21 217.401 216.121L220.171 214.615C223.894 212.644 227.65 210.717 231.528 208.99L234.774 213.01C231.65 215.889 228.392 219.477 225.101 222.112L222.619 224.061C222.553 224.116 222.287 224.294 222.121 224.404C221.932 224.526 221.744 224.659 221.545 224.77C221.146 224.991 220.736 225.213 220.304 225.379C219.45 225.744 218.542 225.977 217.622 226.121C215.772 226.398 213.855 226.209 212.06 225.567C211.163 225.246 210.298 224.814 209.512 224.271C209.113 224.006 208.736 223.707 208.37 223.397C208.182 223.242 208.016 223.075 207.85 222.909L207.407 222.466C204.47 219.466 201.578 216.431 198.742 213.331C195.905 210.241 193.102 207.119 190.421 203.896L199.407 196.056H199.418Z" fill="#B55B52"/>
<path d="M230.021 211.437L232.603 203.143L239.406 206.532C239.406 206.532 238.42 212.578 233.467 213.63L230.021 211.437Z" fill="#B55B52"/>
<path d="M235.328 200.851L241.467 202.534L239.406 206.532L232.603 203.143L235.328 200.851Z" fill="#B55B52"/>
<path d="M163.652 198.315C162.91 201.837 162.012 205.325 161.059 208.791C160.117 212.268 159.087 215.723 158.012 219.155L157.613 220.451L157.414 221.093C157.37 221.237 157.347 221.271 157.303 221.359C157.181 221.68 157.104 222.035 157.093 222.411C157.07 223.153 157.248 223.972 157.735 224.681C157.78 224.792 158.156 225.202 158.455 225.523L159.375 226.519L161.192 228.546C162.389 229.919 163.574 231.292 164.705 232.732L160.849 237.194C159.253 236.286 157.724 235.312 156.195 234.326L153.924 232.831L152.805 232.067C152.428 231.801 152.118 231.624 151.508 231.115C149.403 229.332 147.83 226.796 147.254 223.972C146.954 222.566 146.888 221.104 147.054 219.654C147.098 219.311 147.165 218.901 147.22 218.602L147.342 217.937L147.575 216.609C148.195 213.054 148.86 209.51 149.603 206C150.345 202.479 151.132 198.969 152.084 195.491L163.674 198.293L163.652 198.315Z" fill="#B55B52"/>
<path d="M160.926 232.433L165.502 230.096L167.519 237.859C167.519 237.859 163.851 239.265 161.015 237.46L160.937 232.433H160.926Z" fill="#B55B52"/>
<path d="M171.807 227.616L172.017 234.736L166.91 238.08L165.137 230.251L171.807 227.616Z" fill="#B55B52"/>
<path d="M186.754 161.706C186.864 162.259 187.241 162.635 187.606 162.569C187.961 162.492 188.171 161.993 188.049 161.44C187.927 160.887 187.551 160.51 187.197 160.577C186.842 160.654 186.643 161.152 186.754 161.706Z" fill="#263238"/>
<path d="M187.197 162.647C187.197 162.647 189.091 165.56 190.776 166.811C189.989 167.918 188.249 167.841 188.249 167.841L187.197 162.659V162.647Z" fill="#A02724"/>
<path d="M184.128 159.061C184.05 159.061 183.973 159.027 183.906 158.972C183.773 158.85 183.762 158.64 183.884 158.507C185.125 157.166 186.621 157.41 186.687 157.421C186.864 157.454 186.986 157.62 186.953 157.798C186.92 157.975 186.754 158.097 186.576 158.064C186.576 158.064 185.358 157.886 184.371 158.95C184.305 159.016 184.216 159.061 184.128 159.061Z" fill="#263238"/>
<path d="M170.776 169.424C171.995 174.507 173.214 183.809 168.859 187.197C168.859 187.197 170.566 192.347 182.155 192.347C194.897 192.347 188.249 189.024 188.249 189.024C181.291 187.674 181.48 181.638 182.687 177.685L170.787 169.413L170.776 169.424Z" fill="#B55B52"/>
<path d="M167.497 188.139C166.732 186.732 165.901 185.116 167.629 184.606C169.535 184.053 181.756 183.023 185.346 184.064C184.238 186.024 186.111 188.438 186.111 188.438L167.497 188.139Z" fill="#263238"/>
<path d="M177.624 425.753H185.612L186.41 409.675H178.41L177.624 425.753Z" fill="#B55B52"/>
<path d="M126.888 423.539L134.988 423.96L139.907 408.125L131.808 407.693L126.888 423.539Z" fill="#B55B52"/>
<path d="M134.744 423.317L127.121 421.667C126.844 421.612 126.556 421.745 126.445 422.01L123.797 427.747C123.52 428.344 123.886 429.042 124.528 429.164C127.199 429.695 128.528 429.817 131.886 430.548C133.946 430.991 138.611 432.132 141.459 432.741C144.251 433.339 145.292 430.626 144.184 430.116C139.198 427.835 137.115 425.842 135.775 423.97C135.531 423.638 135.165 423.406 134.766 423.317H134.744Z" fill="#263238"/>
<path d="M185.191 424.945H177.602C177.313 424.945 177.07 425.145 177.014 425.421L175.64 431.589C175.496 432.232 175.984 432.841 176.638 432.83C179.374 432.785 183.33 432.619 186.765 432.619C190.787 432.619 194.266 432.841 198.975 432.841C201.822 432.841 202.62 429.962 201.424 429.696C195.983 428.511 191.551 428.378 186.853 425.488C186.344 425.178 185.779 424.945 185.18 424.945H185.191Z" fill="#263238"/>
<path d="M154.378 189.545C148.339 192.413 146.71 209.787 146.71 209.787L161.635 216.675C161.635 216.675 165.336 211.216 165.624 202.645C165.923 193.664 160.549 186.599 154.389 189.534L154.378 189.545Z" fill="#263238"/>
<path opacity="0.4" d="M162.477 200.264C159.785 204.439 160.04 210.917 160.97 216.376L161.635 216.686C161.635 216.686 165.347 211.227 165.624 202.656C165.635 202.125 165.635 201.593 165.624 201.073L162.477 200.264Z" fill="black"/>
<path d="M196.028 189.124C196.028 189.124 203.418 197.474 196.438 249.131H159.275C159.02 243.429 162.599 215.623 157.104 188.759C157.104 188.759 163.475 187.485 169.546 187.186C174.3 186.954 181.169 186.81 185.346 187.186C190.853 187.685 196.028 189.113 196.028 189.113V189.124Z" fill="#407BFF"/>
<path opacity="0.6" d="M196.028 189.124C196.028 189.124 203.418 197.474 196.438 249.131H159.275C159.02 243.429 162.599 215.623 157.104 188.759C157.104 188.759 163.475 187.485 169.546 187.186C174.3 186.954 181.169 186.81 185.346 187.186C190.853 187.685 196.028 189.113 196.028 189.113V189.124Z" fill="#FAFAFA"/>
<path opacity="0.2" d="M199.274 204.915L199.13 204.793L191.74 200.851C190.986 212.224 196.072 219.355 199.097 222.467C199.518 215.18 199.507 209.433 199.263 204.915H199.274Z" fill="black"/>
<path opacity="0.2" d="M186.41 409.675L186 417.958H178L178.41 409.675H186.41Z" fill="black"/>
<path opacity="0.2" d="M131.808 407.693L139.907 408.125L137.37 416.286L129.271 415.865L131.808 407.693Z" fill="black"/>
<path d="M168.206 164.264C169.99 170.92 170.699 174.906 174.809 177.674C180.992 181.838 188.693 177.054 188.925 170C189.147 163.655 186.188 153.833 179.042 152.493C172.006 151.176 166.422 157.609 168.206 164.264Z" fill="#B55B52"/>
<path d="M183.263 249.143C183.263 249.143 175.374 302.207 171.053 322.084C166.311 343.854 140.893 415.876 140.893 415.876L128.462 413.185C128.462 413.185 144.395 354.496 148.372 324.055C149.924 312.184 151.796 293.038 154.167 277.07C156.461 261.611 159.286 249.143 159.286 249.143H183.263Z" fill="#263238"/>
<path d="M143.874 411.712L141.558 416.208L127.564 413.185L128.739 408.977L143.874 411.712Z" fill="#407BFF"/>
<path opacity="0.6" d="M143.874 411.712L141.558 416.208L127.564 413.185L128.739 408.977L143.874 411.712Z" fill="white"/>
<path opacity="0.6" d="M178.277 268.045C169.158 269.828 170.122 303.812 171.219 321.286C173.845 308.928 177.701 285.164 180.327 268.288C179.718 267.989 179.042 267.89 178.277 268.045Z" fill="black"/>
<path d="M196.437 249.143C196.437 249.143 200.149 301.055 199.385 322.228C198.598 344.253 188.15 416.363 188.15 416.363H176.383C176.383 416.363 175.951 345.537 175.43 323.911C174.854 300.335 172.006 249.143 172.006 249.143H196.426H196.437Z" fill="#263238"/>
<path d="M190.421 411.668L189.756 416.551H175.441L175.053 412.188L190.421 411.668Z" fill="#407BFF"/>
<path opacity="0.6" d="M190.421 411.668L189.756 416.551H175.441L175.053 412.188L190.421 411.668Z" fill="white"/>
<path d="M191.695 198.847C191.695 212.777 199.119 218.513 199.119 218.513L211.174 206.731C211.174 206.731 207.074 199.677 201.435 193.188C194.465 185.182 191.695 189.877 191.695 198.847Z" fill="#263238"/>
<path opacity="0.2" d="M188.504 172.525C188.194 173.378 187.396 174.828 185.38 175.404C182.432 176.246 182.399 178.737 182.399 178.737L182.432 178.782C185.236 177.851 187.574 175.537 188.504 172.525Z" fill="black"/>
<path d="M185.38 151.031C187.862 147.898 184.039 147.754 184.039 147.754C185.036 144.022 180.56 146.026 180.56 146.026C177.879 142.328 176.361 146.824 176.361 146.824C173.58 143.69 173.07 148.806 173.07 148.806C170.278 144.83 168.859 150.566 168.859 150.566C166.289 146.436 164.716 151.818 164.716 151.818C159.408 149.924 161.934 155.428 161.934 155.428C157.403 155.549 161.037 159.06 161.037 159.06C155.608 159.071 160.394 162.182 160.394 162.182C156.084 165.006 161.491 165.77 161.491 165.77C157.979 171.263 164.017 169.225 164.017 169.225C161.569 174.662 166.998 172.27 166.998 172.27C166.643 177.519 169.679 176.091 171.142 175.116C171.419 176.168 171.951 177.298 172.926 177.42C174.82 177.663 175.186 174.098 175.186 174.098C175.186 174.098 176.948 175.46 178.41 174.718C179.884 173.976 179.33 172.104 179.33 172.104C179.33 172.104 180.46 172.946 181.491 172.138C182.122 171.65 182.122 168.118 181.324 166.878L184.205 165.748C184.205 165.748 186.344 165.449 185.391 162.625C184.438 159.802 185.247 157.576 185.247 157.576C188.504 156.048 185.834 154.221 185.834 154.221C189.601 151.784 185.391 151.009 185.391 151.009L185.38 151.031Z" fill="#263238"/>
<path d="M179.54 164.541C179.995 166.291 181.147 167.786 182.344 168.683C184.15 170.022 185.502 168.705 185.369 166.656C185.258 164.818 184.172 161.895 182.178 161.352C180.216 160.809 179.02 162.537 179.529 164.541H179.54Z" fill="#B55B52"/>
</svg>
