<svg width="24" height="32" viewBox="0 0 24 32" fill="none" xmlns="http://www.w3.org/2000/svg">
<g id="Tracking">
<path id="Vector" d="M20.9492 12.9792C21.029 12.3768 21.0719 11.7796 21.0719 11.1922C21.0719 5.74764 16.659 1.33398 11.2137 1.33398C5.76837 1.33398 1.35547 5.74764 1.35547 11.1922C1.35547 18.9118 8.88601 28.2203 10.8515 30.4953C10.908 30.5608 10.978 30.6133 11.0567 30.6493C11.1354 30.6853 11.2209 30.704 11.3075 30.704C11.394 30.704 11.4795 30.6853 11.5582 30.6493C11.6369 30.6133 11.7069 30.5608 11.7634 30.4953C12.8539 29.2121 15.7064 25.6531 17.9686 21.4021" stroke="black" stroke-width="2" stroke-linecap="round" stroke-linejoin="round"/>
<path id="Vector_2" d="M12.1007 18.2748C12.1007 18.6743 11.9421 19.0573 11.6596 19.3398C11.3772 19.6222 10.9941 19.7809 10.5946 19.7809C10.1952 19.7809 9.81209 19.6222 9.52964 19.3398C9.24719 19.0573 9.08851 18.6743 9.08851 18.2748M12.1007 18.2748C12.1007 17.8754 11.9421 17.4923 11.6596 17.2098C11.3772 16.9274 10.9941 16.7687 10.5946 16.7687C10.1952 16.7687 9.81209 16.9274 9.52964 17.2098C9.24719 17.4923 9.08851 17.8754 9.08851 18.2748M12.1007 18.2748H18.1259M9.08851 18.2748H7.5824V13.0034H6.82935M21.1381 18.2748C21.1381 18.6743 20.9795 19.0573 20.697 19.3398C20.4146 19.6222 20.0315 19.7809 19.632 19.7809C19.2326 19.7809 18.8495 19.6222 18.567 19.3398C18.2846 19.0573 18.1259 18.6743 18.1259 18.2748M21.1381 18.2748C21.1381 17.8754 20.9795 17.4923 20.697 17.2098C20.4146 16.9274 20.0315 16.7687 19.632 16.7687C19.2326 16.7687 18.8495 16.9274 18.567 17.2098C18.2846 17.4923 18.1259 17.8754 18.1259 18.2748M21.1381 18.2748H22.6442V14.5095L18.879 10.7443M15.866 11.4973V9.99121H5.32324M18.8782 10.7435H15.866V18.2748M7.5824 11.4973H6.0763M20.3843 12.2504H17.3721V14.8861H22.6442" stroke="black" stroke-linecap="round" stroke-linejoin="round"/>
</g>
</svg>
