<svg width="13" height="20" viewBox="0 0 13 20" fill="none" xmlns="http://www.w3.org/2000/svg">
<path d="M3.21408 7.143C3.41132 7.143 3.57122 6.9831 3.57122 6.78585C3.57122 6.58861 3.41132 6.42871 3.21408 6.42871C3.01683 6.42871 2.85693 6.58861 2.85693 6.78585C2.85693 6.9831 3.01683 7.143 3.21408 7.143Z" fill="#FBFBFB"/>
<path d="M3.21408 9.28557C3.41132 9.28557 3.57122 9.12568 3.57122 8.92843C3.57122 8.73119 3.41132 8.57129 3.21408 8.57129C3.01683 8.57129 2.85693 8.73119 2.85693 8.92843C2.85693 9.12568 3.01683 9.28557 3.21408 9.28557Z" fill="#FBFBFB"/>
<path d="M3.21408 11.4282C3.41132 11.4282 3.57122 11.2683 3.57122 11.071C3.57122 10.8738 3.41132 10.7139 3.21408 10.7139C3.01683 10.7139 2.85693 10.8738 2.85693 11.071C2.85693 11.2683 3.01683 11.4282 3.21408 11.4282Z" fill="#FBFBFB"/>
<path d="M3.21408 13.5717C3.41132 13.5717 3.57122 13.4118 3.57122 13.2146C3.57122 13.0173 3.41132 12.8574 3.21408 12.8574C3.01683 12.8574 2.85693 13.0173 2.85693 13.2146C2.85693 13.4118 3.01683 13.5717 3.21408 13.5717Z" fill="#FBFBFB"/>
<path d="M9.64328 7.143H4.64328C4.44613 7.143 4.28613 6.983 4.28613 6.78585C4.28613 6.58871 4.44613 6.42871 4.64328 6.42871H9.64328C9.84042 6.42871 10.0004 6.58871 10.0004 6.78585C10.0004 6.983 9.84042 7.143 9.64328 7.143Z" fill="#FBFBFB"/>
<path d="M9.64328 9.28557H4.64328C4.44613 9.28557 4.28613 9.12557 4.28613 8.92843C4.28613 8.73129 4.44613 8.57129 4.64328 8.57129H9.64328C9.84042 8.57129 10.0004 8.73129 10.0004 8.92843C10.0004 9.12557 9.84042 9.28557 9.64328 9.28557Z" fill="#FBFBFB"/>
<path d="M9.64328 11.4282H4.64328C4.44613 11.4282 4.28613 11.2682 4.28613 11.071C4.28613 10.8739 4.44613 10.7139 4.64328 10.7139H9.64328C9.84042 10.7139 10.0004 10.8739 10.0004 11.071C10.0004 11.2682 9.84042 11.4282 9.64328 11.4282Z" fill="#FBFBFB"/>
<path d="M9.64328 13.5717H4.64328C4.44613 13.5717 4.28613 13.4117 4.28613 13.2146C4.28613 13.0174 4.44613 12.8574 4.64328 12.8574H9.64328C9.84042 12.8574 10.0004 13.0174 10.0004 13.2146C10.0004 13.4117 9.84042 13.5717 9.64328 13.5717Z" fill="#FBFBFB"/>
<path d="M11.7857 20H1.07143C0.480714 20 0 19.5193 0 18.9286V1.07143C0 0.480714 0.480714 0 1.07143 0H1.78571C1.98286 0 2.14286 0.16 2.14286 0.357143C2.14286 0.554286 1.98286 0.714286 1.78571 0.714286H1.07143C0.874286 0.714286 0.714286 0.875 0.714286 1.07143V18.9286C0.714286 19.125 0.874286 19.2857 1.07143 19.2857H11.7857C11.9829 19.2857 12.1429 19.125 12.1429 18.9286V1.07143C12.1429 0.875 11.9829 0.714286 11.7857 0.714286H3.92857C3.73143 0.714286 3.57143 0.554286 3.57143 0.357143C3.57143 0.16 3.73143 0 3.92857 0H11.7857C12.3764 0 12.8571 0.480714 12.8571 1.07143V18.9286C12.8571 19.5193 12.3764 20 11.7857 20Z" fill="#FBFBFB"/>
</svg>
