<svg width="21" height="24" viewBox="0 0 21 24" fill="none" xmlns="http://www.w3.org/2000/svg">
<path d="M3 20V11C3 9.4087 3.63214 7.88258 4.75736 6.75736C5.88258 5.63214 7.4087 5 9 5C10.5913 5 12.1174 5.63214 13.2426 6.75736C14.3679 7.88258 15 9.4087 15 11V20M3 20H15M3 20H1M15 20H17M8 23H10" stroke="#2A2A2A" stroke-linecap="round" stroke-linejoin="round"/>
<path d="M9 5C9.55228 5 10 4.55228 10 4C10 3.44772 9.55228 3 9 3C8.44772 3 8 3.44772 8 4C8 4.55228 8.44772 5 9 5Z" stroke="#2A2A2A"/>
<circle cx="16" cy="5" r="5" fill="#3B611D"/>
</svg>
