<svg width="50" height="50" viewBox="0 0 50 50" fill="none" xmlns="http://www.w3.org/2000/svg">
<circle cx="25" cy="25" r="25" fill="#5D982E"/>
<path d="M13.5455 25.5C12.1455 25.5 11 24.35 11 22.9444V16.5556C11 15.15 12.1455 14 13.5455 14H23.7273C25.1273 14 26.2727 15.15 26.2727 16.5556V22.9444C26.2727 24.35 25.1273 25.5 23.7273 25.5H21.1818V29.3333L17.3636 25.5H13.5455ZM36.4545 33.1667C37.8545 33.1667 39 32.0167 39 30.6111V24.2222C39 22.8167 37.8545 21.6667 36.4545 21.6667H28.8182V22.9444C28.8182 25.7556 26.5273 28.0556 23.7273 28.0556V30.6111C23.7273 32.0167 24.8727 33.1667 26.2727 33.1667H28.8182V37L32.6364 33.1667H36.4545Z" fill="white"/>
</svg>
