<svg width="99" height="99" viewBox="0 0 99 99" fill="none" xmlns="http://www.w3.org/2000/svg">
<circle cx="49.5" cy="49.5" r="49.5" fill="#5D982E"/>
<path d="M43.7266 24.7508C46.1892 24.7508 48.4043 25.8316 49.9141 27.5434C51.2674 26.0087 53.1428 25.0317 55.176 24.8021C57.2093 24.5725 59.2553 25.1067 60.9168 26.3009C62.5783 27.4951 63.7368 29.2641 64.1672 31.2644C64.5976 33.2648 64.2693 35.3537 63.2461 37.1256H68.4766C69.5706 37.1256 70.6198 37.5602 71.3934 38.3338C72.167 39.1074 72.6016 40.1565 72.6016 41.2505V49.5004C72.6016 50.5944 72.167 51.6436 71.3934 52.4172C70.6198 53.1908 69.5706 53.6253 68.4766 53.6253V66.0001C68.4766 68.1881 67.6074 70.2865 66.0602 71.8337C64.513 73.3808 62.4146 74.25 60.2266 74.25H39.6016C37.4135 74.25 35.3151 73.3808 33.7679 71.8337C32.2208 70.2865 31.3516 68.1881 31.3516 66.0001V53.6253C30.2575 53.6253 29.2083 53.1908 28.4347 52.4172C27.6612 51.6436 27.2266 50.5944 27.2266 49.5004V41.2505C27.2266 40.1565 27.6612 39.1074 28.4347 38.3338C29.2083 37.5602 30.2575 37.1256 31.3516 37.1256H36.5821C35.858 35.8715 35.4768 34.4489 35.4768 33.0007C35.4768 31.5526 35.8579 30.13 36.582 28.8758C37.3061 27.6217 38.3475 26.5803 39.6016 25.8562C40.8558 25.1321 42.2784 24.7509 43.7266 24.7508ZM39.6016 33.0007C39.6016 34.0947 40.0362 35.1439 40.8097 35.9174C41.5833 36.691 42.6325 37.1256 43.7266 37.1256H47.8516V33.0007C47.8516 31.9067 47.417 30.8575 46.6434 30.0839C45.8698 29.3103 44.8206 28.8758 43.7266 28.8758C42.6325 28.8758 41.5833 29.3103 40.8097 30.0839C40.0362 30.8575 39.6016 31.9067 39.6016 33.0007ZM51.9766 41.2505V49.5004H68.4766V41.2505H51.9766ZM47.8516 41.2505H31.3516V49.5004H47.8516V41.2505ZM35.4766 53.6253V66.0001C35.4766 67.0941 35.9112 68.1433 36.6847 68.9169C37.4583 69.6905 38.5075 70.1251 39.6016 70.1251H47.8516V53.6253H35.4766ZM51.9766 70.1251H60.2266C61.3206 70.1251 62.3698 69.6905 63.1434 68.9169C63.917 68.1433 64.3516 67.0941 64.3516 66.0001V53.6253H51.9766V70.1251ZM60.2266 33.0007C60.2266 31.9067 59.792 30.8575 59.0184 30.0839C58.2448 29.3103 57.1956 28.8758 56.1016 28.8758C55.0075 28.8758 53.9583 29.3103 53.1847 30.0839C52.4112 30.8575 51.9766 31.9067 51.9766 33.0007V37.1256H56.1016C57.1956 37.1256 58.2448 36.691 59.0184 35.9174C59.792 35.1439 60.2266 34.0947 60.2266 33.0007Z" fill="#FBFBFB"/>
</svg>
