<svg width="297" height="162" viewBox="0 0 297 162" fill="none" xmlns="http://www.w3.org/2000/svg">
<rect width="297" height="162" rx="6" fill="url(#paint0_linear_78_242)"/>
<path d="M236.296 133.096C235.432 133.096 234.664 132.872 233.992 132.424C233.32 131.965 232.792 131.315 232.408 130.472C232.024 129.619 231.832 128.595 231.832 127.4C231.832 126.205 232.024 125.187 232.408 124.344C232.792 123.491 233.32 122.84 233.992 122.392C234.664 121.933 235.432 121.704 236.296 121.704C237.16 121.704 237.928 121.933 238.6 122.392C239.272 122.84 239.8 123.491 240.184 124.344C240.579 125.187 240.776 126.205 240.776 127.4C240.776 128.595 240.579 129.619 240.184 130.472C239.8 131.315 239.272 131.965 238.6 132.424C237.928 132.872 237.16 133.096 236.296 133.096ZM236.296 132.04C236.957 132.04 237.533 131.864 238.024 131.512C238.515 131.149 238.899 130.627 239.176 129.944C239.453 129.251 239.592 128.403 239.592 127.4C239.592 126.397 239.453 125.555 239.176 124.872C238.899 124.179 238.515 123.656 238.024 123.304C237.533 122.941 236.957 122.76 236.296 122.76C235.656 122.76 235.085 122.941 234.584 123.304C234.083 123.656 233.693 124.179 233.416 124.872C233.139 125.555 233 126.397 233 127.4C233 128.403 233.139 129.251 233.416 129.944C233.693 130.627 234.083 131.149 234.584 131.512C235.085 131.864 235.656 132.04 236.296 132.04ZM242.234 130.056V129.224L248.17 121.8H249.45L243.562 129.224L242.938 129.032H251.946V130.056H242.234ZM248.554 133V130.056L248.586 129.032V126.44H249.706V133H248.554ZM252.225 134.6L257.505 119.528H258.545L253.265 134.6H252.225ZM258.608 133V132.184L263.264 127.624C263.691 127.208 264.011 126.845 264.224 126.536C264.438 126.216 264.582 125.917 264.656 125.64C264.731 125.363 264.768 125.101 264.768 124.856C264.768 124.205 264.544 123.693 264.096 123.32C263.659 122.947 263.008 122.76 262.144 122.76C261.483 122.76 260.896 122.861 260.384 123.064C259.883 123.267 259.451 123.581 259.088 124.008L258.272 123.304C258.71 122.792 259.27 122.397 259.952 122.12C260.635 121.843 261.398 121.704 262.24 121.704C262.998 121.704 263.654 121.827 264.208 122.072C264.763 122.307 265.19 122.653 265.488 123.112C265.798 123.571 265.952 124.109 265.952 124.728C265.952 125.091 265.899 125.448 265.792 125.8C265.696 126.152 265.515 126.525 265.248 126.92C264.992 127.304 264.614 127.741 264.112 128.232L259.84 132.424L259.52 131.976H266.464V133H258.608ZM271.254 133.096C270.443 133.096 269.675 132.968 268.95 132.712C268.235 132.445 267.659 132.093 267.222 131.656L267.782 130.744C268.145 131.117 268.63 131.427 269.238 131.672C269.857 131.917 270.529 132.04 271.254 132.04C272.182 132.04 272.891 131.837 273.382 131.432C273.883 131.027 274.134 130.483 274.134 129.8C274.134 129.117 273.889 128.573 273.398 128.168C272.918 127.763 272.155 127.56 271.11 127.56H270.31V126.712L273.766 122.376L273.926 122.824H267.686V121.8H274.886V122.616L271.43 126.952L270.87 126.584H271.302C272.646 126.584 273.649 126.883 274.31 127.48C274.982 128.077 275.318 128.845 275.318 129.784C275.318 130.413 275.169 130.979 274.87 131.48C274.571 131.981 274.118 132.376 273.51 132.664C272.913 132.952 272.161 133.096 271.254 133.096Z" fill="white"/>
<circle cx="254" cy="30" r="10" fill="#EA001B"/>
<circle cx="267" cy="30" r="10" fill="#EBAC15" fill-opacity="0.88"/>
<path d="M26.688 36.128C25.8347 36.128 25.0453 35.9893 24.32 35.712C23.6053 35.424 22.9813 35.024 22.448 34.512C21.9253 33.9893 21.5147 33.3813 21.216 32.688C20.9173 31.9947 20.768 31.232 20.768 30.4C20.768 29.568 20.9173 28.8053 21.216 28.112C21.5147 27.4187 21.9307 26.816 22.464 26.304C22.9973 25.7813 23.6213 25.3813 24.336 25.104C25.0613 24.816 25.8507 24.672 26.704 24.672C27.568 24.672 28.3627 24.8213 29.088 25.12C29.824 25.408 30.448 25.84 30.96 26.416L29.92 27.424C29.4933 26.976 29.0133 26.6453 28.48 26.432C27.9467 26.208 27.376 26.096 26.768 26.096C26.1387 26.096 25.552 26.2027 25.008 26.416C24.4747 26.6293 24.0107 26.928 23.616 27.312C23.2213 27.696 22.912 28.1547 22.688 28.688C22.4747 29.2107 22.368 29.7813 22.368 30.4C22.368 31.0187 22.4747 31.5947 22.688 32.128C22.912 32.6507 23.2213 33.104 23.616 33.488C24.0107 33.872 24.4747 34.1707 25.008 34.384C25.552 34.5973 26.1387 34.704 26.768 34.704C27.376 34.704 27.9467 34.5973 28.48 34.384C29.0133 34.16 29.4933 33.8187 29.92 33.36L30.96 34.368C30.448 34.944 29.824 35.3813 29.088 35.68C28.3627 35.9787 27.5627 36.128 26.688 36.128ZM33.0185 36V27.52H34.4905V29.824L34.3465 29.248C34.5812 28.6613 34.9758 28.2133 35.5305 27.904C36.0852 27.5947 36.7678 27.44 37.5785 27.44V28.928C37.5145 28.9173 37.4505 28.912 37.3865 28.912C37.3332 28.912 37.2798 28.912 37.2265 28.912C36.4052 28.912 35.7545 29.1573 35.2745 29.648C34.7945 30.1387 34.5545 30.848 34.5545 31.776V36H33.0185ZM43.1695 36.096C42.2628 36.096 41.4628 35.9093 40.7695 35.536C40.0868 35.1627 39.5535 34.6507 39.1695 34C38.7962 33.3493 38.6095 32.6027 38.6095 31.76C38.6095 30.9173 38.7908 30.1707 39.1535 29.52C39.5268 28.8693 40.0335 28.3627 40.6735 28C41.3242 27.6267 42.0548 27.44 42.8655 27.44C43.6868 27.44 44.4122 27.6213 45.0415 27.984C45.6708 28.3467 46.1615 28.8587 46.5135 29.52C46.8762 30.1707 47.0575 30.9333 47.0575 31.808C47.0575 31.872 47.0522 31.9467 47.0415 32.032C47.0415 32.1173 47.0362 32.1973 47.0255 32.272H39.8095V31.168H46.2255L45.6015 31.552C45.6122 31.008 45.5002 30.5227 45.2655 30.096C45.0308 29.6693 44.7055 29.3387 44.2895 29.104C43.8842 28.8587 43.4095 28.736 42.8655 28.736C42.3322 28.736 41.8575 28.8587 41.4415 29.104C41.0255 29.3387 40.7002 29.6747 40.4655 30.112C40.2308 30.5387 40.1135 31.0293 40.1135 31.584V31.84C40.1135 32.4053 40.2415 32.912 40.4975 33.36C40.7642 33.7973 41.1322 34.1387 41.6015 34.384C42.0708 34.6293 42.6095 34.752 43.2175 34.752C43.7188 34.752 44.1722 34.6667 44.5775 34.496C44.9935 34.3253 45.3562 34.0693 45.6655 33.728L46.5135 34.72C46.1295 35.168 45.6495 35.5093 45.0735 35.744C44.5082 35.9787 43.8735 36.096 43.1695 36.096ZM52.6944 36.096C51.873 36.096 51.137 35.9147 50.4864 35.552C49.8464 35.1893 49.3397 34.6827 48.9664 34.032C48.593 33.3813 48.4064 32.624 48.4064 31.76C48.4064 30.896 48.593 30.144 48.9664 29.504C49.3397 28.8533 49.8464 28.3467 50.4864 27.984C51.137 27.6213 51.873 27.44 52.6944 27.44C53.409 27.44 54.0544 27.6 54.6304 27.92C55.2064 28.24 55.665 28.72 56.0064 29.36C56.3584 30 56.5344 30.8 56.5344 31.76C56.5344 32.72 56.3637 33.52 56.0224 34.16C55.6917 34.8 55.2384 35.2853 54.6624 35.616C54.0864 35.936 53.4304 36.096 52.6944 36.096ZM52.8224 34.752C53.3557 34.752 53.8357 34.6293 54.2624 34.384C54.6997 34.1387 55.041 33.792 55.2864 33.344C55.5424 32.8853 55.6704 32.3573 55.6704 31.76C55.6704 31.152 55.5424 30.6293 55.2864 30.192C55.041 29.744 54.6997 29.3973 54.2624 29.152C53.8357 28.9067 53.3557 28.784 52.8224 28.784C52.2784 28.784 51.793 28.9067 51.3664 29.152C50.9397 29.3973 50.5984 29.744 50.3424 30.192C50.0864 30.6293 49.9584 31.152 49.9584 31.76C49.9584 32.3573 50.0864 32.8853 50.3424 33.344C50.5984 33.792 50.9397 34.1387 51.3664 34.384C51.793 34.6293 52.2784 34.752 52.8224 34.752ZM55.7184 36V33.712L55.8144 31.744L55.6544 29.776V24.128H57.1904V36H55.7184ZM60.0966 36V27.52H61.6326V36H60.0966ZM60.8646 25.888C60.566 25.888 60.3153 25.792 60.1126 25.6C59.9206 25.408 59.8246 25.1733 59.8246 24.896C59.8246 24.608 59.9206 24.368 60.1126 24.176C60.3153 23.984 60.566 23.888 60.8646 23.888C61.1633 23.888 61.4086 23.984 61.6006 24.176C61.8033 24.3573 61.9046 24.5867 61.9046 24.864C61.9046 25.152 61.8086 25.3973 61.6166 25.6C61.4246 25.792 61.174 25.888 60.8646 25.888ZM67.4774 36.096C66.624 36.096 65.9627 35.8667 65.4934 35.408C65.024 34.9493 64.7894 34.2933 64.7894 33.44V25.664H66.3254V33.376C66.3254 33.8347 66.4374 34.1867 66.6614 34.432C66.896 34.6773 67.2267 34.8 67.6534 34.8C68.1334 34.8 68.5334 34.6667 68.8534 34.4L69.3334 35.504C69.0987 35.7067 68.816 35.856 68.4854 35.952C68.1654 36.048 67.8294 36.096 67.4774 36.096ZM63.3494 28.784V27.52H68.7574V28.784H63.3494ZM80.7193 36.128C79.8659 36.128 79.0766 35.9893 78.3513 35.712C77.6366 35.424 77.0126 35.024 76.4793 34.512C75.9566 33.9893 75.5459 33.3813 75.2473 32.688C74.9486 31.9947 74.7993 31.232 74.7993 30.4C74.7993 29.568 74.9486 28.8053 75.2473 28.112C75.5459 27.4187 75.9619 26.816 76.4953 26.304C77.0286 25.7813 77.6526 25.3813 78.3673 25.104C79.0926 24.816 79.8819 24.672 80.7353 24.672C81.5993 24.672 82.3939 24.8213 83.1193 25.12C83.8553 25.408 84.4793 25.84 84.9913 26.416L83.9513 27.424C83.5246 26.976 83.0446 26.6453 82.5113 26.432C81.9779 26.208 81.4073 26.096 80.7993 26.096C80.1699 26.096 79.5833 26.2027 79.0393 26.416C78.5059 26.6293 78.0419 26.928 77.6473 27.312C77.2526 27.696 76.9433 28.1547 76.7193 28.688C76.5059 29.2107 76.3993 29.7813 76.3993 30.4C76.3993 31.0187 76.5059 31.5947 76.7193 32.128C76.9433 32.6507 77.2526 33.104 77.6473 33.488C78.0419 33.872 78.5059 34.1707 79.0393 34.384C79.5833 34.5973 80.1699 34.704 80.7993 34.704C81.4073 34.704 81.9779 34.5973 82.5113 34.384C83.0446 34.16 83.5246 33.8187 83.9513 33.36L84.9913 34.368C84.4793 34.944 83.8553 35.3813 83.1193 35.68C82.3939 35.9787 81.5939 36.128 80.7193 36.128ZM92.2044 36V34.208L92.1244 33.872V30.816C92.1244 30.1653 91.9324 29.664 91.5484 29.312C91.175 28.9493 90.6097 28.768 89.8524 28.768C89.351 28.768 88.8604 28.8533 88.3804 29.024C87.9004 29.184 87.495 29.4027 87.1644 29.68L86.5244 28.528C86.9617 28.176 87.4844 27.9093 88.0924 27.728C88.711 27.536 89.3564 27.44 90.0284 27.44C91.191 27.44 92.087 27.7227 92.7164 28.288C93.3457 28.8533 93.6604 29.7173 93.6604 30.88V36H92.2044ZM89.4204 36.096C88.791 36.096 88.2364 35.9893 87.7564 35.776C87.287 35.5627 86.9244 35.2693 86.6684 34.896C86.4124 34.512 86.2844 34.08 86.2844 33.6C86.2844 33.1413 86.391 32.7253 86.6044 32.352C86.8284 31.9787 87.1857 31.68 87.6764 31.456C88.1777 31.232 88.8497 31.12 89.6924 31.12H92.3804V32.224H89.7564C88.9884 32.224 88.471 32.352 88.2044 32.608C87.9377 32.864 87.8044 33.1733 87.8044 33.536C87.8044 33.952 87.9697 34.288 88.3004 34.544C88.631 34.7893 89.0897 34.912 89.6764 34.912C90.2524 34.912 90.7537 34.784 91.1804 34.528C91.6177 34.272 91.9324 33.8987 92.1244 33.408L92.4284 34.464C92.2257 34.9653 91.8684 35.3653 91.3564 35.664C90.8444 35.952 90.199 36.096 89.4204 36.096ZM96.5029 36V27.52H97.9749V29.824L97.8309 29.248C98.0655 28.6613 98.4602 28.2133 99.0149 27.904C99.5695 27.5947 100.252 27.44 101.063 27.44V28.928C100.999 28.9173 100.935 28.912 100.871 28.912C100.818 28.912 100.764 28.912 100.711 28.912C99.8895 28.912 99.2389 29.1573 98.7589 29.648C98.2789 30.1387 98.0389 30.848 98.0389 31.776V36H96.5029ZM106.382 36.096C105.561 36.096 104.825 35.9147 104.174 35.552C103.534 35.1893 103.027 34.6827 102.654 34.032C102.281 33.3813 102.094 32.624 102.094 31.76C102.094 30.896 102.281 30.144 102.654 29.504C103.027 28.8533 103.534 28.3467 104.174 27.984C104.825 27.6213 105.561 27.44 106.382 27.44C107.097 27.44 107.742 27.6 108.318 27.92C108.894 28.24 109.353 28.72 109.694 29.36C110.046 30 110.222 30.8 110.222 31.76C110.222 32.72 110.051 33.52 109.71 34.16C109.379 34.8 108.926 35.2853 108.35 35.616C107.774 35.936 107.118 36.096 106.382 36.096ZM106.51 34.752C107.043 34.752 107.523 34.6293 107.95 34.384C108.387 34.1387 108.729 33.792 108.974 33.344C109.23 32.8853 109.358 32.3573 109.358 31.76C109.358 31.152 109.23 30.6293 108.974 30.192C108.729 29.744 108.387 29.3973 107.95 29.152C107.523 28.9067 107.043 28.784 106.51 28.784C105.966 28.784 105.481 28.9067 105.054 29.152C104.627 29.3973 104.286 29.744 104.03 30.192C103.774 30.6293 103.646 31.152 103.646 31.76C103.646 32.3573 103.774 32.8853 104.03 33.344C104.286 33.792 104.627 34.1387 105.054 34.384C105.481 34.6293 105.966 34.752 106.51 34.752ZM109.406 36V33.712L109.502 31.744L109.342 29.776V24.128H110.878V36H109.406Z" fill="white"/>
<path d="M21.596 134V124.2H22.632V133.104H28.12V134H21.596ZM32.6428 134.07C31.8774 134.07 31.2054 133.911 30.6268 133.594C30.0481 133.267 29.5954 132.824 29.2688 132.264C28.9421 131.695 28.7788 131.046 28.7788 130.318C28.7788 129.59 28.9328 128.946 29.2408 128.386C29.5581 127.826 29.9874 127.387 30.5288 127.07C31.0794 126.743 31.6954 126.58 32.3768 126.58C33.0674 126.58 33.6788 126.739 34.2108 127.056C34.7521 127.364 35.1768 127.803 35.4848 128.372C35.7928 128.932 35.9468 129.581 35.9468 130.318C35.9468 130.365 35.9421 130.416 35.9328 130.472C35.9328 130.519 35.9328 130.57 35.9328 130.626H29.5348V129.884H35.4008L35.0088 130.178C35.0088 129.646 34.8921 129.175 34.6588 128.764C34.4348 128.344 34.1268 128.017 33.7348 127.784C33.3428 127.551 32.8901 127.434 32.3768 127.434C31.8728 127.434 31.4201 127.551 31.0188 127.784C30.6174 128.017 30.3048 128.344 30.0808 128.764C29.8568 129.184 29.7448 129.665 29.7448 130.206V130.36C29.7448 130.92 29.8661 131.415 30.1088 131.844C30.3608 132.264 30.7061 132.595 31.1448 132.838C31.5928 133.071 32.1014 133.188 32.6708 133.188C33.1188 133.188 33.5341 133.109 33.9168 132.95C34.3088 132.791 34.6448 132.549 34.9248 132.222L35.4848 132.866C35.1581 133.258 34.7474 133.557 34.2528 133.762C33.7674 133.967 33.2308 134.07 32.6428 134.07ZM37.3406 127.028L37.9566 124.452L38.0686 125.04C37.854 125.04 37.672 124.975 37.5226 124.844C37.3826 124.704 37.3126 124.522 37.3126 124.298C37.3126 124.074 37.3826 123.892 37.5226 123.752C37.672 123.612 37.8493 123.542 38.0546 123.542C38.2693 123.542 38.442 123.617 38.5726 123.766C38.7126 123.906 38.7826 124.083 38.7826 124.298C38.7826 124.373 38.778 124.447 38.7686 124.522C38.7593 124.597 38.7406 124.681 38.7126 124.774C38.694 124.858 38.6613 124.965 38.6146 125.096L38.0126 127.028H37.3406ZM43.9582 134.084C43.2302 134.084 42.5302 133.967 41.8582 133.734C41.1955 133.491 40.6822 133.183 40.3182 132.81L40.7242 132.012C41.0695 132.348 41.5315 132.633 42.1102 132.866C42.6982 133.09 43.3142 133.202 43.9582 133.202C44.5742 133.202 45.0735 133.127 45.4562 132.978C45.8482 132.819 46.1328 132.609 46.3102 132.348C46.4968 132.087 46.5902 131.797 46.5902 131.48C46.5902 131.097 46.4782 130.789 46.2542 130.556C46.0395 130.323 45.7548 130.141 45.4002 130.01C45.0455 129.87 44.6535 129.749 44.2242 129.646C43.7948 129.543 43.3655 129.436 42.9362 129.324C42.5068 129.203 42.1102 129.044 41.7462 128.848C41.3915 128.652 41.1022 128.395 40.8782 128.078C40.6635 127.751 40.5562 127.327 40.5562 126.804C40.5562 126.319 40.6822 125.875 40.9342 125.474C41.1955 125.063 41.5922 124.737 42.1242 124.494C42.6562 124.242 43.3375 124.116 44.1682 124.116C44.7188 124.116 45.2648 124.195 45.8062 124.354C46.3475 124.503 46.8142 124.713 47.2062 124.984L46.8562 125.81C46.4362 125.53 45.9882 125.325 45.5122 125.194C45.0455 125.063 44.5928 124.998 44.1542 124.998C43.5662 124.998 43.0808 125.077 42.6982 125.236C42.3155 125.395 42.0308 125.609 41.8442 125.88C41.6668 126.141 41.5782 126.44 41.5782 126.776C41.5782 127.159 41.6855 127.467 41.9002 127.7C42.1242 127.933 42.4135 128.115 42.7682 128.246C43.1322 128.377 43.5288 128.493 43.9582 128.596C44.3875 128.699 44.8122 128.811 45.2322 128.932C45.6615 129.053 46.0535 129.212 46.4082 129.408C46.7722 129.595 47.0615 129.847 47.2762 130.164C47.5002 130.481 47.6122 130.897 47.6122 131.41C47.6122 131.886 47.4815 132.329 47.2202 132.74C46.9588 133.141 46.5575 133.468 46.0162 133.72C45.4842 133.963 44.7982 134.084 43.9582 134.084ZM52.6554 134.07C51.9461 134.07 51.3068 133.911 50.7374 133.594C50.1774 133.267 49.7341 132.824 49.4074 132.264C49.0808 131.695 48.9174 131.046 48.9174 130.318C48.9174 129.581 49.0808 128.932 49.4074 128.372C49.7341 127.812 50.1774 127.373 50.7374 127.056C51.2974 126.739 51.9368 126.58 52.6554 126.58C53.3834 126.58 54.0274 126.739 54.5874 127.056C55.1568 127.373 55.6001 127.812 55.9174 128.372C56.2441 128.932 56.4074 129.581 56.4074 130.318C56.4074 131.046 56.2441 131.695 55.9174 132.264C55.6001 132.824 55.1568 133.267 54.5874 133.594C54.0181 133.911 53.3741 134.07 52.6554 134.07ZM52.6554 133.188C53.1874 133.188 53.6588 133.071 54.0694 132.838C54.4801 132.595 54.8021 132.259 55.0354 131.83C55.2781 131.391 55.3994 130.887 55.3994 130.318C55.3994 129.739 55.2781 129.235 55.0354 128.806C54.8021 128.377 54.4801 128.045 54.0694 127.812C53.6588 127.569 53.1921 127.448 52.6694 127.448C52.1468 127.448 51.6801 127.569 51.2694 127.812C50.8588 128.045 50.5321 128.377 50.2894 128.806C50.0468 129.235 49.9254 129.739 49.9254 130.318C49.9254 130.887 50.0468 131.391 50.2894 131.83C50.5321 132.259 50.8588 132.595 51.2694 132.838C51.6801 133.071 52.1421 133.188 52.6554 133.188ZM58.6048 134V125.726C58.6048 125.073 58.7961 124.545 59.1788 124.144C59.5614 123.743 60.1121 123.542 60.8308 123.542C61.1108 123.542 61.3814 123.579 61.6428 123.654C61.9041 123.729 62.1234 123.845 62.3008 124.004L61.9648 124.746C61.8248 124.625 61.6614 124.536 61.4748 124.48C61.2881 124.415 61.0874 124.382 60.8728 124.382C60.4528 124.382 60.1308 124.499 59.9068 124.732C59.6828 124.965 59.5708 125.311 59.5708 125.768V126.888L59.5988 127.35V134H58.6048ZM57.2888 127.476V126.65H61.8388V127.476H57.2888ZM65.5049 134.07C64.8143 134.07 64.2823 133.883 63.9089 133.51C63.5356 133.137 63.3489 132.609 63.3489 131.928V125.026H64.3429V131.872C64.3429 132.301 64.4503 132.633 64.6649 132.866C64.8889 133.099 65.2063 133.216 65.6169 133.216C66.0556 133.216 66.4196 133.09 66.7089 132.838L67.0589 133.552C66.8629 133.729 66.6249 133.86 66.3449 133.944C66.0743 134.028 65.7943 134.07 65.5049 134.07ZM62.0329 127.476V126.65H66.5829V127.476H62.0329Z" fill="white"/>
<path d="M25.334 75.292L23.43 76.356V76.09L25.334 77.154L24.9 77.924L23.052 76.846L23.206 76.748L23.22 78.834H22.38L22.394 76.748L22.548 76.846L20.7 77.924L20.266 77.154L22.184 76.09V76.356L20.266 75.292L20.7 74.508L22.548 75.6L22.394 75.698L22.38 73.612H23.22L23.206 75.698L23.052 75.6L24.9 74.508L25.334 75.292ZM32.4729 75.292L30.5689 76.356V76.09L32.4729 77.154L32.0389 77.924L30.1909 76.846L30.3449 76.748L30.3589 78.834H29.5189L29.5329 76.748L29.6869 76.846L27.8389 77.924L27.4049 77.154L29.3229 76.09V76.356L27.4049 75.292L27.8389 74.508L29.6869 75.6L29.5329 75.698L29.5189 73.612H30.3589L30.3449 75.698L30.1909 75.6L32.0389 74.508L32.4729 75.292ZM39.6118 75.292L37.7078 76.356V76.09L39.6118 77.154L39.1778 77.924L37.3298 76.846L37.4838 76.748L37.4978 78.834H36.6578L36.6718 76.748L36.8258 76.846L34.9778 77.924L34.5438 77.154L36.4618 76.09V76.356L34.5438 75.292L34.9778 74.508L36.8258 75.6L36.6718 75.698L36.6578 73.612H37.4978L37.4838 75.698L37.3298 75.6L39.1778 74.508L39.6118 75.292ZM46.7507 75.292L44.8467 76.356V76.09L46.7507 77.154L46.3167 77.924L44.4687 76.846L44.6227 76.748L44.6367 78.834H43.7967L43.8107 76.748L43.9647 76.846L42.1167 77.924L41.6827 77.154L43.6007 76.09V76.356L41.6827 75.292L42.1167 74.508L43.9647 75.6L43.8107 75.698L43.7967 73.612H44.6367L44.6227 75.698L44.4687 75.6L46.3167 74.508L46.7507 75.292ZM58.636 75.292L56.732 76.356V76.09L58.636 77.154L58.202 77.924L56.354 76.846L56.508 76.748L56.522 78.834H55.682L55.696 76.748L55.85 76.846L54.002 77.924L53.568 77.154L55.486 76.09V76.356L53.568 75.292L54.002 74.508L55.85 75.6L55.696 75.698L55.682 73.612H56.522L56.508 75.698L56.354 75.6L58.202 74.508L58.636 75.292ZM65.7749 75.292L63.8709 76.356V76.09L65.7749 77.154L65.3409 77.924L63.4929 76.846L63.6469 76.748L63.6609 78.834H62.8209L62.8349 76.748L62.9889 76.846L61.1409 77.924L60.7069 77.154L62.6249 76.09V76.356L60.7069 75.292L61.1409 74.508L62.9889 75.6L62.8349 75.698L62.8209 73.612H63.6609L63.6469 75.698L63.4929 75.6L65.3409 74.508L65.7749 75.292ZM72.9138 75.292L71.0098 76.356V76.09L72.9138 77.154L72.4798 77.924L70.6318 76.846L70.7858 76.748L70.7998 78.834H69.9598L69.9738 76.748L70.1278 76.846L68.2798 77.924L67.8458 77.154L69.7638 76.09V76.356L67.8458 75.292L68.2798 74.508L70.1278 75.6L69.9738 75.698L69.9598 73.612H70.7998L70.7858 75.698L70.6318 75.6L72.4798 74.508L72.9138 75.292ZM80.0527 75.292L78.1487 76.356V76.09L80.0527 77.154L79.6187 77.924L77.7707 76.846L77.9247 76.748L77.9387 78.834H77.0987L77.1127 76.748L77.2667 76.846L75.4187 77.924L74.9847 77.154L76.9027 76.09V76.356L74.9847 75.292L75.4187 74.508L77.2667 75.6L77.1127 75.698L77.0987 73.612H77.9387L77.9247 75.698L77.7707 75.6L79.6187 74.508L80.0527 75.292ZM91.9379 75.292L90.0339 76.356V76.09L91.9379 77.154L91.5039 77.924L89.6559 76.846L89.8099 76.748L89.8239 78.834H88.9839L88.9979 76.748L89.1519 76.846L87.3039 77.924L86.8699 77.154L88.7879 76.09V76.356L86.8699 75.292L87.3039 74.508L89.1519 75.6L88.9979 75.698L88.9839 73.612H89.8239L89.8099 75.698L89.6559 75.6L91.5039 74.508L91.9379 75.292ZM99.0768 75.292L97.1728 76.356V76.09L99.0768 77.154L98.6428 77.924L96.7948 76.846L96.9488 76.748L96.9628 78.834H96.1228L96.1368 76.748L96.2908 76.846L94.4428 77.924L94.0088 77.154L95.9268 76.09V76.356L94.0088 75.292L94.4428 74.508L96.2908 75.6L96.1368 75.698L96.1228 73.612H96.9628L96.9488 75.698L96.7948 75.6L98.6428 74.508L99.0768 75.292ZM106.216 75.292L104.312 76.356V76.09L106.216 77.154L105.782 77.924L103.934 76.846L104.088 76.748L104.102 78.834H103.262L103.276 76.748L103.43 76.846L101.582 77.924L101.148 77.154L103.066 76.09V76.356L101.148 75.292L101.582 74.508L103.43 75.6L103.276 75.698L103.262 73.612H104.102L104.088 75.698L103.934 75.6L105.782 74.508L106.216 75.292ZM113.355 75.292L111.451 76.356V76.09L113.355 77.154L112.921 77.924L111.073 76.846L111.227 76.748L111.241 78.834H110.401L110.415 76.748L110.569 76.846L108.721 77.924L108.287 77.154L110.205 76.09V76.356L108.287 75.292L108.721 74.508L110.569 75.6L110.415 75.698L110.401 73.612H111.241L111.227 75.698L111.073 75.6L112.921 74.508L113.355 75.292ZM123.756 74.088C124.643 74.088 125.389 74.2793 125.996 74.662C126.612 75.0447 127.079 75.6 127.396 76.328C127.713 77.0467 127.872 77.9287 127.872 78.974C127.872 80.0847 127.676 81.0227 127.284 81.788C126.892 82.5533 126.351 83.132 125.66 83.524C124.969 83.916 124.162 84.112 123.238 84.112C122.781 84.112 122.337 84.0653 121.908 83.972C121.488 83.8787 121.119 83.734 120.802 83.538L121.334 82.446C121.595 82.614 121.885 82.7353 122.202 82.81C122.529 82.8753 122.869 82.908 123.224 82.908C124.213 82.908 125.002 82.6 125.59 81.984C126.178 81.3587 126.472 80.4347 126.472 79.212C126.472 79.016 126.463 78.7827 126.444 78.512C126.425 78.2413 126.383 77.9753 126.318 77.714L126.78 78.19C126.649 78.6193 126.43 78.9833 126.122 79.282C125.823 79.5713 125.459 79.7907 125.03 79.94C124.61 80.08 124.148 80.15 123.644 80.15C123 80.15 122.426 80.0287 121.922 79.786C121.418 79.5433 121.021 79.2027 120.732 78.764C120.443 78.316 120.298 77.7887 120.298 77.182C120.298 76.5473 120.447 76.0013 120.746 75.544C121.054 75.0773 121.469 74.718 121.992 74.466C122.524 74.214 123.112 74.088 123.756 74.088ZM123.812 75.222C123.392 75.222 123.019 75.3013 122.692 75.46C122.365 75.6187 122.109 75.838 121.922 76.118C121.745 76.398 121.656 76.734 121.656 77.126C121.656 77.7047 121.857 78.1667 122.258 78.512C122.659 78.848 123.201 79.016 123.882 79.016C124.33 79.016 124.722 78.932 125.058 78.764C125.403 78.596 125.669 78.3673 125.856 78.078C126.052 77.7887 126.15 77.4667 126.15 77.112C126.15 76.7667 126.061 76.454 125.884 76.174C125.707 75.894 125.445 75.6653 125.1 75.488C124.755 75.3107 124.325 75.222 123.812 75.222ZM134.3 84.112C133.507 84.112 132.821 83.9953 132.242 83.762C131.664 83.5287 131.216 83.1973 130.898 82.768C130.581 82.3293 130.422 81.816 130.422 81.228C130.422 80.6493 130.572 80.1593 130.87 79.758C131.178 79.3473 131.622 79.0393 132.2 78.834C132.779 78.6193 133.479 78.512 134.3 78.512C135.122 78.512 135.822 78.6193 136.4 78.834C136.988 79.0393 137.436 79.3473 137.744 79.758C138.052 80.1687 138.206 80.6587 138.206 81.228C138.206 81.816 138.048 82.3293 137.73 82.768C137.413 83.1973 136.96 83.5287 136.372 83.762C135.784 83.9953 135.094 84.112 134.3 84.112ZM134.3 82.978C135.084 82.978 135.696 82.8193 136.134 82.502C136.582 82.1753 136.806 81.7367 136.806 81.186C136.806 80.6447 136.582 80.22 136.134 79.912C135.696 79.5947 135.084 79.436 134.3 79.436C133.526 79.436 132.919 79.5947 132.48 79.912C132.042 80.22 131.822 80.6447 131.822 81.186C131.822 81.7367 132.042 82.1753 132.48 82.502C132.919 82.8193 133.526 82.978 134.3 82.978ZM134.3 79.268C133.554 79.268 132.919 79.17 132.396 78.974C131.874 78.7687 131.472 78.4793 131.192 78.106C130.912 77.7233 130.772 77.2707 130.772 76.748C130.772 76.1973 130.917 75.726 131.206 75.334C131.505 74.9327 131.92 74.6247 132.452 74.41C132.984 74.1953 133.6 74.088 134.3 74.088C135.01 74.088 135.63 74.1953 136.162 74.41C136.694 74.6247 137.11 74.9327 137.408 75.334C137.707 75.726 137.856 76.1973 137.856 76.748C137.856 77.2707 137.716 77.7233 137.436 78.106C137.156 78.4793 136.75 78.7687 136.218 78.974C135.686 79.17 135.047 79.268 134.3 79.268ZM134.3 78.372C134.982 78.372 135.514 78.232 135.896 77.952C136.288 77.672 136.484 77.2893 136.484 76.804C136.484 76.3093 136.284 75.922 135.882 75.642C135.481 75.362 134.954 75.222 134.3 75.222C133.647 75.222 133.124 75.362 132.732 75.642C132.35 75.922 132.158 76.3093 132.158 76.804C132.158 77.2893 132.345 77.672 132.718 77.952C133.101 78.232 133.628 78.372 134.3 78.372ZM143.912 84.112C143.222 84.112 142.55 84.0047 141.896 83.79C141.252 83.5753 140.725 83.286 140.314 82.922L140.958 81.816C141.285 82.124 141.71 82.376 142.232 82.572C142.755 82.768 143.31 82.866 143.898 82.866C144.645 82.866 145.219 82.7073 145.62 82.39C146.022 82.0727 146.222 81.648 146.222 81.116C146.222 80.752 146.134 80.4347 145.956 80.164C145.779 79.8933 145.471 79.688 145.032 79.548C144.603 79.3987 144.01 79.324 143.254 79.324H141.028L141.546 74.2H147.076V75.418H142.064L142.792 74.732L142.386 78.778L141.658 78.106H143.548C144.528 78.106 145.317 78.232 145.914 78.484C146.512 78.736 146.946 79.086 147.216 79.534C147.487 79.9727 147.622 80.4813 147.622 81.06C147.622 81.62 147.487 82.1333 147.216 82.6C146.946 83.0573 146.535 83.426 145.984 83.706C145.443 83.9767 144.752 84.112 143.912 84.112ZM151.564 84L155.722 74.788L156.086 75.418H150.262L150.962 74.732V77.168H149.618V74.2H157.01V75.152L153.048 84H151.564Z" fill="white"/>
<defs>
<linearGradient id="paint0_linear_78_242" x1="7.67291e-08" y1="96.5" x2="297" y2="96.5" gradientUnits="userSpaceOnUse">
<stop stop-color="#90D185"/>
<stop offset="1" stop-color="#81EE6F" stop-opacity="0.56"/>
</linearGradient>
</defs>
</svg>
