<svg width="199" height="173" viewBox="0 0 199 173" fill="none" xmlns="http://www.w3.org/2000/svg">
<path d="M181.658 98.7159C179.68 141.501 141.617 153.681 94.208 154.594C21.9147 155.991 13.4991 133.023 13.4991 90.1928C13.4991 47.363 29.2604 3.14096 71.0518 6.39976C90.9044 7.94858 113.438 40.8543 130.31 51.7722C153.614 66.8531 183.149 66.5711 181.658 98.7114V98.7159Z" fill="#D4E7FF"/>
<path opacity="0.42" d="M12.389 116.635C12.389 116.635 27.4475 110.063 34.3679 88.6439C41.2929 67.22 53.8401 49.1803 77.6231 47.9717C101.402 46.7586 127.123 48.2492 135.623 35.4826C144.119 22.716 125.959 22.425 125.704 44.8248C125.449 67.2245 164.585 108.304 166.631 140.203C168.677 172.101 142.253 165.772 109.423 152.947C76.5935 140.127 42.3224 165.499 20.9612 156.009C-0.400002 146.519 0.526606 126.219 12.389 116.639V116.635Z" stroke="#4570B4" stroke-miterlimit="10"/>
<path opacity="0.42" d="M15.5851 91.8089C20.354 91.8089 24.22 87.9429 24.22 83.174C24.22 78.405 20.354 74.5391 15.5851 74.5391C10.8162 74.5391 6.9502 78.405 6.9502 83.174C6.9502 87.9429 10.8162 91.8089 15.5851 91.8089Z" fill="#4570B4"/>
<path opacity="0.42" d="M23.3787 90.9667C27.6826 86.6628 27.6826 79.6848 23.3787 75.3809C19.0748 71.077 12.0968 71.077 7.79289 75.3809C3.489 79.6848 3.48899 86.6628 7.79289 90.9667C12.0968 95.2706 19.0748 95.2706 23.3787 90.9667Z" stroke="#4570B4" stroke-miterlimit="10"/>
<path opacity="0.42" d="M179.59 98.7159C185.153 98.7159 189.662 94.2066 189.662 88.6441C189.662 83.0816 185.153 78.5723 179.59 78.5723C174.028 78.5723 169.518 83.0816 169.518 88.6441C169.518 94.2066 174.028 98.7159 179.59 98.7159Z" fill="#4570B4"/>
<path opacity="0.42" d="M109.249 61.4771L106.531 65.7967H112.319L109.249 61.4771Z" stroke="#4570B4" stroke-miterlimit="10"/>
<path opacity="0.42" d="M70.9086 21.2837L67.2738 27.0493H75.009L70.9086 21.2837Z" fill="#4570B4"/>
<path opacity="0.42" d="M98.1294 32.9311C103.929 32.9311 108.631 28.2294 108.631 22.4295C108.631 16.6297 103.929 11.928 98.1294 11.928C92.3295 11.928 87.6278 16.6297 87.6278 22.4295C87.6278 28.2294 92.3295 32.9311 98.1294 32.9311Z" fill="#4570B4"/>
<path d="M97.919 21.1314L97.3281 20.0033C96.9476 19.2781 97.2296 18.3829 97.9548 18.0024C98.4472 17.7427 98.6397 17.134 98.38 16.6371L97.4982 14.945C97.2386 14.4526 96.6298 14.2601 96.1329 14.5198L95.363 14.9226C94.6378 15.3031 94.0469 15.894 93.6709 16.6192L93.4471 17.0534C93.0576 17.8009 93.0621 18.6917 93.4516 19.4393L95.1033 22.5996L96.2045 24.708L97.8563 27.8683C98.2457 28.6158 98.9754 29.1261 99.8125 29.2336L100.296 29.2962C101.106 29.4037 101.93 29.256 102.655 28.8755L103.425 28.4726C103.917 28.213 104.11 27.6042 103.85 27.1073L102.968 25.4152C102.709 24.9228 102.1 24.7304 101.603 24.99C100.878 25.3705 99.9826 25.0885 99.6021 24.3633L99.0112 23.2352L97.91 21.1269L97.919 21.1314Z" fill="white"/>
<path opacity="0.42" d="M174.944 140.888C174.944 142.087 173.972 143.063 172.768 143.063C171.564 143.063 170.593 142.092 170.593 140.888C170.593 139.684 171.564 138.712 172.768 138.712C173.972 138.712 174.944 139.684 174.944 140.888Z" stroke="#4570B4" stroke-miterlimit="10"/>
<path opacity="0.42" d="M44.9635 25.8899C47.1836 25.8899 48.9833 24.0902 48.9833 21.8701C48.9833 19.6501 47.1836 17.8503 44.9635 17.8503C42.7434 17.8503 40.9437 19.6501 40.9437 21.8701C40.9437 24.0902 42.7434 25.8899 44.9635 25.8899Z" fill="white"/>
<path opacity="0.42" d="M154.693 81.7415C156.913 81.7415 158.712 79.9417 158.712 77.7217C158.712 75.5016 156.913 73.7019 154.693 73.7019C152.473 73.7019 150.673 75.5016 150.673 77.7217C150.673 79.9417 152.473 81.7415 154.693 81.7415Z" stroke="#4570B4" stroke-miterlimit="10"/>
<path opacity="0.42" d="M28.1413 104.638C30.3045 104.638 32.0581 102.884 32.0581 100.721C32.0581 98.5581 30.3045 96.8044 28.1413 96.8044C25.9781 96.8044 24.2245 98.5581 24.2245 100.721C24.2245 102.884 25.9781 104.638 28.1413 104.638Z" fill="#4570B4"/>
<path opacity="0.42" d="M179.59 95.5914C183.427 95.5914 186.537 92.481 186.537 88.6441C186.537 84.8072 183.427 81.6968 179.59 81.6968C175.753 81.6968 172.643 84.8072 172.643 88.6441C172.643 92.481 175.753 95.5914 179.59 95.5914Z" stroke="white" stroke-miterlimit="10"/>
<path opacity="0.42" d="M173.686 22.8325H125.538C123.479 22.8325 121.814 24.5022 121.814 26.5569V55.6398C121.814 57.6989 123.484 59.3641 125.538 59.3641H156.246V66.6964C156.246 67.923 157.678 68.5899 158.619 67.8021L168.641 59.3641H173.686C175.745 59.3641 177.41 57.6945 177.41 55.6398V26.5613C177.41 24.5022 175.741 22.837 173.686 22.837V22.8325Z" fill="#4570B4"/>
<path d="M185.88 26.4628C185.88 30.8094 184.631 34.8605 182.477 38.2625C182.137 38.8086 181.77 39.3413 181.381 39.8516C177.446 45.0174 171.291 48.3433 164.375 48.3433C160.825 48.3433 157.477 47.4704 154.527 45.9171C147.602 42.2823 142.871 34.9321 142.871 26.4628C142.871 25.4736 142.933 24.4977 143.063 23.5398C144.464 12.8368 153.475 4.57788 164.375 4.57788C176.251 4.57788 185.88 14.3766 185.88 26.4628Z" fill="#68A8DE"/>
<path d="M181.381 39.8472C177.446 45.0129 171.291 48.3388 164.375 48.3388C160.825 48.3388 157.477 47.4659 154.527 45.9126C154.93 44.9055 156.165 42.2331 158.354 40.738C161.085 38.8668 169.384 37.7433 175.141 38.2357C178.538 38.5222 180.414 39.2787 181.381 39.8472Z" fill="#C6606C"/>
<path d="M154.693 15.3614L154.917 26.0465C154.917 26.0465 155.257 36.9643 164.138 36.7718C173.023 36.5793 174.899 23.0921 174.899 23.0921L173.502 14.9093C173.502 14.9093 163.117 7.97984 154.688 15.3614H154.693Z" fill="white"/>
<path d="M164.201 34.2025C164.201 34.2025 164.859 38.3342 163.865 39.686C162.871 41.0379 165.843 45.7291 165.843 45.7291L172.724 39.4175C172.724 39.4175 172.267 34.7889 172.392 30.7378L164.205 34.198L164.201 34.2025Z" fill="white"/>
<path d="M154.742 17.8144C154.742 17.8144 157.298 18.6291 160.033 18.3874C162.768 18.1457 163.726 17.0445 163.726 17.0445C163.726 17.0445 164.639 17.4295 166.125 17.4295C167.612 17.4295 168.717 16.7088 168.717 16.7088C168.717 16.7088 167.71 18.4367 168.14 20.6435C168.569 22.8504 170.011 23.4233 170.011 23.4233C170.011 23.4233 170.924 21.2165 172.504 21.2165C174.084 21.2165 174.662 22.8951 174.254 25.102C173.847 27.3088 171.305 27.837 171.305 27.837L172.388 30.7377C172.388 30.7377 176.484 26.3464 176.963 21.503C177.442 16.6595 174.998 15.2182 174.998 15.2182C174.998 15.2182 175.203 11.6192 170.4 10.3747C165.597 9.13029 162.432 9.2243 158.833 11.2879C158.833 11.2879 155.812 8.98705 153.269 10.3747C150.727 11.7624 151.447 14.7392 152.692 15.5046C152.692 15.5046 150.248 16.1269 150.771 19.1484C151.3 22.1699 154.823 21.9327 154.823 21.9327L154.738 17.8055L154.742 17.8144Z" fill="#00496A"/>
<path d="M164.138 36.7719C164.138 36.7719 170.597 35.0619 171.233 30.7422C171.233 30.7422 172.835 37.0046 164.138 39.1309C164.138 39.1309 164.393 37.2687 164.138 36.7719Z" fill="#D9D9D9"/>
<path opacity="0.42" d="M197.379 13.165C198.274 7.68502 194.558 2.51677 189.078 1.62136C183.598 0.725945 178.429 4.44245 177.534 9.9224C176.639 15.4024 180.355 20.5706 185.835 21.466C191.315 22.3614 196.483 18.6449 197.379 13.165Z" fill="#4570B4"/>
<path d="M186.332 14.2557L186.296 13.7902C186.188 12.8188 186.511 11.7579 187.41 10.6791C188.221 9.72562 188.668 9.02283 188.668 8.21261C188.668 7.29495 188.091 6.68169 186.958 6.66379C186.309 6.66379 185.593 6.87865 185.141 7.22333L184.711 6.09081C185.307 5.66108 186.332 5.37012 187.285 5.37012C189.353 5.37012 190.289 6.64588 190.289 8.01565C190.289 9.2377 189.604 10.1195 188.74 11.1446C187.948 12.0802 187.661 12.8725 187.715 13.7902L187.733 14.2557H186.332ZM185.938 16.7759C185.938 16.1089 186.385 15.6434 187.017 15.6434C187.648 15.6434 188.077 16.1089 188.077 16.7759C188.077 17.4071 187.666 17.8905 186.999 17.8905C186.367 17.8905 185.938 17.4026 185.938 16.7759Z" fill="white"/>
<path d="M170.369 129.768C170.338 129.871 170.297 129.956 170.248 130.023C169.398 131.254 168.502 132.45 167.558 133.605C136.832 171.363 57.8197 171.363 57.8197 171.363V126.299H170.253C170.253 126.299 170.687 128.752 170.373 129.768H170.369Z" fill="#A6D6F7"/>
<path d="M170.369 129.768C170.338 129.871 170.297 129.956 170.248 130.023C169.398 131.254 168.502 132.45 167.558 133.605L57.8197 146.094V129.768H170.373H170.369Z" fill="#8CC6E5"/>
<path d="M109.423 94.423L103.984 100.189C103.984 100.189 102.87 99.0427 101.536 97.2879C100.9 96.4464 100.215 95.466 99.5841 94.4051C98.756 93.0175 98.0129 91.4955 97.5877 89.9691C96.1552 84.8436 96.7416 74.0332 96.7416 74.0332C96.7416 74.0332 99.0604 74.2839 99.8527 75.1657C104.316 80.1345 109.423 94.423 109.423 94.423Z" fill="#FF6A76"/>
<path d="M88.9797 113.255H50.0353L46.4766 83.3083C46.0693 79.8794 48.4596 76.7593 51.8214 76.3207L54.1625 76.0163L83.9214 72.1487L88.9752 113.255H88.9797Z" fill="#4570B4"/>
<path d="M79.4718 73.1423C79.4718 73.1423 66.7992 77.2158 66.1098 78.2677C65.4249 79.3152 71.374 97.8876 71.374 97.8876L70.2281 113.259H96.0343L97.337 98.5904C97.337 98.5904 100.099 95.5599 100.269 90.5509C100.439 85.5418 96.7416 74.0331 96.7416 74.0331L87.7396 72.8513L79.4718 73.1423Z" fill="#FF6A76"/>
<path d="M83.0977 44.2922C83.0977 44.2922 74.2658 40.4917 67.9945 49.3549C61.7231 58.2182 68.2183 72.1486 68.2183 72.1486C68.2183 72.1486 84.2213 70.0581 88.6484 69.6329C93.0755 69.2076 93.9753 69.2076 93.9753 69.2076C93.9753 69.2076 96.2582 55.21 91.3879 50.0622C86.5177 44.9144 83.1022 44.2877 83.1022 44.2877L83.0977 44.2922Z" fill="#00496A"/>
<path d="M86.3834 78.8586L78.9258 73.7466C78.9258 73.7466 79.539 71.7904 79.3868 69.8342C79.351 69.4 79.2794 68.9658 79.1541 68.554C79.0914 68.3481 79.0153 68.1466 78.9258 67.9497L86.3834 67.5781C86.3834 67.5781 86.4326 68.1824 86.5714 68.9613C86.6833 69.5701 86.8489 70.2863 87.0996 70.9085C87.2787 71.3696 87.5025 71.777 87.78 72.059C88.9215 73.2183 86.3834 78.8586 86.3834 78.8586Z" fill="white"/>
<path d="M87.0995 70.9085C86.1415 70.9399 82.0278 71.0025 79.3867 69.8342C79.3509 69.4 79.2793 68.9658 79.1539 68.554C79.1539 68.554 84.1809 69.1672 86.5713 68.9613C86.6832 69.5701 86.8488 70.2863 87.0995 70.9085Z" fill="#D9D9D9"/>
<path d="M90.5823 47.6539L91.8267 57.9316C91.8267 57.9316 93.4561 68.5227 84.9107 69.5478C76.3653 70.5774 73.4915 60.698 73.4915 60.698L72.4799 49.7891C72.4799 49.7891 81.4908 41.7272 90.5823 47.6539Z" fill="white"/>
<path d="M86.6832 48.4507C86.6832 48.4507 85.5641 51.1992 81.889 53.1509C78.6302 54.8787 75.5729 55.3577 75.5729 55.3577C75.5729 55.3577 75.0805 58.2539 73.4332 60.0668C73.4332 60.0668 70.5773 54.6504 71.7456 49.9861C72.9094 45.3217 78.9302 43.0701 84.2167 43.5446C89.4989 44.0191 91.4013 45.9573 92.1041 49.0371C92.8069 52.1168 91.6341 56.2798 91.6341 56.2798C91.6341 56.2798 90.515 49.4086 86.6922 48.4507H86.6832Z" fill="#00496A"/>
<path d="M72.4753 57.8018C72.4753 57.8018 71.4591 49.9861 77.4843 45.8365C81.4101 43.1328 86.352 43.8535 86.352 43.8535C86.352 43.8535 83.2364 41.5079 77.0993 44.2161C70.9623 46.9243 70.6489 53.0479 71.2711 57.8018H72.4753Z" fill="#68A8DE"/>
<path d="M58.9164 113.255H50.0308L46.4721 83.3081C46.0647 79.8792 48.4551 76.7592 51.8169 76.3205L54.158 76.0161L58.9074 113.255H58.9164Z" fill="#375C93"/>
<path d="M80.8148 67.6677C76.7369 67.6677 73.7108 64.8297 73.5765 64.6998L74.1226 64.1045C74.154 64.1358 77.462 67.2245 81.5982 66.8127L81.6743 67.6229C81.3833 67.6543 81.0924 67.6677 80.8103 67.6677H80.8148Z" fill="#375C93"/>
<path d="M181.842 130.023H59.6506C56.3829 130.023 53.2673 128.676 51.0963 126.317L44.3862 119.038C41.781 116.214 43.8535 111.742 47.7659 111.742H167.052C171.175 111.742 175.136 113.291 178.1 116.062L184.989 122.494C187.921 125.229 185.915 130.028 181.842 130.028V130.023Z" fill="#68A8DE"/>
<path d="M126.12 75.7521C125.901 75.873 125.556 76.0744 125.18 76.2982L125.108 76.1818C126.228 75.4701 127.879 74.3555 127.767 74.0869C127.602 73.6796 126.76 73.8899 126.138 74.2302C125.78 74.4271 125.126 74.8166 124.495 75.197L124.45 75.1254C125.561 74.4226 127.409 73.2006 127.288 72.9141C127.123 72.5068 126.281 72.7171 125.659 73.0573C125.265 73.2722 124.518 73.7198 123.833 74.1317L123.779 74.0466C124.88 73.3349 126.313 72.3501 126.21 72.0994C126.04 71.692 125.202 71.9024 124.58 72.2426C123.739 72.6992 121.299 74.2078 121.299 74.2078L119.522 74.8568C119.907 74.2346 120.986 71.9293 120.48 71.9293C119.974 71.9293 118.586 73.5363 118.009 75.1926C117.579 76.4325 117.525 77.5382 117.525 78.0127L101.943 97.8116C101.943 97.8116 102.31 98.3891 102.87 99.1635C104.486 101.397 108.25 101.89 110.426 100.193C112.14 98.8502 113.497 97.0775 114.826 95.2646C117.329 91.8536 121.057 82.7979 121.93 80.6314L125.458 77.3278C126.424 76.7011 127.655 75.8551 127.566 75.6313C127.418 75.2731 126.675 75.4611 126.125 75.7566L126.12 75.7521Z" fill="white"/>
<path d="M85.13 116.559C85.13 116.559 86.9518 117.902 87.6725 119.723C88.3932 121.545 83.7871 122.718 76.1011 120.108C70.5102 118.21 79.9508 112.382 85.13 116.559Z" fill="#00496A"/>
<path d="M82.2383 68.16H81.2087C80.8417 68.16 80.5417 67.8556 80.5417 67.4841V66.8529C80.5417 66.4769 80.8417 66.177 81.2087 66.177H82.2383C82.6053 66.177 82.9053 66.4814 82.9053 66.8529V67.4841C82.9053 67.8601 82.6053 68.16 82.2383 68.16Z" fill="#00496A"/>
<path d="M76.88 60.1207C77.4485 62.9676 75.9668 65.6803 73.5675 66.1772C71.1682 66.6741 68.7644 64.7671 68.1914 61.9202C67.6229 59.0732 69.1046 56.3605 71.5039 55.8636C73.9032 55.3668 76.307 57.2737 76.88 60.1207Z" fill="#4570B4"/>
<path d="M74.4628 60.622C74.7986 62.3007 73.9257 63.9032 72.5111 64.1942C71.0966 64.4852 69.6776 63.3616 69.3419 61.683C69.0061 60.0043 69.879 58.4018 71.2936 58.1108C72.7081 57.8198 74.1271 58.9434 74.4628 60.622Z" fill="#68A8DE"/>
<path d="M68.1958 77.1443C68.1958 77.1443 66.0203 77.4711 65.134 78.8766C61.347 84.9018 53.9789 103.331 53.9789 103.331L61.0873 106.473C61.0873 106.473 70.434 95.6451 71.2935 90.4928C72.1529 85.3405 68.1958 77.1443 68.1958 77.1443Z" fill="#FF6A76"/>
<path d="M60.416 104.902L75.0045 114.392L72.9453 118.963C72.9453 118.963 59.8162 114.244 55.7785 111.192C51.7453 108.134 53.9745 103.331 53.9745 103.331C53.9745 103.331 56.2037 103.067 60.4115 104.902H60.416Z" fill="white"/>
<path d="M74.5792 114.244C74.5792 114.244 79.4987 114.011 81.2714 114.011C83.044 114.011 86.1327 116.921 85.7925 117.852C85.4478 118.783 81.9025 115.932 81.9025 115.932L81.7011 116.312C81.7011 116.312 84.848 118.233 85.0181 118.962C85.1882 119.692 84.4765 119.576 83.4469 119.137C82.4173 118.698 80.873 117.709 80.873 117.709L80.7029 117.915C80.7029 117.915 83.6797 119.75 83.6797 120.417C83.6797 121.084 81.5355 120.328 79.9598 119.28L79.7584 119.602C79.7584 119.602 81.7056 120.592 81.8488 121.232C81.9921 121.872 80.9312 121.612 79.7584 121.057C78.5856 120.502 77.4978 120.444 75.9803 120.211C74.4628 119.978 72.6633 118.855 72.6633 118.855L74.5747 114.24L74.5792 114.244Z" fill="white"/>
<path d="M165.033 87.6279L158.037 122.718H106.2L113.156 87.8293C113.304 87.0907 113.94 86.5625 114.678 86.5625H164.178C164.729 86.5625 165.145 87.0773 165.033 87.6279Z" fill="#4570B4"/>
<path d="M106.2 122.718L91.9609 118.085C91.4596 117.919 91.1194 117.454 91.1194 116.926C91.1194 116.25 91.6655 115.704 92.3414 115.704H107.606L106.205 122.718H106.2Z" fill="#00496A"/>
<path d="M68.827 78.5676C68.827 78.5676 72.0142 87.583 70.0849 93.7738C70.0849 93.7738 76.6025 86.5311 68.827 78.5676Z" fill="#C6606C"/>
<path d="M101.536 97.2879C100.9 96.4463 100.215 95.466 99.5843 94.4051C100.9 89.2349 97.8385 77.7217 97.8385 77.7217C104.549 86.276 102.677 94.2216 101.536 97.2879Z" fill="#C6606C"/>
<path d="M116.277 88.644L158.037 122.718H110.422L116.277 88.644Z" fill="#375C93"/>
<path d="M141.38 110.34C143.506 109.465 144.52 107.032 143.645 104.906C142.77 102.78 140.337 101.765 138.211 102.64C136.085 103.516 135.071 105.948 135.946 108.075C136.821 110.201 139.254 111.215 141.38 110.34Z" fill="#A6D6F7"/>
<path d="M79.3375 71.6875L86.3833 78.8542C86.3833 78.8542 85.1613 80.582 83.129 80.5373C81.0968 80.488 79.9508 77.9052 79.3778 76.5578C78.8004 75.2104 77.6276 73.7422 77.6276 73.7422L79.342 71.6875H79.3375Z" fill="#FFA9B3"/>
<path d="M86.3833 78.8586C86.3833 78.8586 88.2007 79.9642 89.9733 79.1943C91.746 78.4289 91.267 77.256 90.6448 76.0161C90.0226 74.7806 89.3511 72.5738 89.3511 72.5738L87.3278 71.4099C87.3278 71.4099 87.6859 76.1235 86.3833 78.8586Z" fill="#FFA9B3"/>
<path d="M97.2475 92.7041L79.4943 94.423C79.4943 94.423 83.4738 97.279 89.6019 96.415C95.73 95.5511 97.2475 92.7041 97.2475 92.7041Z" fill="#C6606C"/>
<path opacity="0.42" d="M57.5645 34.9768H25.46C23.4143 34.9768 21.7535 36.6375 21.7535 38.6832V47.1928C21.7535 49.2385 23.4143 50.8992 25.46 50.8992H52.5062L61.2709 55.9665V38.6832C61.2709 36.6375 59.6102 34.9768 57.5645 34.9768Z" fill="#4570B4"/>
<path d="M24.2201 38.8264H57.663" stroke="white" stroke-linecap="round" stroke-linejoin="round"/>
<path d="M24.2201 42.9089H57.663" stroke="white" stroke-linecap="round" stroke-linejoin="round"/>
<path d="M24.2201 46.9915H57.663" stroke="white" stroke-linecap="round" stroke-linejoin="round"/>
<path d="M59.4043 133.927C60.2459 126.98 54.7623 128.022 51.0111 131.689C47.2599 135.355 43.5848 133.309 47.7434 126.46C51.9019 119.611 54.9458 117.508 54.3729 114.061C53.7999 110.614 50.7918 112.122 45.5902 114.987C40.3887 117.852 45.3037 110.368 44.9098 103.268C44.5159 96.1687 37.4656 99.714 36.8748 105.694C36.2839 111.67 38.9518 118.362 35.5274 117.037C32.1074 115.708 30.0349 107.771 26.9238 111.518C23.8127 115.265 35.7064 127.973 35.308 131.81C34.9096 135.646 26.3508 123.953 23.8933 127.803C21.4358 131.653 32.0716 157.356 41.2795 156.635C52.9762 155.722 58.5627 140.87 59.4043 133.927Z" fill="#C6606C"/>
<path d="M40.4469 106.531C40.4469 106.531 38.9786 114.571 39.565 124.764C40.1515 134.956 41.4854 160.61 41.4854 160.61" stroke="#AA4451" stroke-miterlimit="10"/>
<path d="M30.4512 116.635C30.4512 116.635 37.2105 124.656 39.6635 126.424C39.6635 126.424 48.3924 118.013 50.0577 116.635" stroke="#AA4451" stroke-miterlimit="10"/>
<path d="M26.4583 132.691C26.4583 132.691 36.6196 142.915 40.5946 143.591L55.5457 133.569" stroke="#AA4451" stroke-miterlimit="10"/>
<path d="M37.2866 152.692C37.2866 152.692 41.6913 142.951 39.3188 137.718C36.9464 132.485 33.5443 135.556 32.4745 139.728C31.4046 143.9 27.9534 144.03 27.9534 137.454C27.9534 130.878 29.1933 128.099 27.3177 125.927C25.4421 123.756 23.9783 126.093 21.5477 130.323C19.117 134.553 19.3766 127.203 16.0731 122.387C12.7695 117.57 9.33615 123.067 11.4669 127.517C13.6021 131.962 18.3292 135.52 15.3613 136.049C12.3935 136.577 7.55456 131.886 6.96815 135.843C6.38175 139.8 20.151 143.645 21.5029 146.505C22.8593 149.37 11.8698 144.813 11.7847 148.564C11.6997 152.316 24.4886 158.896 30.2811 157.916C36.069 156.935 37.2866 152.687 37.2866 152.687V152.692Z" fill="#FF6A76"/>
<path d="M14.0812 125.31C14.0812 125.31 30.8452 152.244 34.3725 160.61" stroke="#AA4451" stroke-miterlimit="10"/>
<path d="M11.3326 138.094L23.1234 140.198L25.5496 130.059" stroke="#AA4451" stroke-miterlimit="10"/>
<path d="M17.5637 150.194L30.1602 152.374L35.3528 140.937" stroke="#AA4451" stroke-miterlimit="10"/>
<path d="M29.7976 160.61H51.1006L49.2698 171.363H32.0179L29.7976 160.61Z" fill="#375C93"/>
<path d="M51.3648 159.563H29.7305C28.9369 159.563 28.2936 160.206 28.2936 161V162.146C28.2936 162.939 28.9369 163.583 29.7305 163.583H51.3648C52.1583 163.583 52.8017 162.939 52.8017 162.146V161C52.8017 160.206 52.1583 159.563 51.3648 159.563Z" fill="#4570B4"/>
<path opacity="0.42" d="M128.372 172.54C136.54 172.54 143.161 165.918 143.161 157.75C143.161 149.582 136.54 142.96 128.372 142.96C120.203 142.96 113.582 149.582 113.582 157.75C113.582 165.918 120.203 172.54 128.372 172.54Z" fill="#4570B4"/>
<path d="M137.665 152.289H119.074C118.564 152.289 118.152 152.701 118.152 153.211V163.453C118.152 163.963 118.564 164.375 119.074 164.375H137.665C138.175 164.375 138.587 163.963 138.587 163.453V153.211C138.587 152.701 138.175 152.289 137.665 152.289ZM137.942 153.766L129.213 159.474C129.137 159.523 129.052 159.545 128.967 159.545C128.891 159.545 128.815 159.527 128.748 159.487L118.582 153.78C118.367 153.659 118.291 153.386 118.412 153.171C118.533 152.956 118.806 152.88 119.021 153.001L128.954 158.574L137.454 153.014C137.66 152.88 137.938 152.938 138.072 153.144C138.206 153.35 138.148 153.627 137.942 153.762V153.766Z" fill="white"/>
<path d="M139.791 156.157C142.819 156.157 145.274 153.701 145.274 150.673C145.274 147.645 142.819 145.189 139.791 145.189C136.762 145.189 134.307 147.645 134.307 150.673C134.307 153.701 136.762 156.157 139.791 156.157Z" fill="#FFA9B3"/>
</svg>
