<svg width="179" height="175" viewBox="0 0 179 175" fill="none" xmlns="http://www.w3.org/2000/svg">
<path d="M89.5 175C138.929 175 179 152.353 179 124.416C179 96.4794 138.929 73.8323 89.5 73.8323C40.0705 73.8323 0 96.4794 0 124.416C0 152.353 40.0705 175 89.5 175Z" fill="#F5F5F5"/>
<path d="M22.5616 158.022L19.816 156.435C18.9506 155.933 18.9506 155.124 19.816 154.622L116.17 98.9286C117.036 98.4265 118.441 98.4265 119.306 98.9248L122.067 100.512C122.933 101.01 122.937 101.819 122.067 102.321L25.6939 158.026C24.8285 158.528 23.4232 158.528 22.5578 158.026L22.5616 158.022Z" fill="#E6E6E6"/>
<path d="M133.494 148.765C149.122 148.765 161.791 141.442 161.791 132.409C161.791 123.375 149.122 116.052 133.494 116.052C117.865 116.052 105.196 123.375 105.196 132.409C105.196 141.442 117.865 148.765 133.494 148.765Z" fill="#E0E0E0"/>
<path d="M27.3864 150.252C26.9882 144.414 27.4133 138.484 23.7793 130.434C20.7313 123.68 15.6921 118.36 9.96357 117.946C7.58946 117.773 5.87398 118.329 4.87839 120.019C3.12461 122.99 5.73613 126.176 8.53145 128.012C9.76062 128.821 19.8697 134.057 22.6497 145.668L23.8598 152.28L24.2618 152.054L27.3864 150.252Z" fill="#BA68C8"/>
<path opacity="0.25" d="M27.3864 150.252C26.9882 144.414 27.4133 138.484 23.7793 130.434C20.7313 123.68 15.6921 118.36 9.96357 117.946C7.58946 117.773 5.87398 118.329 4.87839 120.019C3.12461 122.99 5.73613 126.176 8.53145 128.012C9.76062 128.821 19.8697 134.057 22.6497 145.668L23.8598 152.28L24.2618 152.054L27.3864 150.252Z" fill="white"/>
<path d="M25.5446 148.259C25.4335 148.244 25.3416 148.152 25.3263 148.037C23.5113 133.907 18.1542 125.455 8.37825 122.135C8.24423 122.089 8.19062 121.925 8.24806 121.794C8.3055 121.664 8.45101 121.618 8.58886 121.664C18.4567 124.819 23.9976 133.658 25.8356 147.972C25.8547 148.113 25.7552 148.244 25.6135 148.259C25.5905 148.259 25.5637 148.259 25.5407 148.259H25.5446Z" fill="white"/>
<path d="M21.9604 153.422C21.5469 151.395 20.4594 149.053 16.3468 144.533C12.7933 140.631 7.24862 138.454 6.16495 136.031C4.86303 133.118 7.19884 130.446 11.656 131.025C17.0131 131.722 22.4812 139.699 24.4686 151.943L21.9604 153.43V153.422Z" fill="#BA68C8"/>
<path opacity="0.65" d="M21.9604 153.422C21.5469 151.395 20.4594 149.053 16.3468 144.533C12.7933 140.631 7.24862 138.454 6.16495 136.031C4.86303 133.118 7.19884 130.446 11.656 131.025C17.0131 131.722 22.4812 139.699 24.4686 151.943L21.9604 153.43V153.422Z" fill="white"/>
<path d="M9.83714 133.777C9.69163 133.746 9.56144 133.838 9.53081 133.976C9.50017 134.114 9.59207 134.252 9.72992 134.283C13.337 135.038 20.8691 141.815 23.3045 152.564C23.3083 152.583 23.3159 152.598 23.3274 152.614L23.7793 152.345C21.298 141.47 13.8119 134.609 9.83714 133.777Z" fill="white"/>
<path d="M154.302 123.906C154.616 119.337 154.279 114.699 157.124 108.401C159.509 103.115 163.45 98.9517 167.934 98.6297C169.791 98.4956 171.135 98.9287 171.912 100.251C173.283 102.578 171.242 105.066 169.056 106.507C168.095 107.14 160.183 111.237 158.012 120.322L157.066 125.497L156.752 125.321L154.306 123.91L154.302 123.906Z" fill="#BA68C8"/>
<path opacity="0.25" d="M154.302 123.906C154.616 119.337 154.279 114.699 157.124 108.401C159.509 103.115 163.45 98.9517 167.934 98.6297C169.791 98.4956 171.135 98.9287 171.912 100.251C173.283 102.578 171.242 105.066 169.056 106.507C168.095 107.14 160.183 111.237 158.012 120.322L157.066 125.497L156.752 125.321L154.306 123.91L154.302 123.906Z" fill="white"/>
<path d="M155.741 122.346C155.83 122.335 155.902 122.262 155.914 122.174C157.334 111.119 161.527 104.506 169.174 101.907C169.282 101.873 169.32 101.742 169.278 101.639C169.232 101.539 169.121 101.501 169.01 101.535C161.29 104.004 156.951 110.919 155.516 122.12C155.5 122.231 155.581 122.331 155.692 122.346C155.711 122.346 155.73 122.346 155.745 122.346H155.741Z" fill="white"/>
<path d="M158.548 126.386C158.87 124.799 159.724 122.967 162.94 119.429C165.72 116.374 170.059 114.672 170.905 112.774C171.924 110.494 170.097 108.404 166.609 108.857C162.416 109.401 158.139 115.646 156.584 125.221L158.545 126.383L158.548 126.386Z" fill="#BA68C8"/>
<path opacity="0.65" d="M158.548 126.386C158.87 124.799 159.724 122.967 162.94 119.429C165.72 116.374 170.059 114.672 170.905 112.774C171.924 110.494 170.097 108.404 166.609 108.857C162.416 109.401 158.139 115.646 156.584 125.221L158.545 126.383L158.548 126.386Z" fill="white"/>
<path d="M157.56 124.995C157.637 124.983 157.702 124.926 157.725 124.849C159.988 116.554 165.295 112 168.118 111.41C168.225 111.387 168.298 111.279 168.275 111.172C168.252 111.061 168.148 110.992 168.037 111.015C164.916 111.667 159.651 116.274 157.338 124.742C157.308 124.849 157.373 124.96 157.48 124.991C157.507 124.999 157.538 124.999 157.564 124.995H157.56Z" fill="white"/>
<path d="M77.5183 11.3308L78.7207 10.6025C78.7092 10.522 78.7015 10.4415 78.7015 10.3495V9.75531C78.7015 8.69733 79.4444 7.40935 80.3596 6.88036C80.731 6.66569 81.0718 6.61203 81.3475 6.68869C81.4968 5.18605 82.5422 3.48408 83.8059 2.75192C85.1767 1.95844 86.2872 2.60243 86.2872 4.18557V5.07489C86.2872 5.48505 86.2106 5.91821 86.0766 6.34753L87.7806 5.36238C88.2899 5.06722 88.6996 5.30872 88.6996 5.89521C88.6996 6.4817 88.286 7.19469 87.7806 7.48985L77.5145 13.4544C77.0052 13.7496 76.5955 13.5081 76.5955 12.9216C76.5955 12.3351 77.009 11.6221 77.5145 11.327L77.5183 11.3308Z" fill="#EBEBEB"/>
<path d="M70.1662 4.26604L68.9677 4.72604V2.08108C68.9677 -0.0157206 67.2982 -0.517879 65.4831 0.528604C63.6681 1.57892 62.1977 4.12805 62.1977 6.22485V6.60817C61.7879 6.44334 61.2557 6.50851 60.6736 6.842C59.3679 7.59716 58.311 9.4333 58.311 10.9398V11.1161L56.6377 12.0821C55.7761 12.5804 55.083 13.7879 55.083 14.7807C55.083 15.7735 55.7799 16.176 56.6377 15.6815L70.1662 7.86165C71.024 7.36333 71.7247 6.15585 71.7247 5.16303C71.7247 4.17021 71.0278 3.76772 70.1662 4.26221V4.26604Z" fill="#EBEBEB"/>
<path opacity="0.5" d="M23.8904 31.0378L40.9189 21.1978L32.4065 36.8528L23.8904 31.0378Z" fill="#BA68C8"/>
<path opacity="0.3" d="M23.8904 23.881L40.9189 14.041L32.4065 29.6961L23.8904 23.881Z" fill="#BA68C8"/>
<path opacity="0.1" d="M23.8904 16.7243L40.9189 6.88428L32.4065 22.5394L23.8904 16.7243Z" fill="#BA68C8"/>
<path d="M29.4159 152.476C29.3891 152.483 28.8989 152.855 27.8153 152.963C26.9767 153.047 26.1036 152.92 25.4756 152.552C24.4149 151.939 23.5687 150.398 23.5687 149.099L23.561 70.2712L27.3864 72.483V151.303C27.3864 152.227 27.8497 152.759 28.516 152.759C28.6118 152.759 28.9755 152.729 29.4159 152.483V152.476Z" fill="#E0E0E0"/>
<path d="M120.18 97.66C120.18 98.9595 119.276 100.543 118.146 101.19L29.416 152.476C28.2978 153.124 27.3865 152.598 27.3865 151.299V62.4437L32.9886 59.2085C34.1067 58.5606 89.3813 26.618 90.4994 25.9663L120.18 8.80859V97.6638V97.66Z" fill="#FAFAFA"/>
<path d="M119.31 10.3112V97.6599C119.31 98.6489 118.564 99.9484 117.714 100.435L28.9833 151.721C28.7421 151.859 28.5851 151.882 28.5162 151.882C28.2941 151.882 28.2596 151.514 28.2596 151.295V62.942L33.429 59.9559C33.9919 59.63 48.5123 51.239 62.5501 43.124C76.2357 35.2159 90.3846 27.0357 90.9399 26.7176L119.314 10.3112M120.183 8.80469L90.5033 25.9624C89.3852 26.6102 34.1106 58.5529 32.9925 59.2046L27.3904 62.4398V151.295C27.3904 152.215 27.8499 152.752 28.5162 152.752C28.788 152.752 29.0944 152.664 29.4199 152.476L118.15 101.19C119.28 100.543 120.183 98.9594 120.183 97.6599V8.80469Z" fill="#EBEBEB"/>
<path d="M109.603 52.6611V93.2018C109.6 93.2402 109.557 93.313 109.538 93.3322L42.1022 132.309V91.7682C42.106 91.7299 42.1519 91.657 42.1673 91.6379L109.603 52.6611ZM110.151 51.469C110.086 51.469 110.017 51.4882 109.94 51.5342L41.7652 90.9402C41.5048 91.0897 41.2942 91.4539 41.2942 91.7567V133.168C41.2942 133.382 41.4014 133.505 41.5546 133.505C41.6197 133.505 41.6886 133.486 41.7652 133.44L109.944 94.0375C110.205 93.888 110.415 93.5238 110.415 93.221V51.8102C110.415 51.5955 110.308 51.4728 110.155 51.4728L110.151 51.469Z" fill="#EBEBEB"/>
<path d="M25.4758 68.7111C24.4228 68.1016 23.5688 66.553 23.5688 65.2574V55.6742C23.5688 54.3747 24.4802 52.7954 25.6022 52.1476L114.329 0.858377C115.451 0.210554 117.22 0.176054 118.273 0.785544C119.326 1.39503 120.18 2.94368 120.176 4.23932V13.8225C120.18 15.122 119.268 16.7013 118.146 17.3491L29.416 68.6383C28.2903 69.2861 26.5288 69.3206 25.472 68.7111H25.4758Z" fill="#263238"/>
<path d="M120.161 3.90958C120.019 2.85543 119.165 2.46827 118.15 3.06243L29.416 54.3478C28.8608 54.6774 28.3553 55.2333 27.9762 55.8734L24.1624 53.6616C24.5376 53.0215 25.0354 52.4733 25.5983 52.1437L114.332 0.862129C115.451 0.214306 117.22 0.175973 118.269 0.785464C119.238 1.34895 120.034 2.68677 120.157 3.90958H120.161Z" fill="#455A64"/>
<path d="M120.18 4.23936V8.80478L90.5033 25.9625C89.3852 26.6103 34.1106 58.553 32.9925 59.2046L27.3904 62.4399V57.8745C27.3904 56.575 28.3017 54.9957 29.4199 54.3479L118.146 3.06254C119.264 2.41472 120.176 2.93988 120.176 4.23936H120.18Z" fill="#37474F"/>
<path d="M116.771 6.02178C117.43 5.64229 117.962 5.94895 117.962 6.71177C117.962 7.47459 117.43 8.39841 116.771 8.77791C116.113 9.1574 115.581 8.85074 115.581 8.08792C115.581 7.3251 116.113 6.40128 116.771 6.02178Z" fill="white"/>
<path d="M112.483 8.4981C113.141 8.11861 113.674 8.42527 113.674 9.18809C113.674 9.95091 113.141 10.8747 112.483 11.2542C111.824 11.6337 111.292 11.3271 111.292 10.5642C111.292 9.80141 111.824 8.8776 112.483 8.4981Z" fill="white"/>
<path d="M108.194 10.9705C108.853 10.591 109.385 10.8977 109.385 11.6605C109.385 12.4233 108.853 13.3471 108.194 13.7266C107.535 14.1061 107.003 13.7995 107.003 13.0366C107.003 12.2738 107.535 11.35 108.194 10.9705Z" fill="white"/>
<path d="M30.8366 60.4429C31.4033 60.1132 31.5948 59.6149 31.8666 58.6527L32.4908 56.4946C32.7167 55.6283 32.9541 55.0341 33.5247 54.7045L58.3571 40.3489C58.9276 40.0192 59.3757 39.9847 59.8083 40.7015L60.5627 42.093C60.8882 42.6527 61.049 42.9823 61.6157 42.6527L80.8958 31.5093L120.176 8.80103V18.8442L27.3865 72.4832V62.44L30.8366 60.439" fill="#E0E0E0"/>
<path d="M27.3864 62.4439V72.4794L23.561 70.2676V60.2397L27.3864 62.4439Z" fill="#E0E0E0"/>
<path opacity="0.15" d="M27.3864 62.4439V72.4794L23.561 70.2676V60.2397L27.3864 62.4439Z" fill="black"/>
<path opacity="0.3" d="M32.5444 64.4334L30.7561 65.4646L31.4377 64.1536C31.499 64.0386 31.5028 63.8967 31.453 63.8316C31.3994 63.7702 31.3114 63.8124 31.2501 63.9274L30.2813 65.7942C30.2813 65.7942 30.2813 65.798 30.2813 65.8019C30.2698 65.8249 30.2622 65.8479 30.2545 65.8709C30.2545 65.8786 30.2468 65.8862 30.2468 65.8939C30.2392 65.9245 30.2354 65.959 30.2354 65.9897C30.2354 66.0204 30.2392 66.0472 30.2468 66.0702C30.2468 66.074 30.2507 66.0779 30.2545 66.0855C30.2622 66.1009 30.2698 66.1162 30.2813 66.1239C30.2813 66.1239 30.2813 66.1239 30.2813 66.1277L31.2501 66.8752C31.2769 66.8944 31.3114 66.8944 31.3458 66.8752C31.3841 66.8522 31.4262 66.8024 31.453 66.7372C31.5066 66.6145 31.499 66.4765 31.4377 66.4305L30.7561 65.9054L32.5444 64.8742C32.6248 64.8282 32.6899 64.6902 32.6899 64.5714C32.6899 64.4526 32.6248 64.3874 32.5444 64.4334Z" fill="black"/>
<path opacity="0.3" d="M34.0378 63.5709L35.8261 62.5398L35.1445 62.0146C35.0832 61.9686 35.0794 61.8306 35.1292 61.708C35.1828 61.5853 35.2708 61.524 35.3321 61.57L36.3009 62.3174C36.3009 62.3174 36.3009 62.3175 36.3009 62.3213C36.3124 62.329 36.32 62.3443 36.3277 62.3596C36.3277 62.3634 36.3354 62.3673 36.3354 62.3749C36.343 62.3979 36.3469 62.4248 36.3469 62.4554C36.3469 62.4861 36.343 62.5206 36.3354 62.5513C36.3354 62.5589 36.3315 62.5666 36.3277 62.5743C36.32 62.5973 36.3124 62.6203 36.3009 62.6433C36.3009 62.6433 36.3009 62.6471 36.3009 62.6509L35.3321 64.5177C35.3053 64.5714 35.2708 64.6059 35.2364 64.6289C35.1981 64.6519 35.156 64.6481 35.1292 64.6174C35.0756 64.5561 35.0832 64.4104 35.1445 64.2954L35.8261 62.9844L34.0378 64.0156C33.9574 64.0616 33.8923 64.0003 33.8923 63.8776C33.8923 63.7549 33.9574 63.6208 34.0378 63.5748V63.5709Z" fill="black"/>
<path opacity="0.3" d="M39.7433 58.419C39.7318 58.3117 39.6399 58.3232 39.5901 58.442L39.3451 59.04C38.9277 58.994 38.4222 59.4042 38.0814 60.1248C37.6372 61.064 37.6372 62.1718 38.0814 62.5973C38.3035 62.8119 38.5945 62.812 38.8856 62.6433C39.1766 62.4746 39.4676 62.1373 39.6897 61.6696C39.7471 61.5508 39.7471 61.409 39.6897 61.3553C39.6323 61.3016 39.5442 61.3553 39.4868 61.4741C39.1574 62.1718 38.6175 62.4861 38.2882 62.168C37.9589 61.8498 37.9589 61.0218 38.2882 60.3203C38.5218 59.822 38.8626 59.5268 39.1574 59.5077L38.9736 59.96C38.9277 60.0788 38.9698 60.1862 39.0464 60.1363L39.7739 59.661C39.8237 59.6265 39.862 59.5345 39.8544 59.4617L39.7471 58.4152L39.7433 58.419Z" fill="black"/>
<path opacity="0.3" d="M57.9932 43.5574L58.7093 42.0394C58.7935 41.8592 58.7935 41.6484 58.7093 41.5679C58.6251 41.4874 58.4872 41.5679 58.403 41.7442L57.6869 43.2622L56.9708 42.5722C56.8866 42.4917 56.7487 42.5722 56.6645 42.7486C56.5803 42.9287 56.5803 43.1396 56.6645 43.2201L57.3806 43.91L56.6645 45.428C56.5803 45.6082 56.5803 45.819 56.6645 45.8995C56.7066 45.9417 56.7641 45.9417 56.8177 45.9072C56.8713 45.8765 56.9287 45.8113 56.9708 45.7193L57.6869 44.2014L58.403 44.8914C58.4451 44.9335 58.5025 44.9335 58.5561 44.899C58.6097 44.8684 58.6672 44.8032 58.7093 44.7112C58.7935 44.531 58.7935 44.3202 58.7093 44.2397L57.9932 43.5497V43.5574Z" fill="black"/>
<path d="M43.6987 59.109V57.1272C43.6987 56.5024 44.1353 55.7434 44.679 55.4291L111.774 16.5635C112.314 16.2492 112.755 16.506 112.755 17.1308V19.1126C112.755 19.7375 112.314 20.4965 111.774 20.8108L44.679 59.6763C44.1391 59.9868 43.6987 59.7338 43.6987 59.109Z" fill="#FAFAFA"/>
<path d="M110.442 20.9601C110.411 20.9601 110.381 20.9524 110.354 20.9409C110.27 20.9064 110.189 20.8106 110.208 20.6458L110.304 19.8408L109.925 19.5686C109.86 19.5226 109.822 19.4421 109.822 19.3501C109.822 19.2198 109.887 19.0818 109.982 19.009L110.557 18.5643C110.557 18.5643 110.576 18.5451 110.584 18.5183L110.84 17.675C110.886 17.5217 111.005 17.4105 111.131 17.4028C111.231 17.3952 111.315 17.4488 111.357 17.537L111.571 17.997L112.058 17.8092C112.154 17.7708 112.253 17.7938 112.318 17.8705C112.402 17.9663 112.406 18.1235 112.33 18.2653L111.912 19.0473C111.901 19.0703 111.897 19.0895 111.897 19.0933L111.997 19.7986C112.016 19.9366 111.947 20.0746 111.874 20.1513C111.809 20.2203 111.725 20.2509 111.648 20.2394L111.177 20.1819L110.668 20.8298C110.595 20.9218 110.511 20.9563 110.438 20.9563L110.442 20.9601ZM110.166 19.3233L110.541 19.5955C110.618 19.653 110.656 19.7526 110.641 19.8676L110.576 20.4043L110.917 19.9711C110.986 19.883 111.078 19.8331 111.173 19.8485L111.644 19.906C111.644 19.906 111.663 19.8638 111.66 19.8523L111.56 19.1431C111.549 19.0626 111.568 18.9706 111.61 18.8901L111.974 18.2078L111.598 18.3535C111.48 18.3995 111.353 18.3496 111.3 18.2346L111.131 17.8743L110.901 18.6256C110.875 18.7138 110.821 18.7905 110.76 18.8403L110.185 19.285C110.185 19.285 110.166 19.3118 110.159 19.331L110.166 19.3233Z" fill="#E0E0E0"/>
<g opacity="0.2">
<path d="M114.616 15.793C114.505 15.793 114.397 15.7355 114.336 15.632C114.248 15.4786 114.302 15.2793 114.455 15.1911L117.074 13.677C117.227 13.5888 117.426 13.6425 117.514 13.7958C117.602 13.9492 117.549 14.1485 117.396 14.2366L114.776 15.7508C114.727 15.7815 114.669 15.793 114.616 15.793Z" fill="black"/>
<path d="M114.616 17.3071C114.505 17.3071 114.397 17.2496 114.336 17.1461C114.248 16.9928 114.302 16.7935 114.455 16.7053L117.074 15.1911C117.227 15.103 117.426 15.1566 117.514 15.31C117.602 15.4633 117.549 15.6626 117.396 15.7508L114.776 17.2649C114.727 17.2956 114.669 17.3071 114.616 17.3071Z" fill="black"/>
<path d="M114.616 18.8213C114.505 18.8213 114.397 18.7638 114.336 18.6603C114.248 18.5069 114.302 18.3076 114.455 18.2195L117.074 16.7053C117.227 16.6171 117.426 16.6708 117.514 16.8241C117.602 16.9775 117.549 17.1768 117.396 17.265L114.776 18.7791C114.727 18.8098 114.669 18.8213 114.616 18.8213Z" fill="black"/>
</g>
<path d="M91.1581 42.8903L110.335 31.8083C110.901 31.4787 111.365 31.747 111.365 32.4025V36.7187C111.365 37.3742 110.905 38.1754 110.339 38.5012L91.1619 49.5832C90.5952 49.9129 90.1318 49.6445 90.1318 48.989V44.6728C90.1318 44.0173 90.5913 43.2161 91.1619 42.8903H91.1581Z" fill="#BA68C8"/>
<path opacity="0.3" d="M91.1581 42.8903L110.335 31.8083C110.901 31.4787 111.365 31.747 111.365 32.4025V36.7187C111.365 37.3742 110.905 38.1754 110.339 38.5012L91.1619 49.5832C90.5952 49.9129 90.1318 49.6445 90.1318 48.989V44.6728C90.1318 44.0173 90.5913 43.2161 91.1619 42.8903H91.1581Z" fill="white"/>
<path d="M67.9952 56.257L87.1719 45.175C87.7386 44.8453 88.2019 45.1137 88.2019 45.7692V50.0854C88.2019 50.7409 87.7424 51.5421 87.1757 51.8679L67.9991 62.9499C67.4323 63.2796 66.969 63.0112 66.969 62.3557V58.0395C66.969 57.384 67.4285 56.5828 67.9991 56.257H67.9952Z" fill="#BA68C8"/>
<path opacity="0.3" d="M67.9952 56.257L87.1719 45.175C87.7386 44.8453 88.2019 45.1137 88.2019 45.7692V50.0854C88.2019 50.7409 87.7424 51.5421 87.1757 51.8679L67.9991 62.9499C67.4323 63.2796 66.969 63.0112 66.969 62.3557V58.0395C66.969 57.384 67.4285 56.5828 67.9991 56.257H67.9952Z" fill="white"/>
<path d="M65.0275 61.4167C65.0275 61.087 64.9126 60.857 64.725 60.7497C64.5373 60.6423 62.9827 59.7377 62.7951 59.6303C62.6074 59.523 62.3509 59.5384 62.0713 59.7032L37.1126 74.1239C36.5459 74.4536 36.0825 75.2509 36.0825 75.9064V80.2227C36.0825 80.5485 36.1974 80.7785 36.3774 80.8858C36.565 80.997 38.1311 81.9017 38.3188 82.009C38.5064 82.1163 38.7591 82.0972 39.0425 81.9362L64.0051 67.5231C64.5718 67.1934 65.0351 66.3961 65.0351 65.7406L65.0275 61.4205V61.4167Z" fill="#BA68C8"/>
<path opacity="0.15" d="M65.0275 61.4167C65.0275 61.087 64.9126 60.857 64.725 60.7497C64.5373 60.6423 62.9827 59.7377 62.7951 59.6303C62.6074 59.523 62.3509 59.5384 62.0713 59.7032L37.1126 74.1239C36.5459 74.4536 36.0825 75.2509 36.0825 75.9064V80.2227C36.0825 80.5485 36.1974 80.7785 36.3774 80.8858C36.565 80.997 38.1311 81.9017 38.3188 82.009C38.5064 82.1163 38.7591 82.0972 39.0425 81.9362L64.0051 67.5231C64.5718 67.1934 65.0351 66.3961 65.0351 65.7406L65.0275 61.4205V61.4167Z" fill="black"/>
<path d="M39.0426 75.2392L63.9975 60.8184C64.2809 60.6536 64.5374 60.6383 64.7251 60.7456C64.9127 60.8529 65.0276 61.0829 65.0276 61.4126L65.0352 65.7327C65.0352 66.3882 64.5757 67.1893 64.0052 67.5151L39.0426 81.9282C38.7592 82.0931 38.5027 82.1084 38.3189 82.0011C38.1312 81.8937 38.0164 81.6637 38.0164 81.3341V77.0178C38.0164 76.3623 38.4759 75.5612 39.0464 75.2353L39.0426 75.2392Z" fill="#BA68C8"/>
<path d="M64.7288 60.7494C64.545 60.6382 64.2884 60.6574 64.0012 60.8222L39.0463 75.2392C38.7629 75.4002 38.5064 75.6877 38.3149 76.0097L36.385 74.8903C36.5688 74.5684 36.8254 74.2847 37.1126 74.1199L62.0713 59.6991C62.3547 59.5381 62.6112 59.5189 62.7989 59.6263C62.9827 59.7298 64.5411 60.6382 64.7288 60.7456V60.7494Z" fill="#BA68C8"/>
<path opacity="0.3" d="M64.7288 60.7494C64.545 60.6382 64.2884 60.6574 64.0012 60.8222L39.0463 75.2392C38.7629 75.4002 38.5064 75.6877 38.3149 76.0097L36.385 74.8903C36.5688 74.5684 36.8254 74.2847 37.1126 74.1199L62.0713 59.6991C62.3547 59.5381 62.6112 59.5189 62.7989 59.6263C62.9827 59.7298 64.5411 60.6382 64.7288 60.7456V60.7494Z" fill="white"/>
<path d="M43.7638 75.8143L44.3803 73.8133C44.388 73.7903 44.4033 73.7558 44.4224 73.7098C44.4416 73.66 44.476 73.6255 44.5182 73.5987L44.7364 73.4722C44.7594 73.4568 44.7824 73.4607 44.7977 73.476C44.813 73.4913 44.8245 73.5182 44.8245 73.5565V76.7764C44.8245 76.8148 44.8168 76.8493 44.7977 76.8876C44.7786 76.9259 44.7594 76.9489 44.7364 76.9643L44.476 77.1176C44.4531 77.1329 44.4301 77.1291 44.4148 77.1138C44.3995 77.0984 44.388 77.0716 44.388 77.0333V75.0821L43.9668 76.4468C43.9553 76.4813 43.94 76.5158 43.9208 76.5541C43.9017 76.5924 43.8749 76.6231 43.8481 76.6384L43.6796 76.7343C43.6489 76.7534 43.626 76.7534 43.6068 76.7343C43.5877 76.7189 43.5724 76.6998 43.5609 76.6768L43.1397 75.799V77.7501C43.1397 77.7884 43.132 77.8229 43.1128 77.8613C43.0975 77.8996 43.0746 77.9226 43.0516 77.9379L42.7912 78.0913C42.7682 78.1066 42.7452 78.1028 42.7299 78.0874C42.7108 78.0721 42.7031 78.0453 42.7031 78.0069V74.787C42.7031 74.7486 42.7108 74.7141 42.7299 74.6758C42.7452 74.6413 42.7682 74.6145 42.7912 74.5991L43.0095 74.4726C43.0516 74.4496 43.086 74.4458 43.1052 74.4726C43.1243 74.4995 43.1397 74.5148 43.1473 74.5263L43.7638 75.8181V75.8143Z" fill="#FAFAFA"/>
<path d="M45.219 75.3888C45.219 75.201 45.2381 75.017 45.2726 74.8292C45.3109 74.6452 45.3607 74.4689 45.4296 74.3079C45.4985 74.1469 45.5828 74.0012 45.6785 73.8747C45.7781 73.7482 45.8853 73.6485 46.0078 73.5795C46.1265 73.5105 46.2376 73.4799 46.3371 73.4914C46.4367 73.5029 46.5171 73.545 46.586 73.6217C46.6549 73.6945 46.7086 73.8019 46.7468 73.9322C46.7851 74.0664 46.8043 74.2159 46.8043 74.3845V74.6107C46.8043 74.649 46.7966 74.6835 46.7775 74.7219C46.7583 74.7602 46.7392 74.7832 46.7162 74.7985L45.6364 75.4233C45.6364 75.5 45.6479 75.5613 45.667 75.6073C45.6862 75.6533 45.7168 75.6878 45.7513 75.707C45.7857 75.7262 45.824 75.7338 45.87 75.7262C45.9159 75.7185 45.9619 75.7032 46.0078 75.6763C46.0767 75.638 46.1342 75.592 46.1763 75.546C46.2184 75.5 46.2567 75.4502 46.2835 75.4003C46.3065 75.362 46.3256 75.3313 46.341 75.3122C46.3563 75.293 46.3754 75.2777 46.4022 75.2623L46.6626 75.1128C46.6856 75.0975 46.7086 75.1013 46.7277 75.1128C46.7468 75.1282 46.7545 75.155 46.7507 75.1933C46.7507 75.2393 46.7315 75.3122 46.7009 75.4003C46.6703 75.4923 46.6243 75.592 46.5592 75.6955C46.4979 75.8028 46.4214 75.9063 46.3295 76.0098C46.2376 76.1133 46.1303 76.1977 46.0116 76.2705C45.8891 76.3395 45.7819 76.3702 45.6823 76.3625C45.5828 76.3548 45.5024 76.3088 45.4334 76.2322C45.3645 76.1517 45.3109 76.0405 45.2764 75.8987C45.2381 75.7568 45.2228 75.5843 45.2228 75.385L45.219 75.3888ZM46.0116 74.1814C45.9504 74.2159 45.8968 74.2619 45.8508 74.3155C45.8049 74.3692 45.7704 74.4267 45.7398 74.488C45.7091 74.5494 45.6862 74.6145 45.6708 74.6797C45.6555 74.7449 45.644 74.8024 45.6402 74.856L46.3716 74.4344C46.3678 74.3884 46.3601 74.3385 46.3486 74.2925C46.3371 74.2427 46.318 74.2044 46.2912 74.1775C46.2644 74.1469 46.2299 74.1315 46.184 74.1315C46.138 74.1315 46.0844 74.1469 46.0155 74.189L46.0116 74.1814Z" fill="#FAFAFA"/>
<path d="M48.7379 74.5147C48.7379 74.553 48.7302 74.5875 48.7111 74.6258C48.6919 74.6641 48.6728 74.6871 48.6498 74.7025L48.4047 74.8443C48.3818 74.8596 48.3588 74.8558 48.3435 74.8405C48.3243 74.8251 48.3167 74.7983 48.3167 74.76V73.495C48.3167 73.2957 48.286 73.1538 48.2248 73.0695C48.1635 72.9852 48.0716 72.9775 47.9452 73.0503C47.8304 73.1155 47.7423 73.2267 47.6734 73.3877C47.6083 73.5448 47.5738 73.725 47.5738 73.9243V75.1893C47.5738 75.2276 47.5661 75.2621 47.547 75.3005C47.5278 75.3388 47.5087 75.3618 47.4857 75.3771L47.2407 75.519C47.2177 75.5343 47.1947 75.5305 47.1794 75.5151C47.1602 75.4998 47.1526 75.473 47.1526 75.4346V73.1117C47.1526 73.0733 47.1602 73.0388 47.1794 73.0005C47.1985 72.966 47.2177 72.9392 47.2407 72.9238L47.4857 72.782C47.5087 72.7667 47.5317 72.7705 47.547 72.7858C47.5661 72.8012 47.5738 72.828 47.5738 72.8663V72.9813C47.6312 72.8625 47.6963 72.7513 47.7729 72.6517C47.8495 72.552 47.9376 72.4715 48.041 72.4102C48.1712 72.3335 48.2822 72.3029 48.3703 72.3144C48.4583 72.3259 48.5311 72.3719 48.5847 72.4447C48.6383 72.5213 48.6766 72.621 48.6996 72.7513C48.7226 72.8817 48.734 73.0235 48.734 73.1768V74.5185L48.7379 74.5147Z" fill="#FAFAFA"/>
<path d="M49.1516 71.9541C49.1516 71.9158 49.1593 71.8813 49.1784 71.843C49.1937 71.8085 49.2167 71.7816 49.2397 71.7663L49.4848 71.6245C49.5077 71.6091 49.5307 71.613 49.546 71.6283C49.5613 71.6436 49.5728 71.6705 49.5728 71.7088V72.9738C49.5728 73.1731 49.5996 73.3188 49.6571 73.4031C49.7107 73.4913 49.8026 73.4989 49.9251 73.4261C50.04 73.3609 50.1281 73.2498 50.1893 73.0965C50.2506 72.9431 50.2812 72.763 50.2812 72.5636V71.2987C50.2812 71.2603 50.2889 71.2258 50.308 71.1875C50.3233 71.153 50.3463 71.1262 50.3693 71.1108L50.6144 70.969C50.6373 70.9537 50.6603 70.9575 50.6756 70.9728C50.691 70.9882 50.7024 71.015 50.7024 71.0533V73.3763C50.7024 73.4146 50.6948 73.4491 50.6756 73.4874C50.6565 73.5258 50.6373 73.5488 50.6144 73.5641L50.3693 73.7059C50.3463 73.7213 50.3233 73.7174 50.308 73.7021C50.2889 73.6868 50.2812 73.6599 50.2812 73.6216V73.5066C50.2314 73.6101 50.1702 73.7174 50.0974 73.8209C50.0247 73.9244 49.9366 74.0049 49.8332 74.0663C49.703 74.1429 49.592 74.1736 49.5077 74.1621C49.4235 74.1506 49.3507 74.1046 49.301 74.0279C49.2512 73.9513 49.2129 73.8478 49.1899 73.7213C49.1669 73.5909 49.1593 73.4491 49.1593 73.292V71.9503L49.1516 71.9541Z" fill="#FAFAFA"/>
<path d="M59.6588 67.8102L58.2344 66.7331L58.4909 66.2462L59.5401 67.0397L60.5893 65.0349L60.9646 65.3186L59.6588 67.8102Z" fill="#FAFAFA"/>
<path d="M89.2282 78.6622C89.2282 78.3325 89.1133 78.1025 88.9257 77.9952C88.738 77.8879 87.1872 76.9909 86.9996 76.8836C86.8119 76.7762 86.5554 76.7916 86.272 76.9526L69.929 86.3977C69.3623 86.7274 68.8989 86.9919 68.8989 86.9919V119.272C68.8989 119.598 69.0138 119.828 69.1938 119.935C69.3814 120.046 70.9476 120.951 71.1352 121.058C71.3228 121.166 71.5755 121.146 71.8589 120.985L88.2058 111.544C88.7725 111.214 89.2358 110.417 89.2358 109.762L89.2282 78.666V78.6622Z" fill="#E0E0E0"/>
<path d="M86.9995 76.8835C86.8157 76.7723 86.5554 76.7915 86.2682 76.9525L69.9251 86.3938C69.6418 86.5587 68.8951 86.9918 68.8951 86.9918L65.847 88.7551C65.5254 88.9391 65.5522 89.3914 65.847 89.5563C65.8815 89.5754 67.5663 90.6373 67.8918 90.7178L70.825 91.4576V88.1111C70.825 88.1111 71.5717 87.678 71.8589 87.517L88.1981 78.0718C88.4814 77.9108 88.7418 77.8916 88.9256 77.999C88.7418 77.8878 87.1833 76.9908 86.9995 76.8873V76.8835Z" fill="#F0F0F0"/>
<path d="M89.2243 78.6621C89.2243 78.3324 89.1095 78.1024 88.9218 77.9951C88.7342 77.8878 88.4776 77.9031 88.1943 78.0679L70.825 88.1073L67.777 89.8706C67.4591 90.0546 67.4821 90.5031 67.777 90.6679C67.8114 90.6871 67.8535 90.7062 67.8957 90.7177L70.8288 91.4575V120.391C70.8288 120.721 70.9475 120.951 71.1352 121.058C71.3228 121.165 71.5755 121.146 71.8589 120.985L88.2058 111.544C88.7725 111.214 89.2358 110.417 89.2358 109.761L89.2282 78.6659L89.2243 78.6621Z" fill="#FAFAFA"/>
<path d="M88.6652 78.4359C88.6652 78.4359 88.715 78.5125 88.715 78.662L88.7226 109.758C88.7226 110.233 88.3627 110.862 87.9491 111.099L71.5984 120.541C71.4874 120.606 71.4184 120.613 71.384 120.613C71.3725 120.606 71.3342 120.537 71.3342 120.387V91.4536V91.055L70.9475 90.9592L68.1368 90.2538L71.0776 88.5519L88.4469 78.5125C88.558 78.4473 88.6269 78.4397 88.6499 78.4397H88.6575M88.6499 77.926C88.512 77.926 88.355 77.972 88.1904 78.0679L70.8211 88.1072L67.773 89.8705C67.4552 90.0545 67.4782 90.503 67.773 90.6678C67.8075 90.687 67.8496 90.7062 67.8918 90.7177L70.8249 91.4575V120.391C70.8249 120.721 70.9436 120.951 71.1313 121.058C71.2078 121.1 71.2997 121.123 71.3955 121.123C71.5333 121.123 71.6903 121.077 71.855 120.981L88.2019 111.54C88.7686 111.21 89.2319 110.413 89.2319 109.758L89.2242 78.662C89.2242 78.3324 89.1094 78.1024 88.9217 77.995C88.8452 77.949 88.7533 77.926 88.6537 77.926H88.6499Z" fill="#E0E0E0"/>
<path d="M70.8289 107.914V108.462L89.232 97.8245V97.2764L70.8289 107.914Z" fill="#E0E0E0"/>
<path d="M70.8289 115.155L89.232 104.517V103.969L70.8289 114.607V115.155Z" fill="#E0E0E0"/>
<path d="M70.8289 94.5241V95.0761L89.2282 84.4388L89.2244 83.8906L70.8289 94.5241Z" fill="#E0E0E0"/>
<path d="M70.8289 101.221V101.769L89.2282 91.1317V90.5835L70.8289 101.221Z" fill="#E0E0E0"/>
<path d="M71.3037 101.493L88.7725 91.3962V97.5908L71.3037 107.638V101.493Z" fill="#BA68C8"/>
<path opacity="0.6" d="M71.3037 101.493L88.7725 91.3962V97.5908L71.3037 107.638V101.493Z" fill="white"/>
<path d="M74.6888 101.489L82.4084 97.0273C82.7492 96.8318 83.0249 96.9889 83.0249 97.3838V97.7134C83.0249 98.1083 82.7492 98.5874 82.4084 98.7829L74.6888 103.245C74.348 103.44 74.0723 103.283 74.0723 102.888V102.559C74.0723 102.164 74.348 101.685 74.6888 101.489Z" fill="#BA68C8"/>
<path d="M74.6888 94.8041L82.4084 90.3422C82.7492 90.1467 83.0249 90.3039 83.0249 90.6987V91.0284C83.0249 91.4232 82.7492 91.9024 82.4084 92.0979L74.6888 96.5598C74.348 96.7553 74.0723 96.5981 74.0723 96.2033V95.8736C74.0723 95.4788 74.348 94.9996 74.6888 94.8041Z" fill="#E0E0E0"/>
<path d="M74.6888 88.1074L82.4084 83.6454C82.7492 83.4499 83.0249 83.6071 83.0249 84.0019V84.3316C83.0249 84.7264 82.7492 85.2056 82.4084 85.4011L74.6888 89.863C74.348 90.0585 74.0723 89.9013 74.0723 89.5065V89.1768C74.0723 88.782 74.348 88.3029 74.6888 88.1074Z" fill="#E0E0E0"/>
<path d="M74.6888 114.879L82.4084 110.417C82.7492 110.221 83.0249 110.379 83.0249 110.773V111.103C83.0249 111.498 82.7492 111.977 82.4084 112.173L74.6888 116.634C74.348 116.83 74.0723 116.673 74.0723 116.278V115.948C74.0723 115.554 74.348 115.074 74.6888 114.879Z" fill="#E0E0E0"/>
<path d="M74.6888 108.182L82.4084 103.72C82.7492 103.525 83.0249 103.682 83.0249 104.077V104.406C83.0249 104.801 82.7492 105.28 82.4084 105.476L74.6888 109.938C74.348 110.133 74.0723 109.976 74.0723 109.581V109.252C74.0723 108.857 74.348 108.378 74.6888 108.182Z" fill="#E0E0E0"/>
<path d="M65.0275 74.7984C65.0275 74.4688 64.9126 74.2388 64.725 74.1314C64.5373 74.0241 62.9865 73.1271 62.7989 73.0198C62.6112 72.9125 62.3547 72.9278 62.0713 73.0888L37.1126 87.5057C36.5459 87.8354 36.0825 88.6327 36.0825 89.2882V120.38C36.0825 120.706 36.1974 120.936 36.3774 121.043C36.565 121.154 38.1311 122.059 38.3188 122.166C38.5064 122.274 38.7591 122.254 39.0425 122.093L64.0051 107.68C64.5718 107.351 65.0351 106.553 65.0351 105.898L65.0275 74.8023V74.7984Z" fill="#E0E0E0"/>
<path d="M64.7288 74.1314C64.545 74.0202 64.2884 74.0394 64.0012 74.2042L39.0463 88.6211C38.7629 88.7821 38.5064 89.0696 38.3149 89.3916L36.385 88.2723C36.5688 87.9503 36.8254 87.6667 37.1126 87.5018L62.0713 73.0849C62.3547 72.9239 62.6151 72.9086 62.8027 73.0159C62.9865 73.1194 64.5411 74.0202 64.7288 74.1275V74.1314Z" fill="#F0F0F0"/>
<path d="M61.1753 75.8334L60.218 74.1697C60.1835 74.1084 60.1376 74.0662 60.0839 74.0356C59.8963 73.9282 58.2076 72.9469 58.1579 72.9163C57.9702 72.8051 57.706 72.8779 57.6256 73.1118L56.5266 76.2857L58.4565 77.405L61.1753 75.8295V75.8334Z" fill="#E0E0E0"/>
<path d="M65.0275 74.7984C65.0275 74.4687 64.9126 74.2388 64.725 74.1314C64.5374 74.0241 64.2808 74.0394 63.9974 74.2043L61.1753 75.8334L60.218 74.1736C60.061 73.9014 59.6589 73.9398 59.5556 74.2388L58.4604 77.405L39.0425 88.625C38.4758 88.9547 38.0125 89.752 38.0125 90.4075V121.499C38.0125 121.829 38.1312 122.059 38.3188 122.166C38.5064 122.273 38.7591 122.254 39.0425 122.093L64.0051 107.68C64.5718 107.351 65.0351 106.553 65.0351 105.898L65.0275 74.8022V74.7984Z" fill="#FAFAFA"/>
<path d="M64.4646 74.5721C64.4646 74.5721 64.5144 74.6487 64.5144 74.7982L64.522 105.894C64.522 106.369 64.1621 106.998 63.7485 107.235L38.786 121.648C38.6749 121.714 38.606 121.721 38.5715 121.721C38.56 121.714 38.5217 121.645 38.5217 121.495V90.4035C38.5217 89.9282 38.8817 89.2995 39.2952 89.0619L58.7131 77.8419L58.8778 77.746L58.9391 77.5659L59.9308 74.7024L60.7311 76.0862L60.9877 76.5309L61.4319 76.2741L64.254 74.6449C64.365 74.5798 64.434 74.5721 64.4684 74.5721M59.904 73.9894C59.7585 73.9894 59.613 74.0738 59.5556 74.2348L58.4604 77.401L39.0425 88.621C38.4758 88.9507 38.0125 89.748 38.0125 90.4035V121.495C38.0125 121.825 38.1312 122.055 38.3188 122.162C38.3954 122.204 38.4873 122.227 38.583 122.227C38.7209 122.227 38.8779 122.181 39.0425 122.085L64.0051 107.672C64.5718 107.343 65.0351 106.545 65.0351 105.89L65.0275 74.7944C65.0275 74.4648 64.9126 74.2348 64.725 74.1274C64.6484 74.0814 64.5565 74.0584 64.4569 74.0584C64.3191 74.0584 64.1621 74.1044 63.9974 74.2003L61.1753 75.8294L60.218 74.1696C60.1453 74.0469 60.0227 73.9856 59.904 73.9856V73.9894Z" fill="#E0E0E0"/>
<path d="M38.0125 95.6399V96.1919L65.0351 80.5713V80.0232L38.0125 95.6399Z" fill="#E0E0E0"/>
<path d="M38.0125 109.03V109.578L65.0351 93.9609V93.4089L38.0125 109.03Z" fill="#E0E0E0"/>
<path d="M38.0125 116.271L65.0351 100.654V100.106L38.0125 115.722V116.271Z" fill="#E0E0E0"/>
<path d="M38.0125 102.333V102.885L65.0351 87.2681V86.7161L38.0125 102.333Z" fill="#E0E0E0"/>
<path d="M38.4949 102.609L64.5679 87.5364L64.5603 93.6849L38.4949 108.754V102.609Z" fill="#BA68C8"/>
<path opacity="0.6" d="M38.4949 102.609L64.5679 87.5364L64.5603 93.6849L38.4949 108.754V102.609Z" fill="white"/>
<path d="M42.4927 102.252L54.7692 95.1569C55.11 94.9614 55.3857 95.1186 55.3857 95.5134V95.8431C55.3857 96.2379 55.11 96.7171 54.7692 96.9125L42.4927 104.008C42.1519 104.203 41.8762 104.046 41.8762 103.651V103.322C41.8762 102.927 42.1519 102.448 42.4927 102.252Z" fill="#BA68C8"/>
<path d="M42.4927 95.567L54.7692 88.4716C55.11 88.2761 55.3857 88.4333 55.3857 88.8281V89.1578C55.3857 89.5526 55.11 90.0317 54.7692 90.2272L42.4927 97.3226C42.1519 97.5181 41.8762 97.361 41.8762 96.9661V96.6365C41.8762 96.2417 42.1519 95.7625 42.4927 95.567Z" fill="#E0E0E0"/>
<path d="M42.4927 88.8702L54.7692 81.7748C55.11 81.5793 55.3857 81.7365 55.3857 82.1313V82.461C55.3857 82.8558 55.11 83.335 54.7692 83.5305L42.4927 90.6259C42.1519 90.8214 41.8762 90.6642 41.8762 90.2694V89.9397C41.8762 89.5449 42.1519 89.0657 42.4927 88.8702Z" fill="#E0E0E0"/>
<path d="M42.4927 115.642L54.7692 108.546C55.11 108.351 55.3857 108.508 55.3857 108.903V109.232C55.3857 109.627 55.11 110.106 54.7692 110.302L42.4927 117.397C42.1519 117.593 41.8762 117.436 41.8762 117.041V116.711C41.8762 116.316 42.1519 115.837 42.4927 115.642Z" fill="#E0E0E0"/>
<path d="M42.4927 108.945L54.7692 101.85C55.11 101.654 55.3857 101.811 55.3857 102.206V102.536C55.3857 102.931 55.11 103.41 54.7692 103.605L42.4927 110.701C42.1519 110.896 41.8762 110.739 41.8762 110.344V110.015C41.8762 109.62 42.1519 109.141 42.4927 108.945Z" fill="#E0E0E0"/>
<path d="M94.3516 102.398L88.5887 95.4865C88.5504 95.4443 88.5159 95.4098 88.4853 95.3945C88.3666 95.3255 87.1336 94.6163 87.103 94.5972C86.9843 94.5282 86.9 94.6202 86.9 94.8463L86.8694 108.811C86.8694 108.93 86.8885 108.999 86.9192 109.018C86.9651 109.045 88.2709 109.8 88.3015 109.819C88.3475 109.846 88.4202 109.769 88.5045 109.593L89.4924 107.477L90.0553 109.493C90.0783 109.574 90.1166 109.627 90.1663 109.658C90.2774 109.727 91.5027 110.429 91.5525 110.459C91.6674 110.524 91.832 110.463 91.9929 110.279L92.7893 109.363C93.0229 109.095 93.1531 108.665 93.0804 108.405L91.989 104.51C91.9163 104.249 92.1192 103.916 92.4447 103.77L94.0606 103.038C94.3861 102.892 94.5125 102.609 94.344 102.406L94.3516 102.398Z" fill="#BA68C8"/>
<path d="M94.3516 102.398L88.5887 95.4865C88.5504 95.4443 88.5159 95.4098 88.4853 95.3945C88.3666 95.3255 87.1336 94.6163 87.103 94.5972C86.9843 94.5282 86.9 94.6202 86.9 94.8463L86.8694 108.811C86.8694 108.93 86.8885 108.999 86.9192 109.018C86.9651 109.045 88.2709 109.8 88.3015 109.819C88.3475 109.846 88.4202 109.769 88.5045 109.593L89.4924 107.477L90.0553 109.493C90.0783 109.574 90.1166 109.627 90.1663 109.658C90.2774 109.727 91.5027 110.429 91.5525 110.459C91.6674 110.524 91.832 110.463 91.9929 110.279L92.7893 109.363C93.0229 109.095 93.1531 108.665 93.0804 108.405L91.989 104.51C91.9163 104.249 92.1192 103.916 92.4447 103.77L94.0606 103.038C94.3861 102.892 94.5125 102.609 94.344 102.406L94.3516 102.398Z" fill="#37474F"/>
<path d="M88.2517 109.612L88.2823 95.6473C88.2823 95.3598 88.4202 95.287 88.5887 95.4902L94.3516 102.402C94.5201 102.605 94.3938 102.888 94.0683 103.034L92.4523 103.766C92.1269 103.912 91.9239 104.245 91.9967 104.506L93.088 108.401C93.1608 108.661 93.0306 109.091 92.797 109.359L92.0005 110.275C91.7669 110.543 91.518 110.551 91.4453 110.29L90.3539 106.396C90.2812 106.135 90.1089 106.166 89.9672 106.465L88.5083 109.589C88.3666 109.888 88.2555 109.899 88.2555 109.608L88.2517 109.612Z" fill="#455A64"/>
<path d="M91.5296 110.44C91.3534 110.34 90.2736 109.715 90.1664 109.654C90.1166 109.623 90.0783 109.57 90.0553 109.489L89.4924 107.477L89.9634 106.469C90.1013 106.17 90.2774 106.135 90.3502 106.396L91.4377 110.287C91.4568 110.359 91.4874 110.409 91.5296 110.44Z" fill="#263238"/>
<path d="M121.738 136.805L118.583 130.58L112.23 134.302L120.061 143.556C120.061 143.556 123.944 143.195 124.568 141.168C125.192 139.14 122.806 137.476 121.738 136.801V136.805Z" fill="#C8856A"/>
<path d="M126.214 139.247C126.601 139.512 126.839 139.83 127.095 140.209C127.352 140.589 127.271 142.433 127.516 143.287C127.761 144.142 127.949 144.368 128.359 145.442C128.811 146.63 129.649 147.715 128.703 150.766C127.746 153.859 126.245 155.274 124.966 156.021C124.296 156.412 123.427 156.397 123.427 156.397C123.427 156.397 121.753 155.765 122.01 154.772C122.266 153.779 126.218 139.247 126.218 139.247H126.214Z" fill="#263238"/>
<path d="M118.866 142.601C118.912 142.916 119.353 143.399 119.529 143.655C120.13 144.518 120.406 145.687 120.612 146.707C121.6 151.537 119.682 153.994 122.278 155.807C123.032 156.282 124.591 156.152 126.965 153.104C128.179 151.548 128.868 148.351 128.397 146.902C127.926 145.453 127.279 144.51 126.973 143.395C126.666 142.279 126.827 140.205 126.211 139.247C125.851 138.688 125.265 138.289 124.702 137.952C124.242 137.672 123.235 137.304 122.764 137.035C122.255 136.748 122.037 136.464 121.734 136.805L122.278 137.476C123.124 138.649 122.891 138.822 122.868 139.446C122.845 140.098 123.063 140.788 123.182 141.436C122.581 140.677 122.332 140.01 121.677 140.129C121.06 140.24 120.942 140.213 120 141.099C119.058 141.984 118.824 142.325 118.866 142.601Z" fill="#BA68C8"/>
<path opacity="0.4" d="M118.866 142.601C118.912 142.916 119.353 143.399 119.529 143.655C120.13 144.518 120.406 145.687 120.612 146.707C121.6 151.537 119.682 153.994 122.278 155.807C123.032 156.282 124.591 156.152 126.965 153.104C128.179 151.548 128.868 148.351 128.397 146.902C127.926 145.453 127.279 144.51 126.973 143.395C126.666 142.279 126.827 140.205 126.211 139.247C125.851 138.688 125.265 138.289 124.702 137.952C124.242 137.672 123.235 137.304 122.764 137.035C122.255 136.748 122.037 136.464 121.734 136.805L122.278 137.476C123.124 138.649 122.891 138.822 122.868 139.446C122.845 140.098 123.063 140.788 123.182 141.436C122.581 140.677 122.332 140.01 121.677 140.129C121.06 140.24 120.942 140.213 120 141.099C119.058 141.984 118.824 142.325 118.866 142.601Z" fill="black"/>
<path opacity="0.3" d="M126.969 153.104C128.183 151.548 128.872 148.351 128.401 146.902C128.229 146.377 128.037 145.921 127.846 145.499C127.865 145.599 127.896 145.699 127.907 145.779C127.938 145.967 127.961 146.155 127.98 146.343C128.049 147.067 128.045 147.861 127.739 148.535C127.467 149.137 126.835 150.647 126.023 150.682C125.564 150.701 125.173 150.253 124.997 149.735C124.924 149.517 124.798 148.93 124.798 148.93C124.798 148.93 123.599 149.191 122.688 149.793C121.508 150.571 121.554 150.747 121.554 150.747C121.604 151.012 121.658 151.464 121.593 151.782C121.528 152.1 121.348 152.61 121.156 152.813C121.06 152.909 120.961 152.989 120.857 153.055C120.907 154.17 121.198 155.044 122.286 155.803C123.04 156.278 124.599 156.148 126.973 153.101L126.969 153.104Z" fill="black"/>
<path d="M120.616 146.707C120.922 148.206 120.949 149.474 120.919 150.567C121.363 151.805 121.75 151.767 121.803 151.126C121.857 150.482 121.003 147.826 120.367 145.626C120.463 145.99 120.543 146.354 120.616 146.703V146.707Z" fill="#37474F"/>
<path d="M123.553 138.96C123.626 138.358 123.434 137.737 123.082 137.193C122.967 137.139 122.856 137.085 122.772 137.035C122.263 136.748 122.044 136.464 121.742 136.805L122.286 137.476C123.132 138.649 122.898 138.822 122.875 139.446C122.852 140.098 123.071 140.788 123.189 141.436C123.68 143.533 124.131 144.234 124.361 146.216C124.595 148.198 124.196 149.528 124.476 149.643C124.756 149.754 125.318 149.532 125.422 147.941C125.525 146.354 124.824 143.686 124.33 142.421C123.837 141.156 123.454 139.811 123.553 138.964V138.96Z" fill="#37474F"/>
<path d="M124.939 149.072C124.913 149.099 124.878 149.118 124.84 149.125C123.45 149.413 122.711 149.762 121.677 150.981C121.604 151.061 121.482 151.073 121.397 151.004C121.313 150.935 121.305 150.808 121.374 150.724C122.466 149.436 123.281 149.041 124.759 148.738C124.867 148.715 124.97 148.784 124.993 148.892C125.008 148.957 124.985 149.026 124.939 149.068V149.072Z" fill="#EBEBEB"/>
<path d="M124.691 147.42C124.664 147.447 124.629 147.466 124.591 147.477C123.155 147.811 122.355 148.217 121.26 149.501C121.175 149.593 121.061 149.597 120.972 149.524C120.888 149.451 120.877 149.325 120.949 149.237C122.11 147.884 122.975 147.435 124.499 147.079C124.606 147.052 124.717 147.121 124.74 147.232C124.756 147.301 124.733 147.374 124.687 147.42H124.691Z" fill="#EBEBEB"/>
<path d="M124.725 145.599C124.698 145.629 124.66 145.649 124.618 145.66C123.032 146.028 122.102 146.519 120.892 147.937C120.815 148.029 120.67 148.041 120.578 147.96C120.486 147.88 120.475 147.738 120.555 147.646C121.83 146.158 122.837 145.614 124.518 145.227C124.637 145.2 124.759 145.273 124.786 145.396C124.805 145.472 124.779 145.549 124.729 145.603L124.725 145.599Z" fill="#EBEBEB"/>
<path d="M124.461 144.046C124.434 144.073 124.396 144.096 124.353 144.108C122.799 144.468 121.899 144.94 120.712 146.331C120.635 146.419 120.494 146.435 120.402 146.354C120.31 146.277 120.298 146.136 120.379 146.044C121.627 144.583 122.607 144.062 124.254 143.678C124.373 143.652 124.487 143.724 124.518 143.843C124.537 143.92 124.51 143.993 124.461 144.046Z" fill="#EBEBEB"/>
<path d="M123.894 142.532C123.867 142.559 123.829 142.582 123.787 142.594C122.232 142.954 121.332 143.425 120.145 144.817C120.069 144.909 119.927 144.92 119.835 144.84C119.743 144.763 119.732 144.621 119.812 144.529C121.06 143.069 122.041 142.548 123.687 142.164C123.806 142.137 123.921 142.21 123.951 142.329C123.971 142.406 123.944 142.482 123.894 142.532Z" fill="#EBEBEB"/>
<path d="M120.026 137.304L115.914 140.669L113.586 142.13L116.243 147.155L123.725 143.571L120.026 137.304Z" fill="#C8856A"/>
<path d="M128.408 114.821C128.408 114.821 113.44 112.338 107.034 112.38C100.497 112.422 99.8924 117.336 101.527 120.345C104.66 126.107 115.55 138.327 115.55 138.327C115.55 138.327 119.207 136.652 120.333 133.482L117.848 127.782L125.774 130.308L126.689 129.192L128.412 114.825L128.408 114.821Z" fill="#455A64"/>
<path d="M116.538 122.921C118.169 125.359 119.195 127.165 119.839 128.414L117.84 127.778C115.588 122.411 115.129 120.843 111.529 118.329C111.529 118.329 114.11 119.303 116.534 122.921H116.538Z" fill="#37474F"/>
<path d="M128.408 114.821L151.487 119.057C151.487 119.057 153.314 127.571 151.548 132.892C149.821 138.097 144.694 139.588 142.228 139.78C138.701 140.052 134.604 138.96 134.604 138.96C134.604 138.96 132.571 140.55 130.511 141.371C128.447 142.191 119.421 145.974 119.421 145.974C119.421 145.974 116.886 143.828 117.139 139.351L126.689 129.185L128.412 114.818L128.408 114.821Z" fill="#455A64"/>
<path d="M119.417 145.982C119.417 145.982 118.927 145.756 118.227 144.426C120.559 143.874 128.248 140.865 130.729 139.811C135.148 137.936 136.511 135.954 136.511 135.954C136.511 135.954 136.542 137.273 134.6 138.963C134.6 138.963 132.567 140.554 130.507 141.375C128.443 142.195 119.417 145.978 119.417 145.978V145.982Z" fill="#37474F"/>
<path d="M139.325 138.116C141.535 138.473 147.478 137.376 149.412 133.183C151.303 129.077 150.664 124.175 150.242 119.958L150.955 120.127L152.207 120.468C152.536 124.217 152.904 128.644 151.812 132.842C150.43 138.151 144.694 139.592 142.228 139.784C138.701 140.056 134.604 138.963 134.604 138.963L135.776 137.146C135.776 137.146 137.104 137.756 139.325 138.112V138.116Z" fill="#37474F"/>
<path d="M125.659 130.281C125.659 130.281 126.076 129.787 126.949 128.759C127.822 127.736 129.232 125.792 132.854 125.93C136.476 126.068 143.442 126.697 143.442 126.697C143.442 126.697 136.178 125.459 133.67 125.041C131.162 124.623 129.488 124.915 128.06 126.183C126.628 127.452 124.411 129.867 124.411 129.867L125.663 130.277L125.659 130.281Z" fill="#37474F"/>
<path d="M130.515 125.631C130.515 125.631 128.7 123.749 128.818 120.598C128.818 120.598 127.949 123.91 129.339 126.314L130.515 125.635V125.631Z" fill="#37474F"/>
<path d="M104.158 144.748C102.397 145.442 101.309 146.143 100.497 147.205C99.6857 148.271 99.4368 149.348 100.21 150.636C100.984 151.924 102.404 153.438 104.089 153.338C105.774 153.238 106.812 152.817 108.378 151.97L104.162 144.744L104.158 144.748Z" fill="#263238"/>
<path d="M118.227 146.239C118.25 146.768 116.029 147.818 113.716 148.922C111.239 150.107 110.63 150.873 108.608 151.87C106.299 153.008 105.422 153.074 103.626 152.575C101.834 152.077 99.6207 149.509 101.164 147.147C102.42 145.223 104.047 144.694 106.517 144.042C109.067 143.372 110.427 142.9 112.292 142.176C114.076 141.482 115.543 140.236 115.91 140.669C115.657 140.792 113.789 141.946 114.145 142.26C114.233 142.421 114.497 142.371 114.957 142.179C115.156 142.095 115.389 142.045 115.596 142.149C115.807 142.252 115.941 142.486 116.056 142.705C116.343 143.237 116.377 143.563 116.615 144.119C116.753 144.445 116.695 144.257 116.825 144.587C116.971 144.955 117.243 145.514 117.208 145.852C117.185 146.055 117.04 146.12 116.883 146.22C116.726 146.319 116.504 146.438 116.358 146.553C116.301 146.599 116.193 146.749 116.228 146.829C116.285 146.96 116.607 146.898 116.741 146.841C116.902 146.776 117.101 146.73 117.262 146.668C117.419 146.611 117.821 146.431 118.231 146.239H118.227Z" fill="#BA68C8"/>
<path opacity="0.4" d="M118.227 146.239C118.25 146.768 116.029 147.818 113.716 148.922C111.239 150.107 110.63 150.873 108.608 151.87C106.299 153.008 105.422 153.074 103.626 152.575C101.834 152.077 99.6207 149.509 101.164 147.147C102.42 145.223 104.047 144.694 106.517 144.042C109.067 143.372 110.427 142.9 112.292 142.176C114.076 141.482 115.543 140.236 115.91 140.669C115.657 140.792 113.789 141.946 114.145 142.26C114.233 142.421 114.497 142.371 114.957 142.179C115.156 142.095 115.389 142.045 115.596 142.149C115.807 142.252 115.941 142.486 116.056 142.705C116.343 143.237 116.377 143.563 116.615 144.119C116.753 144.445 116.695 144.257 116.825 144.587C116.971 144.955 117.243 145.514 117.208 145.852C117.185 146.055 117.04 146.12 116.883 146.22C116.726 146.319 116.504 146.438 116.358 146.553C116.301 146.599 116.193 146.749 116.228 146.829C116.285 146.96 116.607 146.898 116.741 146.841C116.902 146.776 117.101 146.73 117.262 146.668C117.419 146.611 117.821 146.431 118.231 146.239H118.227Z" fill="black"/>
<path opacity="0.3" d="M109.404 151.49C109.071 151.659 106.976 152.633 106.318 152.05C105.606 151.418 107.287 150.406 107.287 150.406C107.287 150.406 107.543 148.823 105.632 146.492C105.303 146.749 103.925 146.737 103.94 145.925C103.959 145.116 106.268 144.115 106.303 144.104C103.94 144.736 102.381 145.281 101.164 147.151C99.6244 149.513 101.834 152.081 103.626 152.579C105.418 153.077 106.295 153.012 108.608 151.874C108.837 151.759 109.197 151.609 109.4 151.49H109.404Z" fill="black"/>
<path d="M107.061 150.245C106.188 150.536 106.785 151.333 108.068 151.076C109.986 150.689 111.583 149.601 113.72 148.926C116.029 147.822 118.384 146.795 118.23 146.212C117.817 146.369 116.932 146.737 116.932 146.737C116.76 146.81 116.312 146.979 116.312 146.979C114.562 147.734 112.625 148.953 110.729 149.466C109.06 149.919 107.934 149.961 107.061 150.252V150.245Z" fill="#37474F"/>
<path d="M105.759 146.791C106.559 146.327 106.697 145.932 108.267 145.208C109.825 144.491 112.49 142.942 114.129 141.984C114.643 141.704 115.891 140.673 115.91 140.665C115.638 140.355 114.639 140.642 113.639 141.275C112.64 141.907 112.031 142.31 111.035 142.827C109.109 143.985 106.911 144.767 105.812 145.476C104.713 146.185 104.958 147.255 105.759 146.791Z" fill="#37474F"/>
<path d="M105.64 146.58C105.652 146.607 105.667 146.63 105.686 146.649C105.701 146.668 106.954 148.044 107.183 150.528C107.195 150.651 107.294 150.747 107.402 150.747C107.513 150.747 107.589 150.643 107.578 150.525C107.333 147.868 106.019 146.427 105.946 146.35C105.866 146.262 105.74 146.258 105.667 146.342C105.613 146.404 105.602 146.503 105.636 146.584L105.64 146.58Z" fill="#F0F0F0"/>
<path d="M107.195 145.445C107.206 145.468 107.218 145.491 107.237 145.511C107.252 145.53 108.757 147.347 109.09 150.087C109.106 150.21 109.205 150.302 109.316 150.298C109.423 150.291 109.5 150.191 109.488 150.068C109.132 147.167 107.589 145.307 107.513 145.219C107.432 145.127 107.306 145.12 107.229 145.2C107.168 145.261 107.16 145.361 107.195 145.445Z" fill="#F0F0F0"/>
<path d="M110.614 149.923C110.649 149.999 110.718 150.057 110.798 150.061C110.909 150.068 110.993 149.972 110.99 149.854C110.898 147.044 109.09 144.41 109.006 144.318C108.922 144.23 108.799 144.226 108.727 144.311C108.654 144.395 108.665 144.533 108.742 144.621C108.761 144.64 110.507 147.216 110.591 149.831C110.591 149.861 110.599 149.896 110.614 149.923Z" fill="#F0F0F0"/>
<path d="M112.05 149.006C112.085 149.083 112.154 149.141 112.23 149.145C112.341 149.152 112.429 149.06 112.425 148.941C112.372 145.836 110.423 143.774 110.335 143.69C110.247 143.605 110.124 143.613 110.055 143.701C109.986 143.789 110.005 143.931 110.09 144.012C110.109 144.031 111.977 146.02 112.027 148.911C112.027 148.945 112.035 148.976 112.046 149.006H112.05Z" fill="#F0F0F0"/>
<path d="M113.911 148.217C113.946 148.294 114.011 148.347 114.091 148.355C114.202 148.366 114.29 148.274 114.29 148.156C114.279 145.235 112.226 142.973 112.135 142.885C112.05 142.8 111.924 142.8 111.855 142.885C111.786 142.973 111.798 143.111 111.882 143.195C111.905 143.218 113.881 145.403 113.892 148.113C113.892 148.148 113.9 148.182 113.915 148.213L113.911 148.217Z" fill="#EBEBEB"/>
<path d="M103.231 95.0494L117.158 96.6978C117.158 96.6978 121.014 94.9689 123.411 93.9301C131.717 90.323 133.004 89.6599 135.688 89.6944L131.154 99.2239C131.154 99.2239 125.762 101.512 120.796 103.379C118.207 104.353 118.242 104.521 115.382 103.789C113.256 103.245 112.157 102.957 109.071 102.118C105.288 101.091 102.734 100.481 102.734 100.481L103.231 95.0418V95.0494Z" fill="#C8856A"/>
<path d="M104.828 95.36C102.286 94.8463 101.298 94.8655 100.597 93.2862C99.8963 91.7031 99.6206 91.4041 99.3373 91.1051C99.0539 90.8061 97.212 89.7481 96.4271 89.3303C95.845 89.0198 95.3166 89.0504 94.2597 88.8243C93.7313 88.7093 93.1301 88.5406 92.6093 88.3873C92.1958 88.2685 91.7363 88.0155 91.2998 88.0231C90.7139 88.0346 90.8441 88.8626 91.25 89.2574C91.6827 89.6829 92.3222 89.9398 92.885 90.1698C93.3101 90.3423 94.3172 90.7294 94.3172 90.7294C94.164 91.0744 93.7696 91.7031 93.7772 92.1286C93.7849 92.5387 93.85 92.7227 94.612 93.4549C94.612 93.4549 94.275 93.819 94.3593 94.1717C94.4435 94.5244 94.7192 94.8157 94.9452 95.0572C94.9452 95.0572 94.7345 95.2987 94.7345 95.636C94.7345 95.9733 95.3089 96.6135 95.8948 97.1118C96.4922 97.7635 97.0014 98.7601 97.5528 99.2738C98.1042 99.7874 98.8969 99.9408 100.21 100.044C101.52 100.148 104.893 100.987 104.893 100.987C104.893 100.987 107.294 95.8545 104.828 95.36Z" fill="#C8856A"/>
<path d="M98.4528 91.9369C97.6946 91.7491 97.0934 91.4424 96.6454 90.8981C96.1974 90.3538 95.7417 89.7213 95.5311 89.8056C95.1827 89.9475 94.8227 90.9019 95.4698 91.8526C96.0902 92.7572 97.0705 93.7041 97.2313 93.9762C97.3921 94.2484 97.4495 95.0342 97.4687 95.6437C97.4917 96.2532 97.9435 97.6907 99.6973 98.2273C99.6973 98.2273 98.7821 98.2887 97.821 97.4032C96.8599 96.5215 97.0283 95.1224 96.9288 94.5359C96.8292 93.9494 96.8062 93.8306 96.0825 93.0716C95.3588 92.3126 94.57 91.4961 94.8801 90.304C95.1903 89.108 95.6958 89.3916 95.9485 89.6331C96.2012 89.8746 97.2466 91.6609 98.4528 91.9331V91.9369Z" fill="#AF6152"/>
<path d="M94.3171 90.7294L95.0102 90.8943L94.88 91.1511C94.88 91.1511 94.2903 91.0476 93.9036 91.5919C93.9955 91.3657 94.1946 90.9824 94.3171 90.7256V90.7294Z" fill="#AF6152"/>
<path d="M94.6121 93.4549C94.8533 93.7041 95.6498 94.4286 95.8106 94.5781C95.9714 94.7276 96.2969 94.5129 96.3467 94.0721C96.3965 93.6313 96.3352 93.3706 96.1323 93.0371C96.1323 93.0371 96.5688 93.5086 96.5267 94.0759C96.4845 94.6433 96.182 94.8502 95.9523 94.8771C95.7225 94.9077 95.1328 93.9801 94.6121 93.4549Z" fill="#AF6152"/>
<path d="M94.9451 95.0571C95.125 95.2449 95.4122 95.4634 95.9177 95.9771C96.2087 96.2722 96.3848 96.4754 96.5955 96.3489C96.8061 96.2224 96.9784 95.5861 96.7333 95.1759C96.4882 94.7658 96.2317 94.5166 96.2317 94.5166L96.3734 94.3633C96.3734 94.3633 96.9363 94.8923 97.0741 95.4558C97.212 96.0193 96.8903 96.6517 96.6031 96.6172C96.3159 96.5827 96.1551 96.4102 95.7569 95.9694C95.3548 95.5286 94.9451 95.0609 94.9451 95.0609V95.0571Z" fill="#AF6152"/>
<path d="M96.4506 96.4716C96.5541 96.6058 96.6269 96.9853 96.3778 97.1041C96.1286 97.2268 95.8948 97.1118 95.8948 97.1118C95.8948 97.1118 96.1478 97.3878 96.4698 97.2268C96.7649 97.0773 96.7726 96.7016 96.7036 96.418L96.4506 96.4716Z" fill="#AF6152"/>
<path d="M151.61 105.2C151.093 97.6409 151.112 94.3749 150.365 91.9025C149.216 91.5613 146.747 90.8751 146.747 90.8751C146.747 90.8751 140.8 90.6183 138.671 89.7405L135.692 89.6255C134.072 91.1818 129.818 94.4976 128.435 97.6447C127.509 99.753 127.535 102.843 130.059 104.939C130.024 107.186 130.438 110.022 130.438 110.022C130.438 110.022 129.668 112.433 128.707 114.802C129.067 118.521 134.486 121.307 141.099 123.101C148.198 125.026 152.54 122.151 152.54 122.151C152.54 122.151 152.123 112.686 151.61 105.196V105.2Z" fill="#BA68C8"/>
<path opacity="0.6" d="M151.61 105.2C151.093 97.6409 151.112 94.3749 150.365 91.9025C149.216 91.5613 146.747 90.8751 146.747 90.8751C146.747 90.8751 140.8 90.6183 138.671 89.7405L135.692 89.6255C134.072 91.1818 129.818 94.4976 128.435 97.6447C127.509 99.753 127.535 102.843 130.059 104.939C130.024 107.186 130.438 110.022 130.438 110.022C130.438 110.022 129.668 112.433 128.707 114.802C129.067 118.521 134.486 121.307 141.099 123.101C148.198 125.026 152.54 122.151 152.54 122.151C152.54 122.151 152.123 112.686 151.61 105.196V105.2Z" fill="white"/>
<path opacity="0.3" d="M136.025 106.258C136.025 106.258 137.813 108.665 141.577 108.401C145.46 108.129 146.348 104.955 146.348 104.955C146.348 104.955 146.337 109.164 141.696 109.489C137.419 109.788 136.025 106.258 136.025 106.258Z" fill="#BA68C8"/>
<path d="M140.482 127.214V127.651C140.482 128.092 140.245 128.502 139.866 128.725L128.076 135.517C127.884 135.628 127.67 135.682 127.455 135.682C127.241 135.682 127.03 135.628 126.839 135.517L105.211 123.017C104.828 122.795 104.591 122.385 104.591 121.944V121.641L127.455 134.854L140.482 127.211V127.214Z" fill="#EBEBEB"/>
<path d="M104.595 121.641L117.419 114.231C117.648 114.101 117.928 114.101 118.154 114.231L140.402 127.092C140.513 127.153 140.513 127.314 140.402 127.375L127.459 134.858L104.595 121.645V121.641Z" fill="#FAFAFA"/>
<path d="M127.574 133.769L134.493 129.775L114.267 118.083L107.317 122.059L127.574 133.769Z" fill="#E0E0E0"/>
<path d="M130.974 122.661L130.848 122.733L127.459 124.692L121.428 121.208L121.302 121.135L124.821 119.103L130.974 122.661Z" fill="#E0E0E0"/>
<path d="M130.848 122.733L127.459 124.692L121.428 121.208L124.821 119.249L130.848 122.733Z" fill="#E6E6E6"/>
<path d="M127.459 134.858V135.682C127.248 135.682 127.034 135.628 126.842 135.517L105.215 123.017C104.832 122.795 104.595 122.385 104.595 121.944V121.641L127.459 134.854V134.858Z" fill="#EBEBEB"/>
<g style="mix-blend-mode:multiply" opacity="0.5">
<path d="M127.459 134.858V135.682C127.248 135.682 127.034 135.628 126.842 135.517L105.215 123.017C104.832 122.795 104.595 122.385 104.595 121.944V121.641L127.459 134.854V134.858Z" fill="#E0E0E0"/>
</g>
<path d="M127.111 135.038C126.701 135.195 126.237 135.164 125.847 134.942L104.315 122.496C103.936 122.277 103.676 121.901 103.603 121.472L101.244 107.4C101.233 107.32 101.225 107.239 101.225 107.159C101.225 106.768 101.382 106.392 101.658 106.116L124.036 119.049C124.315 119.21 124.507 119.49 124.56 119.808L127.107 135.038H127.111Z" fill="#BA68C8"/>
<g opacity="0.7">
<path d="M127.111 135.038C126.701 135.195 126.237 135.164 125.847 134.942L104.315 122.496C103.936 122.277 103.676 121.901 103.603 121.472L101.244 107.4C101.233 107.32 101.225 107.239 101.225 107.159C101.225 106.768 101.382 106.392 101.658 106.116L124.036 119.049C124.315 119.21 124.507 119.49 124.56 119.808L127.107 135.038H127.111Z" fill="white"/>
</g>
<path d="M127.459 134.858L127.313 134.942C127.248 134.981 127.183 135.011 127.111 135.038L124.564 119.809C124.51 119.49 124.319 119.214 124.039 119.05L101.662 106.116C101.75 106.028 101.849 105.955 101.96 105.89L124.384 118.85C124.664 119.011 124.855 119.291 124.909 119.609L127.463 134.862L127.459 134.858Z" fill="#FAFAFA"/>
<path d="M114.983 122.047C114.826 121.104 113.854 119.854 112.812 119.253C111.771 118.651 111.055 118.927 111.212 119.87C111.369 120.813 112.341 122.062 113.383 122.664C114.424 123.266 115.14 122.99 114.983 122.047Z" fill="#BA68C8"/>
<path d="M158.215 113.349C157.985 111.835 155.749 97.748 155.087 95.8505C154.367 93.7921 153.578 92.8299 150.396 91.8984C147.424 93.9339 148.01 100.634 148.393 102.175L150.714 113.246C150.714 113.246 147.405 114.821 144.733 116.052C142.45 117.106 140.85 118.302 138.177 118.567C135.504 118.831 134.999 118.685 132.713 119.682C131.943 120.104 131.104 120.441 130.407 120.981C129.6 121.829 128.604 122.48 127.742 123.27C127.091 123.707 127.681 124.025 128.194 124.067C129.615 124.117 130.767 123.017 132.043 122.565C131.889 123.017 131.809 123.5 131.794 123.975C131.782 124.359 131.69 124.822 132.02 125.11C132.203 125.271 132.594 125.374 132.816 125.459C132.816 125.459 132.816 125.673 132.969 125.834C133.126 125.995 133.436 126.03 133.647 126.022C133.812 126.015 134.038 125.972 134.038 125.972C134.038 126.229 134.283 126.459 134.459 126.536C135.052 126.789 135.956 126.678 136.094 126.624C136.174 126.593 136.791 126.279 136.971 126.187C137.231 126.057 137.465 125.984 137.58 125.819C137.717 125.624 137.354 125.152 137.04 125.098C136.703 125.022 136.209 125.114 135.998 125.144C136.136 124.849 136.255 124.592 136.32 124.255C136.611 123.807 138.652 124.309 140.474 124.029C141.853 123.818 142.676 122.798 143.297 122.53C147.417 120.74 152.862 119.655 155.558 118.858C158.885 117.873 158.644 116.178 158.215 113.349Z" fill="#C8856A"/>
<path d="M132.043 122.568C132.184 121.821 132.491 121.089 132.816 120.74C132.104 120.985 131.587 122.756 131.587 122.756L132.043 122.568Z" fill="#AF6152"/>
<path d="M132.816 125.466C132.747 125.091 132.774 124.707 132.805 124.336C132.835 123.96 132.9 123.588 132.973 123.216C133.053 122.852 133.134 122.473 133.302 122.124C133.471 121.783 133.67 121.434 133.999 121.231C133.861 121.357 133.766 121.518 133.681 121.683C133.593 121.844 133.517 122.013 133.459 122.185C133.337 122.53 133.264 122.891 133.191 123.259C133.115 123.623 133.046 123.991 132.977 124.355C132.912 124.723 132.847 125.091 132.824 125.466H132.816Z" fill="#AF6152"/>
<path d="M134.037 125.976C133.995 125.605 134.022 125.233 134.06 124.865C134.099 124.497 134.168 124.129 134.248 123.768C134.336 123.408 134.432 123.048 134.574 122.703C134.715 122.365 134.853 121.99 135.159 121.76C135.029 121.894 134.968 122.07 134.903 122.235C134.838 122.404 134.78 122.576 134.734 122.753C134.635 123.105 134.543 123.458 134.463 123.814C134.298 124.527 134.145 125.24 134.041 125.973L134.037 125.976Z" fill="#AF6152"/>
<path d="M137.036 125.102C136.867 125.11 136.714 125.114 136.576 125.16C136.427 125.19 136.32 125.263 136.136 125.321L136.212 125.202C136.22 125.294 136.201 125.355 136.178 125.42C136.155 125.486 136.113 125.539 136.071 125.589C135.983 125.689 135.872 125.754 135.753 125.788C135.83 125.693 135.898 125.601 135.948 125.505C135.971 125.459 135.983 125.409 135.998 125.359C136.009 125.317 136.009 125.256 136.006 125.233L135.994 125.148L136.082 125.114C136.197 125.068 136.343 125.041 136.519 125.033C136.695 125.029 136.898 125.01 137.04 125.102H137.036Z" fill="#AF6152"/>
<path d="M147.21 70.2175C150.032 69.3397 152.827 72.736 152.49 75.4729C153.708 76.4083 154.397 79.724 152.812 81.3685C153.739 83.0743 152.387 86.4131 150.059 86.7198C150.4 88.1994 148.462 90.3805 146.111 90.4802C142.963 90.6144 143.745 89.495 144.373 86.0259C144.679 84.3431 147.214 70.2175 147.214 70.2175H147.21Z" fill="#263238"/>
<path d="M137.216 94.946C134.482 94.5052 135.772 92.784 137.721 90.7907L142.044 89.5756L145.563 89.2114C145.54 90.4151 146.264 90.6681 146.957 90.9326C145.096 92.8875 140.482 95.475 137.216 94.946Z" fill="#C8856A"/>
<path d="M138.499 90.5722C137.346 93.221 135.186 93.1366 134.348 92.9756C134.007 94.6355 132.613 95.4481 131.169 96.0538C131.491 97.6944 130.3 98.7754 129.117 99.6532C129.511 100.351 129.626 100.815 129.408 101.731C129.186 102.647 127.769 104.249 128.041 105.334C126.425 103.617 126.433 101.286 127.819 99.45C127.551 97.8439 127.359 96.2378 128.853 95.2258C128.478 93.1597 129.465 91.6378 131.552 91.2852C131.598 89.6944 132.636 88.7514 134.386 88.4754C134.007 85.7078 136.833 84.6076 138.587 84.554C138.564 85.7576 138.744 88.3374 138.694 89.541L138.502 90.5722H138.499Z" fill="#263238"/>
<path d="M135.65 68.232C139.119 66.5798 144.748 67.2928 145.587 69.7538C147.091 69.52 148.286 70.4208 149.251 72.3221C150.239 74.2655 150.741 77.221 149.481 80.3451C148.137 83.6801 146.475 85.3859 145.613 86.2177L145.514 82.1353C145.15 82.1046 144.802 82.0433 144.495 81.9359C142.688 81.3111 136.745 78.7811 135.351 76.3547C135.351 76.3547 132.621 77.8228 132.617 77.8152C129.741 75.128 130.905 70.4936 135.65 68.2358V68.232Z" fill="#37474F"/>
<path d="M133.077 74.4571C132.897 75.1356 132.307 76.6267 132.407 81.2688C132.502 85.7001 133.827 87.1145 134.838 87.6972C135.604 88.138 137.25 88.3067 138.506 88.1879L138.495 91.9598C138.495 91.9598 138.235 92.623 140.949 92.8453C145.07 93.1826 145.533 91.0206 145.533 91.0206L145.64 84.3124C145.64 84.3124 146.747 85.0216 148.018 83.9521C148.776 83.3158 149.412 81.3991 148.462 80.3871C147.513 79.3752 146.483 79.6512 145.64 81.0848C145.326 81.6138 144.438 81.5065 144.277 80.8088C143.886 79.126 144.419 77.3819 142.114 76.3929C140.769 75.8179 139.104 75.0282 137.511 72.7283C135.994 73.9281 133.973 74.5912 133.077 74.4571Z" fill="#C8856A"/>
<path d="M140.249 79.4288C140.249 79.8198 139.866 80.2031 139.475 80.2031C139.085 80.2031 138.771 79.8888 138.771 79.4978C138.771 79.1068 139.085 78.7925 139.475 78.7925C139.866 78.7925 140.249 79.0416 140.249 79.4288Z" fill="#263238"/>
<path d="M135.029 79.2142C135.029 79.6052 134.715 79.9195 134.325 79.9195C133.934 79.9195 133.536 79.517 133.536 79.1299C133.536 78.7427 133.938 78.5127 134.325 78.5127C134.711 78.5127 135.029 78.827 135.029 79.218V79.2142Z" fill="#263238"/>
<path d="M139.088 83.6763L136.94 84.2283C137.082 84.8416 137.675 85.2172 138.269 85.0639C138.862 84.9106 139.23 84.2896 139.088 83.6763Z" fill="#AF6152"/>
<path d="M138.939 84.1132C138.342 84.0403 137.802 84.462 137.721 85.0561C137.894 85.106 138.081 85.1136 138.269 85.0676C138.709 84.9565 139.019 84.5847 139.1 84.1515C139.046 84.1362 138.996 84.1208 138.939 84.117V84.1132Z" fill="#FFA8A7"/>
<path d="M133.268 77.9377L134.723 77.4356C134.597 77.0254 134.172 76.8031 133.77 76.9449C133.368 77.0829 133.142 77.5314 133.268 77.9416V77.9377Z" fill="#263238"/>
<path d="M139.471 77.447L140.762 78.2903C141.011 77.9377 140.923 77.4662 140.563 77.2323C140.207 76.9985 139.716 77.0943 139.468 77.447H139.471Z" fill="#263238"/>
<path d="M137.346 78.344L136.867 82.9209L134.482 82.1198C135.232 80.8395 136.178 79.2295 137.35 78.3478L137.346 78.344Z" fill="#AF6152"/>
<path d="M138.506 88.1918C140.256 87.866 143.53 87.0725 144.101 84.5579C144.101 84.5579 144.25 85.9033 142.868 87.2642C141.42 88.6863 138.51 89.2153 138.51 89.2153V88.1956L138.506 88.1918Z" fill="#AF6152"/>
<path d="M141.145 61.4047L142.393 59.0549L141.39 56.1531V54.3745L144.464 56.1531V57.9318L143.143 60.2241C143.12 60.2624 143.09 60.2893 143.055 60.3046L141.148 61.4086L141.145 61.4047Z" fill="#BA68C8"/>
<path opacity="0.2" d="M141.145 61.4047L142.393 59.0549L141.39 56.1531V54.3745L144.464 56.1531V57.9318L143.143 60.2241C143.12 60.2624 143.09 60.2893 143.055 60.3046L141.148 61.4086L141.145 61.4047Z" fill="black"/>
<path d="M134.26 36.9332C134.26 36.3429 134.673 35.6299 135.183 35.3347L135.933 34.9015C136.442 34.6064 137.269 34.6064 137.779 34.9015L149.289 41.5676C149.799 41.8628 150.212 42.5758 150.212 43.1661V59.4115C150.212 60.0018 149.799 60.7148 149.289 61.01L148.539 61.4431C148.03 61.7383 147.202 61.7383 146.693 61.4431L142.531 59.0473L141.21 61.3358C141.125 61.4815 140.907 61.4623 140.854 61.3013L139.46 57.2725L135.179 54.7809C134.669 54.4857 134.256 53.7727 134.256 53.1824V36.9332H134.26Z" fill="#BA68C8"/>
<path opacity="0.2" d="M150.212 59.4114C150.212 60.0017 149.799 60.7147 149.289 61.0099L148.539 61.443C148.079 61.7075 147.363 61.7305 146.854 61.5159C147.287 61.6807 147.62 61.4354 147.62 60.9102V44.661C147.62 44.3658 147.516 44.04 147.352 43.7525L149.948 42.2537C150.116 42.5412 150.216 42.867 150.216 43.1621V59.4076L150.212 59.4114Z" fill="black"/>
<path opacity="0.3" d="M134.29 36.6726C134.398 36.2816 134.754 36.1551 135.179 36.4004L146.693 43.0665C146.946 43.2121 147.18 43.4613 147.344 43.7565L149.937 42.2577C149.768 41.9663 149.542 41.7133 149.286 41.5677L137.775 34.9016C137.262 34.6103 136.439 34.6103 135.929 34.9016L135.175 35.3348C134.742 35.5839 134.375 36.1436 134.287 36.6687L134.29 36.6726Z" fill="white"/>
<path d="M144.243 50.4072L141.884 51.9558V43.5495L140.348 42.6602V51.2659L138.33 47.9846L137.247 48.8049L140.884 54.4973L144.985 51.8102L144.243 50.4072Z" fill="#FAFAFA"/>
</svg>
