<svg width="170" height="165" viewBox="0 0 170 165" fill="none" xmlns="http://www.w3.org/2000/svg">
<path d="M157.819 110.81C142.054 147.93 100.06 168.725 63.6424 163.116C57.7167 162.202 41.4708 159.484 27.087 146.657C-0.601788 121.964 -6.52329 73.0683 15.8123 38.6105C32.0695 13.5311 61.2113 -0.685727 88.9013 0.0254671C94.8658 0.17892 117.724 1.12265 137.813 17.6873C140.764 20.1201 147.272 25.9017 153.137 35.0741C166.91 56.6117 168.093 86.6182 157.819 110.81Z" fill="url(#paint0_linear_309_6186)"/>
<path d="M119.545 87.1477C119.545 87.1477 119.101 68.4914 127.694 63.4977C136.287 58.5046 152.625 55.3824 153.238 28.5937C153.597 12.9103 153.985 6.05329 154.245 3.06332C154.346 1.89708 153.31 0.955707 152.159 1.17231C144.021 2.70566 117.583 9.0161 112.04 27.061C105.469 48.4534 119.545 87.1483 119.545 87.1483L119.545 87.1477Z" fill="#91B3FA"/>
<path d="M145.865 8.62536C136.932 16.5925 126.602 30.693 121.096 44.7942C120.39 47.1178 118.322 52.0601 117.425 60.8406C116.622 68.1638 117.021 75.9019 117.994 81.0243C118.055 81.3483 118.367 81.5608 118.691 81.4994C119.248 81.3938 119.174 80.7947 119.169 80.8136C118.058 72.0621 118.519 61.1687 121.064 51.3401C124.315 39.2716 131.565 27.5709 139.064 17.6472L139.836 16.6698C145.646 9.20848 146.869 9.15359 146.326 8.63362C146.198 8.51086 145.996 8.50968 145.866 8.62536H145.865Z" fill="#7D97F4"/>
<path d="M104.496 100.384C103.259 100.765 117.664 87.5461 125.174 64.4001C128.713 53.4931 130.948 39.48 138.172 35.0841C144.185 31.4255 161.785 37.1103 167.521 39.1205C168.237 39.372 168.339 40.3428 167.688 40.7347C164.481 42.6665 157.538 47.3202 155.068 52.7253C151.812 59.849 143.979 63.4711 137.435 63.7538C130.89 64.0359 127.165 64.7241 122.475 74.3804C117.785 84.0361 108.012 99.2988 104.497 100.384L104.496 100.384Z" fill="#BDD0FB"/>
<path d="M158.718 40.9583C151.134 40.0854 142.505 42.2462 137.383 48.0461L136.899 48.6003C135.777 49.9017 129.089 59.3561 124.931 67.4118C124.879 67.5121 124.919 67.6355 125.019 67.6874C125.19 67.7754 125.311 67.5918 125.291 67.6066C128.011 63.114 131.789 57.4704 134.752 53.2717C137.942 48.6835 140.157 45.5849 146.156 43.2283C152.814 40.7217 158.707 41.2853 158.69 41.2859C158.78 41.2906 158.858 41.2216 158.863 41.1307C158.867 41.0433 158.803 40.9684 158.717 40.9583H158.718Z" fill="#91B3FA"/>
<path d="M116.827 72.2578H163.015V143.499C163.015 144.142 162.492 144.664 161.849 144.664H116.828V72.2578H116.827Z" fill="url(#paint1_linear_309_6186)"/>
<path d="M164.016 71.9644H159.272V144.229H164.016V71.9644Z" fill="url(#paint2_linear_309_6186)"/>
<path d="M164.048 118.688H159.534C159.066 118.688 158.687 119.067 158.687 119.534V143.913C158.687 144.38 159.066 144.759 159.534 144.759H164.048C164.515 144.759 164.894 144.38 164.894 143.913V119.534C164.894 119.067 164.515 118.688 164.048 118.688Z" fill="url(#paint3_linear_309_6186)"/>
<path d="M165.499 137.213H158.723C158.488 137.213 158.297 137.403 158.297 137.638V145.075C158.297 145.31 158.488 145.501 158.723 145.501H165.499C165.735 145.501 165.925 145.31 165.925 145.075V137.638C165.925 137.403 165.735 137.213 165.499 137.213Z" fill="url(#paint4_linear_309_6186)"/>
<g opacity="0.89">
<path d="M132.021 93.4448H138.273C138.31 93.4448 138.34 93.4152 138.34 93.3787V82.0262C138.34 81.9897 138.31 81.9601 138.273 81.9601H132.021C131.984 81.9601 131.955 81.9897 131.955 82.0262V93.3787C131.955 93.4152 131.984 93.4448 132.021 93.4448Z" fill="white"/>
<path d="M135.431 92.8237H137.837C137.857 92.8237 137.873 92.8073 137.873 92.7871V82.6168C137.873 82.5966 137.857 82.5802 137.837 82.5802H135.431C135.411 82.5802 135.394 82.5966 135.394 82.6168V92.7871C135.394 92.8073 135.411 92.8237 135.431 92.8237Z" fill="url(#paint5_linear_309_6186)"/>
<path d="M132.457 92.8237H134.863C134.883 92.8237 134.899 92.8073 134.899 92.7871V82.6168C134.899 82.5966 134.883 82.5802 134.863 82.5802H132.457C132.437 82.5802 132.42 82.5966 132.42 82.6168V92.7871C132.42 92.8073 132.437 92.8237 132.457 92.8237Z" fill="url(#paint6_linear_309_6186)"/>
<path d="M138.273 85.7893H131.954V86.1169H138.273V85.7893Z" fill="white"/>
<path d="M138.273 89.3381H131.954V89.6657H138.273V89.3381Z" fill="white"/>
</g>
<g opacity="0.89">
<path d="M132.073 110.761H138.326C138.362 110.761 138.392 110.731 138.392 110.695V99.3423C138.392 99.3058 138.362 99.2762 138.326 99.2762H132.073C132.037 99.2762 132.007 99.3058 132.007 99.3423V110.695C132.007 110.731 132.037 110.761 132.073 110.761Z" fill="white"/>
<path d="M135.484 110.141H137.89C137.91 110.141 137.926 110.124 137.926 110.104V99.9337C137.926 99.9134 137.91 99.8971 137.89 99.8971H135.484C135.464 99.8971 135.448 99.9134 135.448 99.9337V110.104C135.448 110.124 135.464 110.141 135.484 110.141Z" fill="url(#paint7_linear_309_6186)"/>
<path d="M132.51 110.141H134.915C134.935 110.141 134.952 110.124 134.952 110.104V99.9337C134.952 99.9134 134.935 99.8971 134.915 99.8971H132.51C132.489 99.8971 132.473 99.9134 132.473 99.9337V110.104C132.473 110.124 132.489 110.141 132.51 110.141Z" fill="url(#paint8_linear_309_6186)"/>
<path d="M138.326 103.105H132.007V103.433H138.326V103.105Z" fill="white"/>
<path d="M138.326 106.654H132.007V106.981H138.326V106.654Z" fill="white"/>
</g>
<g opacity="0.89">
<path d="M132.126 129.03H138.379C138.416 129.03 138.445 129 138.445 128.963V117.611C138.445 117.574 138.416 117.545 138.379 117.545H132.126C132.09 117.545 132.06 117.574 132.06 117.611V128.963C132.06 129 132.09 129.03 132.126 129.03Z" fill="white"/>
<path d="M135.537 128.409H137.942C137.963 128.409 137.979 128.393 137.979 128.373V118.202C137.979 118.182 137.963 118.166 137.942 118.166H135.537C135.516 118.166 135.5 118.182 135.5 118.202V128.373C135.5 128.393 135.516 128.409 135.537 128.409Z" fill="url(#paint9_linear_309_6186)"/>
<path d="M132.563 128.409H134.968C134.988 128.409 135.005 128.393 135.005 128.373V118.202C135.005 118.182 134.988 118.166 134.968 118.166H132.563C132.542 118.166 132.526 118.182 132.526 118.202V128.373C132.526 128.393 132.542 128.409 132.563 128.409Z" fill="url(#paint10_linear_309_6186)"/>
<path d="M138.379 121.374H132.06V121.702H138.379V121.374Z" fill="white"/>
<path d="M138.379 124.922H132.06V125.25H138.379V124.922Z" fill="white"/>
</g>
<g opacity="0.89">
<path d="M147.646 93.2615H153.899C153.935 93.2615 153.965 93.2319 153.965 93.1954V81.8428C153.965 81.8063 153.935 81.7767 153.899 81.7767H147.646C147.61 81.7767 147.58 81.8063 147.58 81.8428V93.1954C147.58 93.2319 147.61 93.2615 147.646 93.2615Z" fill="white"/>
<path d="M151.057 92.6411H153.462C153.482 92.6411 153.499 92.6247 153.499 92.6045V82.4341C153.499 82.4139 153.482 82.3976 153.462 82.3976H151.057C151.036 82.3976 151.02 82.4139 151.02 82.4341V92.6045C151.02 92.6247 151.036 92.6411 151.057 92.6411Z" fill="url(#paint11_linear_309_6186)"/>
<path d="M148.083 92.6411H150.488C150.509 92.6411 150.525 92.6247 150.525 92.6045V82.4341C150.525 82.4139 150.509 82.3976 150.488 82.3976H148.083C148.062 82.3976 148.046 82.4139 148.046 82.4341V92.6045C148.046 92.6247 148.062 92.6411 148.083 92.6411Z" fill="url(#paint12_linear_309_6186)"/>
<path d="M153.899 85.606H147.58V85.9335H153.899V85.606Z" fill="white"/>
<path d="M153.899 89.1541H147.58V89.4816H153.899V89.1541Z" fill="white"/>
</g>
<g opacity="0.89">
<path d="M147.699 110.772H153.952C153.988 110.772 154.018 110.743 154.018 110.706V99.3536C154.018 99.3171 153.988 99.2875 153.952 99.2875H147.699C147.663 99.2875 147.633 99.3171 147.633 99.3536V110.706C147.633 110.743 147.663 110.772 147.699 110.772Z" fill="white"/>
<path d="M151.11 110.151H153.516C153.536 110.151 153.552 110.135 153.552 110.115V99.9442C153.552 99.924 153.536 99.9076 153.516 99.9076H151.11C151.09 99.9076 151.073 99.924 151.073 99.9442V110.115C151.073 110.135 151.09 110.151 151.11 110.151Z" fill="url(#paint13_linear_309_6186)"/>
<path d="M148.135 110.151H150.541C150.561 110.151 150.578 110.135 150.578 110.115V99.9442C150.578 99.924 150.561 99.9076 150.541 99.9076H148.135C148.115 99.9076 148.099 99.924 148.099 99.9442V110.115C148.099 110.135 148.115 110.151 148.135 110.151Z" fill="url(#paint14_linear_309_6186)"/>
<path d="M153.952 103.117H147.633V103.444H153.952V103.117Z" fill="white"/>
<path d="M153.952 106.665H147.633V106.993H153.952V106.665Z" fill="white"/>
</g>
<g opacity="0.89">
<path d="M147.752 129.041H154.005C154.041 129.041 154.071 129.011 154.071 128.974V117.622C154.071 117.585 154.041 117.556 154.005 117.556H147.752C147.716 117.556 147.686 117.585 147.686 117.622V128.974C147.686 129.011 147.716 129.041 147.752 129.041Z" fill="white"/>
<path d="M151.163 128.42H153.569C153.589 128.42 153.605 128.404 153.605 128.383V118.213C153.605 118.193 153.589 118.176 153.569 118.176H151.163C151.143 118.176 151.126 118.193 151.126 118.213V128.383C151.126 128.404 151.143 128.42 151.163 128.42Z" fill="url(#paint15_linear_309_6186)"/>
<path d="M148.188 128.42H150.594C150.614 128.42 150.631 128.404 150.631 128.383V118.213C150.631 118.193 150.614 118.176 150.594 118.176H148.188C148.168 118.176 148.152 118.193 148.152 118.213V128.383C148.152 128.404 148.168 128.42 148.188 128.42Z" fill="url(#paint16_linear_309_6186)"/>
<path d="M154.004 121.385H147.685V121.713H154.004V121.385Z" fill="white"/>
<path d="M154.004 124.933H147.685V125.261H154.004V124.933Z" fill="white"/>
</g>
<path d="M167.904 74.8392H119.7L93.4972 56.4443H157.583L169.803 73.2964C170.447 74.0164 169.434 74.8392 167.905 74.8392H167.904Z" fill="url(#paint17_linear_309_6186)"/>
<path d="M157.837 57.3428L95.1975 58.2428L93.5308 55.2977L153.447 54.7258C155.694 54.7258 157.516 55.4376 157.516 56.3152L157.837 57.3428Z" fill="url(#paint18_linear_309_6186)"/>
<path d="M53.1727 145.238H8.15149C7.50817 145.238 6.98584 144.716 6.98584 144.073L6.98584 72.88H53.1727L53.1727 145.238Z" fill="url(#paint19_linear_309_6186)"/>
<path d="M5.98432 145.415H10.7278L10.7278 72.5862H5.98432L5.98432 145.415Z" fill="url(#paint20_linear_309_6186)"/>
<path d="M5.57467 145.949H10.844C11.1028 145.949 11.3126 145.739 11.3126 145.48L11.3126 120.142C11.3126 119.884 11.1028 119.674 10.844 119.674H5.57467C5.31586 119.674 5.10605 119.884 5.10605 120.142L5.10605 145.48C5.10605 145.739 5.31586 145.949 5.57467 145.949Z" fill="url(#paint21_linear_309_6186)"/>
<path d="M4.50052 146.697H11.2772C11.5122 146.697 11.7028 146.506 11.7028 146.271L11.7028 138.77C11.7028 138.535 11.5122 138.344 11.2772 138.344H4.50052C4.2655 138.344 4.07498 138.535 4.07498 138.77L4.07498 146.271C4.07498 146.506 4.2655 146.697 4.50052 146.697Z" fill="url(#paint22_linear_309_6186)"/>
<g opacity="0.89">
<path d="M37.9791 82.5818H31.7265C31.69 82.5818 31.6604 82.6114 31.6604 82.6479V94.0004C31.6604 94.0369 31.69 94.0665 31.7265 94.0665H37.9791C38.0156 94.0665 38.0452 94.0369 38.0452 94.0004V82.6479C38.0452 82.6114 38.0156 82.5818 37.9791 82.5818Z" fill="white"/>
<path d="M34.5684 83.2026H32.1627C32.1425 83.2026 32.1261 83.219 32.1261 83.2392V93.4096C32.1261 93.4298 32.1425 93.4462 32.1627 93.4462H34.5684C34.5886 93.4462 34.6049 93.4298 34.6049 93.4096V83.2392C34.6049 83.219 34.5886 83.2026 34.5684 83.2026Z" fill="url(#paint23_linear_309_6186)"/>
<path d="M37.543 83.2026H35.1373C35.1171 83.2026 35.1007 83.219 35.1007 83.2392V93.4096C35.1007 93.4298 35.1171 93.4462 35.1373 93.4462H37.543C37.5632 93.4462 37.5796 93.4298 37.5796 93.4096V83.2392C37.5796 83.219 37.5632 83.2026 37.543 83.2026Z" fill="url(#paint24_linear_309_6186)"/>
<path d="M31.7266 86.739H38.0453V86.4114H31.7266V86.739Z" fill="white"/>
<path d="M31.7266 90.2874H38.0453V89.9598H31.7266V90.2874Z" fill="white"/>
</g>
<g opacity="0.89">
<path d="M37.9266 99.8977H31.674C31.6375 99.8977 31.6079 99.9273 31.6079 99.9638V111.316C31.6079 111.353 31.6375 111.382 31.674 111.382H37.9266C37.9631 111.382 37.9927 111.353 37.9927 111.316V99.9638C37.9927 99.9273 37.9631 99.8977 37.9266 99.8977Z" fill="white"/>
<path d="M34.5159 100.519H32.1102C32.09 100.519 32.0736 100.535 32.0736 100.555V110.726C32.0736 110.746 32.09 110.762 32.1102 110.762H34.5159C34.5361 110.762 34.5525 110.746 34.5525 110.726V100.555C34.5525 100.535 34.5361 100.519 34.5159 100.519Z" fill="url(#paint25_linear_309_6186)"/>
<path d="M37.4905 100.519H35.0848C35.0646 100.519 35.0482 100.535 35.0482 100.555V110.726C35.0482 110.746 35.0646 110.762 35.0848 110.762H37.4905C37.5107 110.762 37.5271 110.746 37.5271 110.726V100.555C37.5271 100.535 37.5107 100.519 37.4905 100.519Z" fill="url(#paint26_linear_309_6186)"/>
<path d="M31.674 104.055H37.9927V103.727H31.674V104.055Z" fill="white"/>
<path d="M31.674 107.604H37.9927V107.276H31.674V107.604Z" fill="white"/>
</g>
<g opacity="0.89">
<path d="M37.8735 118.166H31.6209C31.5844 118.166 31.5548 118.196 31.5548 118.232V129.585C31.5548 129.621 31.5844 129.651 31.6209 129.651H37.8735C37.91 129.651 37.9396 129.621 37.9396 129.585V118.232C37.9396 118.196 37.91 118.166 37.8735 118.166Z" fill="white"/>
<path d="M34.4628 118.787H32.0571C32.0369 118.787 32.0205 118.803 32.0205 118.824V128.994C32.0205 129.014 32.0369 129.031 32.0571 129.031H34.4628C34.483 129.031 34.4994 129.014 34.4994 128.994V118.824C34.4994 118.803 34.483 118.787 34.4628 118.787Z" fill="url(#paint27_linear_309_6186)"/>
<path d="M37.4374 118.787H35.0317C35.0115 118.787 34.9951 118.803 34.9951 118.824V128.994C34.9951 129.014 35.0115 129.031 35.0317 129.031H37.4374C37.4576 129.031 37.474 129.014 37.474 128.994V118.824C37.474 118.803 37.4576 118.787 37.4374 118.787Z" fill="url(#paint28_linear_309_6186)"/>
<path d="M31.6209 122.323H37.9396V121.995H31.6209V122.323Z" fill="white"/>
<path d="M31.6209 125.872H37.9396V125.545H31.6209V125.872Z" fill="white"/>
</g>
<g opacity="0.89">
<path d="M22.3535 82.3982H16.1009C16.0644 82.3982 16.0348 82.4278 16.0348 82.4643V93.8168C16.0348 93.8533 16.0644 93.8829 16.1009 93.8829H22.3535C22.39 93.8829 22.4196 93.8533 22.4196 93.8168V82.4643C22.4196 82.4278 22.39 82.3982 22.3535 82.3982Z" fill="white"/>
<path d="M18.9427 83.019H16.5371C16.5169 83.019 16.5005 83.0354 16.5005 83.0556V93.226C16.5005 93.2462 16.5169 93.2626 16.5371 93.2626H18.9427C18.963 93.2626 18.9793 93.2462 18.9793 93.226V83.0556C18.9793 83.0354 18.963 83.019 18.9427 83.019Z" fill="url(#paint29_linear_309_6186)"/>
<path d="M21.918 83.0188H19.5123C19.4921 83.0188 19.4757 83.0352 19.4757 83.0554V93.2258C19.4757 93.246 19.4921 93.2624 19.5123 93.2624H21.918C21.9382 93.2624 21.9546 93.246 21.9546 93.2258V83.0554C21.9546 83.0352 21.9382 83.0188 21.918 83.0188Z" fill="url(#paint30_linear_309_6186)"/>
<path d="M16.1015 86.5549H22.4202V86.2274H16.1015V86.5549Z" fill="white"/>
<path d="M16.1015 90.1038H22.4202V89.7762H16.1015V90.1038Z" fill="white"/>
</g>
<g opacity="0.89">
<path d="M22.301 99.9089H16.0484C16.0119 99.9089 15.9823 99.9385 15.9823 99.975V111.328C15.9823 111.364 16.0119 111.394 16.0484 111.394H22.301C22.3375 111.394 22.3671 111.364 22.3671 111.328V99.975C22.3671 99.9385 22.3375 99.9089 22.301 99.9089Z" fill="white"/>
<path d="M18.8903 100.53H16.4846C16.4644 100.53 16.448 100.546 16.448 100.566V110.737C16.448 110.757 16.4644 110.773 16.4846 110.773H18.8903C18.9105 110.773 18.9268 110.757 18.9268 110.737V100.566C18.9268 100.546 18.9105 100.53 18.8903 100.53Z" fill="url(#paint31_linear_309_6186)"/>
<path d="M21.8649 100.53H19.4592C19.439 100.53 19.4226 100.546 19.4226 100.566V110.737C19.4226 110.757 19.439 110.773 19.4592 110.773H21.8649C21.8851 110.773 21.9015 110.757 21.9015 110.737V100.566C21.9015 100.546 21.8851 100.53 21.8649 100.53Z" fill="url(#paint32_linear_309_6186)"/>
<path d="M16.049 104.066H22.3677V103.738H16.049V104.066Z" fill="white"/>
<path d="M16.049 107.614H22.3677V107.286H16.049V107.614Z" fill="white"/>
</g>
<g opacity="0.89">
<path d="M22.2479 118.177H15.9953C15.9588 118.177 15.9292 118.207 15.9292 118.244V129.596C15.9292 129.633 15.9588 129.662 15.9953 129.662H22.2479C22.2844 129.662 22.314 129.633 22.314 129.596V118.244C22.314 118.207 22.2844 118.177 22.2479 118.177Z" fill="white"/>
<path d="M18.8372 118.798H16.4315C16.4113 118.798 16.3949 118.815 16.3949 118.835V129.005C16.3949 129.026 16.4113 129.042 16.4315 129.042H18.8372C18.8574 129.042 18.8737 129.026 18.8737 129.005V118.835C18.8737 118.815 18.8574 118.798 18.8372 118.798Z" fill="url(#paint33_linear_309_6186)"/>
<path d="M21.8124 118.798H19.4067C19.3865 118.798 19.3701 118.815 19.3701 118.835V129.005C19.3701 129.026 19.3865 129.042 19.4067 129.042H21.8124C21.8326 129.042 21.849 129.026 21.849 129.005V118.835C21.849 118.815 21.8326 118.798 21.8124 118.798Z" fill="url(#paint34_linear_309_6186)"/>
<path d="M15.9959 122.334H22.3146V122.007H15.9959V122.334Z" fill="white"/>
<path d="M15.9959 125.883H22.3146V125.555H15.9959V125.883Z" fill="white"/>
</g>
<path d="M2.09602 75.4614H50.3002L76.5029 58.5273H12.4169L0.196746 74.0408C-0.446575 74.7036 0.566213 75.4614 2.09543 75.4614H2.09602Z" fill="url(#paint35_linear_309_6186)"/>
<path d="M11.7281 58.4956L74.3681 59.3957L76.0349 56.4506L16.1187 55.8787C13.8712 55.8787 12.0492 56.5904 12.0492 57.4681L11.7281 58.4956Z" fill="url(#paint36_linear_309_6186)"/>
<path d="M123.178 73.4287H44.8568V145.238H123.178V73.4287Z" fill="url(#paint37_linear_309_6186)"/>
<path d="M125.811 72.6038H121.068V144.93H125.811V72.6038Z" fill="url(#paint38_linear_309_6186)"/>
<path d="M125.843 119.366H121.329C120.862 119.366 120.483 119.745 120.483 120.213V144.613C120.483 145.081 120.862 145.46 121.329 145.46H125.843C126.311 145.46 126.689 145.081 126.689 144.613V120.213C126.689 119.745 126.311 119.366 125.843 119.366Z" fill="url(#paint39_linear_309_6186)"/>
<path d="M120.518 137.907H127.295C127.529 137.907 127.72 138.098 127.72 138.333V145.777C127.72 146.012 127.529 146.203 127.295 146.203H120.518C120.283 146.203 120.092 146.012 120.092 145.777V138.333C120.092 138.098 120.283 137.907 120.518 137.907Z" fill="url(#paint40_linear_309_6186)"/>
<path d="M41.6738 73.1625L127.292 73.4581C127.902 73.4605 128.136 72.6643 127.623 72.3356L86.0599 45.7151L41.4123 72.2028C40.962 72.4701 41.1503 73.1601 41.6738 73.1625Z" fill="url(#paint41_linear_309_6186)"/>
<path d="M44.8568 73.614L123.178 73.4287L86.06 49.1814L44.8568 73.614Z" fill="url(#paint42_linear_309_6186)"/>
<path d="M49.6003 72.6038H44.8568V144.665H49.6003V72.6038Z" fill="url(#paint43_linear_309_6186)"/>
<path d="M49.8457 119.102H44.9045C44.5551 119.102 44.2719 119.385 44.2719 119.734V144.562C44.2719 144.912 44.5551 145.195 44.9045 145.195H49.8457C50.1952 145.195 50.4784 144.912 50.4784 144.562V119.734C50.4784 119.385 50.1952 119.102 49.8457 119.102Z" fill="url(#paint44_linear_309_6186)"/>
<path d="M51.0841 137.643H44.3074C44.0724 137.643 43.8818 137.833 43.8818 138.068V145.512C43.8818 145.747 44.0724 145.938 44.3074 145.938H51.0841C51.3191 145.938 51.5096 145.747 51.5096 145.512V138.068C51.5096 137.833 51.3191 137.643 51.0841 137.643Z" fill="url(#paint45_linear_309_6186)"/>
<path d="M74.3113 74.7136H69.5679V147.039H74.3113V74.7136Z" fill="url(#paint46_linear_309_6186)"/>
<path d="M74.7393 121.476H69.4322C69.1838 121.476 68.9824 121.677 68.9824 121.926V147.12C68.9824 147.368 69.1838 147.569 69.4322 147.569H74.7393C74.9876 147.569 75.189 147.368 75.189 147.12V121.926C75.189 121.677 74.9876 121.476 74.7393 121.476Z" fill="url(#paint47_linear_309_6186)"/>
<path d="M75.7946 140.017H69.0179C68.7829 140.017 68.5924 140.208 68.5924 140.443V147.886C68.5924 148.121 68.7829 148.312 69.0179 148.312H75.7946C76.0297 148.312 76.2202 148.121 76.2202 147.886V140.443C76.2202 140.208 76.0297 140.017 75.7946 140.017Z" fill="url(#paint48_linear_309_6186)"/>
<path d="M103.67 74.3726H98.927V146.698H103.67V74.3726Z" fill="url(#paint49_linear_309_6186)"/>
<path d="M104.139 121.135H98.7512C98.5249 121.135 98.3416 121.319 98.3416 121.545V146.819C98.3416 147.046 98.5249 147.229 98.7512 147.229H104.139C104.365 147.229 104.548 147.046 104.548 146.819V121.545C104.548 121.319 104.365 121.135 104.139 121.135Z" fill="url(#paint50_linear_309_6186)"/>
<path d="M105.154 139.677H98.3769C98.1419 139.677 97.9514 139.867 97.9514 140.102V147.546C97.9514 147.781 98.1419 147.971 98.3769 147.971H105.154C105.389 147.971 105.579 147.781 105.579 147.546V140.102C105.579 139.867 105.389 139.677 105.154 139.677Z" fill="url(#paint51_linear_309_6186)"/>
<g opacity="0.89">
<path d="M56.8273 129.223H63.0799C63.1164 129.223 63.146 129.193 63.146 129.157V116.633C63.146 116.597 63.1164 116.567 63.0799 116.567H56.8273C56.7908 116.567 56.7612 116.597 56.7612 116.633V129.157C56.7612 129.193 56.7908 129.223 56.8273 129.223Z" fill="white"/>
<path d="M60.238 128.539H62.6437C62.6639 128.539 62.6803 128.522 62.6803 128.502V117.288C62.6803 117.268 62.6639 117.252 62.6437 117.252H60.238C60.2178 117.252 60.2014 117.268 60.2014 117.288V128.502C60.2014 128.522 60.2178 128.539 60.238 128.539Z" fill="url(#paint52_linear_309_6186)"/>
<path d="M57.2634 128.539H59.6691C59.6893 128.539 59.7057 128.522 59.7057 128.502V117.288C59.7057 117.268 59.6893 117.252 59.6691 117.252H57.2634C57.2432 117.252 57.2268 117.268 57.2268 117.288V128.502C57.2268 128.522 57.2432 128.539 57.2634 128.539Z" fill="url(#paint53_linear_309_6186)"/>
<path d="M63.0793 120.786H56.7606V121.148H63.0793V120.786Z" fill="white"/>
<path d="M63.0793 124.697H56.7606V125.058H63.0793V124.697Z" fill="white"/>
</g>
<g opacity="0.89">
<path d="M56.6762 112.063H62.9288C62.9653 112.063 62.9949 112.033 62.9949 111.997V99.4734C62.9949 99.4369 62.9653 99.4073 62.9288 99.4073H56.6762C56.6397 99.4073 56.6101 99.4369 56.6101 99.4734V111.997C56.6101 112.033 56.6397 112.063 56.6762 112.063Z" fill="white"/>
<path d="M60.0877 111.379H62.4933C62.5135 111.379 62.5299 111.363 62.5299 111.342V100.128C62.5299 100.108 62.5135 100.092 62.4933 100.092H60.0877C60.0674 100.092 60.0511 100.108 60.0511 100.128V111.342C60.0511 111.363 60.0674 111.379 60.0877 111.379Z" fill="url(#paint54_linear_309_6186)"/>
<path d="M57.113 111.379H59.5187C59.5389 111.379 59.5553 111.363 59.5553 111.342V100.128C59.5553 100.108 59.5389 100.092 59.5187 100.092H57.113C57.0928 100.092 57.0764 100.108 57.0764 100.128V111.342C57.0764 111.363 57.0928 111.379 57.113 111.379Z" fill="url(#paint55_linear_309_6186)"/>
<path d="M62.9294 103.627H56.6107V103.988H62.9294V103.627Z" fill="white"/>
<path d="M62.9294 107.538H56.6107V107.899H62.9294V107.538Z" fill="white"/>
</g>
<g opacity="0.89">
<path d="M109.6 128.955H115.852C115.889 128.955 115.918 128.925 115.918 128.888V116.365C115.918 116.328 115.889 116.299 115.852 116.299H109.6C109.563 116.299 109.534 116.328 109.534 116.365V128.888C109.534 128.925 109.563 128.955 109.6 128.955Z" fill="white"/>
<path d="M113.01 128.271H115.416C115.436 128.271 115.453 128.254 115.453 128.234V117.02C115.453 117 115.436 116.983 115.416 116.983H113.01C112.99 116.983 112.974 117 112.974 117.02V128.234C112.974 128.254 112.99 128.271 113.01 128.271Z" fill="url(#paint56_linear_309_6186)"/>
<path d="M110.036 128.271H112.441C112.462 128.271 112.478 128.254 112.478 128.234V117.02C112.478 117 112.462 116.983 112.441 116.983H110.036C110.016 116.983 109.999 117 109.999 117.02V128.234C109.999 128.254 110.016 128.271 110.036 128.271Z" fill="url(#paint57_linear_309_6186)"/>
<path d="M115.852 120.519H109.534V120.88H115.852V120.519Z" fill="white"/>
<path d="M115.852 124.429H109.534V124.79H115.852V124.429Z" fill="white"/>
</g>
<g opacity="0.89">
<path d="M109.449 111.795H115.702C115.738 111.795 115.768 111.765 115.768 111.729V99.2053C115.768 99.1688 115.738 99.1392 115.702 99.1392H109.449C109.413 99.1392 109.383 99.1688 109.383 99.2053V111.729C109.383 111.765 109.413 111.795 109.449 111.795Z" fill="white"/>
<path d="M112.86 111.111H115.266C115.286 111.111 115.302 111.094 115.302 111.074V99.8604C115.302 99.8402 115.286 99.8238 115.266 99.8238H112.86C112.84 99.8238 112.823 99.8402 112.823 99.8604V111.074C112.823 111.094 112.84 111.111 112.86 111.111Z" fill="url(#paint58_linear_309_6186)"/>
<path d="M109.885 111.111H112.291C112.311 111.111 112.328 111.094 112.328 111.074V99.8604C112.328 99.8402 112.311 99.8238 112.291 99.8238H109.885C109.865 99.8238 109.849 99.8402 109.849 99.8604V111.074C109.849 111.094 109.865 111.111 109.885 111.111Z" fill="url(#paint59_linear_309_6186)"/>
<path d="M115.702 103.359H109.383V103.72H115.702V103.359Z" fill="white"/>
<path d="M115.702 107.269H109.383V107.63H115.702V107.269Z" fill="white"/>
</g>
<path d="M86.0783 66.8097C88.3959 66.8097 90.2746 64.9309 90.2746 62.6133C90.2746 60.2958 88.3959 58.417 86.0783 58.417C83.7607 58.417 81.882 60.2958 81.882 62.6133C81.882 64.9309 83.7607 66.8097 86.0783 66.8097Z" fill="url(#paint60_linear_309_6186)"/>
<path d="M86.0783 66.1947C88.0562 66.1947 89.6596 64.5913 89.6596 62.6133C89.6596 60.6354 88.0562 59.032 86.0783 59.032C84.1004 59.032 82.4969 60.6354 82.4969 62.6133C82.4969 64.5913 84.1004 66.1947 86.0783 66.1947Z" fill="url(#paint61_linear_309_6186)"/>
<path d="M94.2633 144.454H79.4374V123.591C80.7736 115.407 93.7917 115.694 94.2633 123.591V144.454Z" fill="url(#paint62_linear_309_6186)"/>
<path d="M93.2917 144.454H80.4093V124.673C81.5702 116.913 92.8826 117.185 93.2917 124.673V144.454Z" fill="url(#paint63_linear_309_6186)"/>
<path d="M79.0153 142.013H94.7543C94.8576 142.013 94.9414 142.097 94.9414 142.2V143.977H78.8282V142.2C78.8282 142.097 78.9121 142.013 79.0153 142.013Z" fill="url(#paint64_linear_309_6186)"/>
<path d="M79.0153 143.263H94.7543C94.8576 143.263 94.9414 143.347 94.9414 143.45V145.228H78.8282V143.45C78.8282 143.347 78.9121 143.263 79.0153 143.263Z" fill="url(#paint65_linear_309_6186)"/>
<path d="M109.395 94.8879H115.561C115.621 94.8879 115.67 94.8389 115.67 94.7781V82.2322C115.604 78.2631 109.554 78.1657 109.286 82.2322V94.7781C109.286 94.8389 109.335 94.8879 109.395 94.8879H109.395Z" fill="white"/>
<path d="M112.763 94.2041H115.168C115.188 94.2041 115.205 94.1877 115.205 94.1675V82.9537C115.205 82.9335 115.188 82.9171 115.168 82.9171H112.763C112.742 82.9171 112.726 82.9335 112.726 82.9537V94.1675C112.726 94.1877 112.742 94.2041 112.763 94.2041Z" fill="url(#paint66_linear_309_6186)"/>
<path d="M109.788 94.2041H112.194C112.214 94.2041 112.23 94.1877 112.23 94.1675V82.9537C112.23 82.9335 112.214 82.9171 112.194 82.9171H109.788C109.768 82.9171 109.751 82.9335 109.751 82.9537V94.1675C109.751 94.1877 109.768 94.2041 109.788 94.2041Z" fill="url(#paint67_linear_309_6186)"/>
<path d="M115.604 86.4521H109.286V86.8134H115.604V86.4521Z" fill="white"/>
<path d="M115.604 90.3623H109.286V90.7235H115.604V90.3623Z" fill="white"/>
<path d="M109.782 82.5628C109.928 78.8699 115.098 78.6651 115.244 82.5628H109.782Z" fill="url(#paint68_linear_309_6186)"/>
<path d="M77.1096 94.8879H83.2754C83.3362 94.8879 83.3852 94.8389 83.3852 94.7781V82.2322C83.3185 78.2631 77.2689 78.1657 77.0004 82.2322V94.7781C77.0004 94.8389 77.0494 94.8879 77.1101 94.8879H77.1096Z" fill="white"/>
<path d="M80.4773 94.2041H82.883C82.9032 94.2041 82.9196 94.1877 82.9196 94.1675V82.9537C82.9196 82.9335 82.9032 82.9171 82.883 82.9171H80.4773C80.4571 82.9171 80.4407 82.9335 80.4407 82.9537V94.1675C80.4407 94.1877 80.4571 94.2041 80.4773 94.2041Z" fill="url(#paint69_linear_309_6186)"/>
<path d="M77.5027 94.2041H79.9084C79.9286 94.2041 79.9449 94.1877 79.9449 94.1675V82.9537C79.9449 82.9335 79.9286 82.9171 79.9084 82.9171H77.5027C77.4825 82.9171 77.4661 82.9335 77.4661 82.9537V94.1675C77.4661 94.1877 77.4825 94.2041 77.5027 94.2041Z" fill="url(#paint70_linear_309_6186)"/>
<path d="M83.3191 86.4521H77.0004V86.8134H83.3191V86.4521Z" fill="white"/>
<path d="M83.3191 90.3623H77.0004V90.7235H83.3191V90.3623Z" fill="white"/>
<path d="M77.4967 82.5628C77.6431 78.8699 82.8127 78.6651 82.959 82.5628H77.4967Z" fill="url(#paint71_linear_309_6186)"/>
<path d="M89.0092 94.8879H95.1751C95.2358 94.8879 95.2848 94.8389 95.2848 94.7781V82.2322C95.2181 78.2631 89.1686 78.1657 88.9 82.2322V94.7781C88.9 94.8389 88.949 94.8879 89.0098 94.8879H89.0092Z" fill="white"/>
<path d="M92.377 94.2041H94.7826C94.8028 94.2041 94.8192 94.1877 94.8192 94.1675V82.9537C94.8192 82.9335 94.8028 82.9171 94.7826 82.9171H92.377C92.3567 82.9171 92.3404 82.9335 92.3404 82.9537V94.1675C92.3404 94.1877 92.3567 94.2041 92.377 94.2041Z" fill="url(#paint72_linear_309_6186)"/>
<path d="M89.4017 94.2041H91.8074C91.8276 94.2041 91.844 94.1877 91.844 94.1675V82.9537C91.844 82.9335 91.8276 82.9171 91.8074 82.9171H89.4017C89.3815 82.9171 89.3651 82.9335 89.3651 82.9537V94.1675C89.3651 94.1877 89.3815 94.2041 89.4017 94.2041Z" fill="url(#paint73_linear_309_6186)"/>
<path d="M95.2187 86.4521H88.9V86.8134H95.2187V86.4521Z" fill="white"/>
<path d="M95.2187 90.3623H88.9V90.7235H95.2187V90.3623Z" fill="white"/>
<path d="M89.3965 82.5628C89.5429 78.8699 94.7124 78.6651 94.8588 82.5628H89.3965Z" fill="url(#paint74_linear_309_6186)"/>
<path d="M56.9196 94.8879H63.0855C63.1457 94.8879 63.1952 94.8389 63.1952 94.7781V82.2322C63.1285 78.2631 57.079 78.1657 56.8104 82.2322V94.7781C56.8104 94.8389 56.8594 94.8879 56.9202 94.8879H56.9196Z" fill="white"/>
<path d="M60.287 94.2041H62.6927C62.7129 94.2041 62.7292 94.1877 62.7292 94.1675V82.9537C62.7292 82.9335 62.7129 82.9171 62.6927 82.9171H60.287C60.2668 82.9171 60.2504 82.9335 60.2504 82.9537V94.1675C60.2504 94.1877 60.2668 94.2041 60.287 94.2041Z" fill="url(#paint75_linear_309_6186)"/>
<path d="M57.3124 94.2041H59.718C59.7383 94.2041 59.7546 94.1877 59.7546 94.1675V82.9537C59.7546 82.9335 59.7383 82.9171 59.718 82.9171H57.3124C57.2922 82.9171 57.2758 82.9335 57.2758 82.9537V94.1675C57.2758 94.1877 57.2922 94.2041 57.3124 94.2041Z" fill="url(#paint76_linear_309_6186)"/>
<path d="M63.1283 86.4521H56.8096V86.8134H63.1283V86.4521Z" fill="white"/>
<path d="M63.1283 90.3623H56.8096V90.7235H63.1283V90.3623Z" fill="white"/>
<path d="M57.3065 82.5628C57.4529 78.8699 62.6225 78.6651 62.7688 82.5628H57.3065Z" fill="url(#paint77_linear_309_6186)"/>
<path d="M41.0099 74.5437H127.905V77.1117C127.905 77.6429 127.473 78.0743 126.942 78.0743H41.9719C41.4407 78.0743 41.0093 77.6429 41.0093 77.1117V74.5437H41.0099Z" fill="url(#paint78_linear_309_6186)"/>
<path d="M128.29 72.6038H41.0293C40.8543 72.6038 40.7124 72.7457 40.7124 72.9207V74.6134C40.7124 74.7884 40.8543 74.9303 41.0293 74.9303H128.29C128.465 74.9303 128.607 74.7884 128.607 74.6134V72.9207C128.607 72.7457 128.465 72.6038 128.29 72.6038Z" fill="url(#paint79_linear_309_6186)"/>
<path d="M21.2492 53.7912L5.95642 51.7426L10.5352 61.3552C11.0174 62.3479 11.9505 62.9806 12.9125 62.9653C21.716 62.8213 29.3267 60.8524 34.7105 55.478C35.2015 54.9881 35.4595 54.261 35.4282 53.486L34.9389 42.5791C34.9389 42.5791 21.4528 53.8118 21.2492 53.7918V53.7912Z" fill="url(#paint80_linear_309_6186)"/>
<path d="M0.315923 49.8816L18.6146 37.5305C18.7645 37.3983 40.5754 35.8484 40.5754 35.8484C41.4141 35.8956 41.8207 37.1161 41.1756 37.652L23.4625 52.7341C22.3559 53.6766 20.9051 54.1122 19.4621 53.9357L0.900224 51.6682C0.0886955 51.5879 -0.293756 50.4187 0.315923 49.8816Z" fill="url(#paint81_linear_309_6186)"/>
<path d="M39.5714 42.7126C39.5714 42.7126 37.3003 50.2312 42.68 52.6877C42.8736 52.7762 43.0755 52.6576 43.1038 52.4351L43.5695 48.7758C43.9153 46.0591 39.5714 42.7126 39.5714 42.7126Z" fill="url(#paint82_linear_309_6186)"/>
<path d="M39.8871 43.6875L39.4504 43.8374L38.0581 39.7844L38.7882 39.2202L39.8871 43.6875Z" fill="url(#paint83_linear_309_6186)"/>
<path d="M20.24 52.6834C20.1119 52.6834 19.9838 52.6769 19.8558 52.6633L0.429237 50.6271C0.316508 50.6153 0.23506 50.5144 0.246864 50.4017C0.258668 50.2895 0.354871 50.204 0.472322 50.2193L19.8983 52.2555C20.7853 52.347 21.6931 52.0731 22.3795 51.4995L40.2951 36.5337C40.3818 36.4611 40.5111 36.4729 40.5843 36.5597C40.6569 36.6464 40.6456 36.7757 40.5583 36.8489L22.6427 51.8146C21.9699 52.3765 21.1117 52.684 20.24 52.684V52.6834Z" fill="#BDD0FB"/>
<path d="M38.1561 159.411C38.1561 159.411 37.9159 160.771 37.7985 162.116C37.7525 162.642 38.1579 163.098 38.685 163.12C40.4762 163.195 44.3084 163.34 45.6836 163.278C45.8902 163.269 46.0253 163.058 45.9492 162.865C45.8849 162.704 45.7615 162.574 45.6039 162.502L39.274 159.593L38.1561 159.412V159.411Z" fill="url(#paint84_linear_309_6186)"/>
<path d="M37.9596 158.613L38.1526 160.238C38.1526 160.238 39.2616 160.755 40.0188 160.173L39.5596 158.362L37.9596 158.613Z" fill="url(#paint85_linear_309_6186)"/>
<path d="M38.1042 128.051C38.021 128.475 37.6568 149.235 39.876 158.538C39.912 158.69 39.8353 158.847 39.6907 158.906C39.3501 159.045 38.6832 159.246 37.8835 159.273C37.6356 159.281 37.4137 159.12 37.344 158.883C36.7096 156.724 33.67 145.909 33.2734 135.578C32.8302 124.035 33.2734 135.185 33.2734 135.185L33.5331 128.05H38.1036L38.1042 128.051Z" fill="url(#paint86_linear_309_6186)"/>
<path d="M30.8742 160.12C30.8742 160.12 30.4917 160.806 30.1222 162.629C30.0556 162.959 30.2857 163.274 30.6198 163.306C31.2112 163.365 32.1219 163.439 32.8513 163.434C33.1878 163.432 33.4498 163.139 33.4097 162.805C33.3288 162.139 33.0774 161.048 32.2995 160.197L30.8742 160.12V160.12Z" fill="url(#paint87_linear_309_6186)"/>
<path d="M30.5391 158.029L30.99 160.487C30.99 160.487 31.4356 160.819 32.3173 160.578L32.1019 157.933L30.5391 158.028V158.029Z" fill="url(#paint88_linear_309_6186)"/>
<path d="M29.3215 128.688C27.5066 139.641 29.7151 155.76 30.46 158.914C30.5054 159.107 30.6612 159.256 30.8572 159.288C31.1895 159.343 31.7372 159.388 32.2766 159.231C32.4625 159.178 32.593 159.009 32.6006 158.816C32.7004 156.266 32.5209 140.608 34.2119 134.42C34.2975 134.107 34.4893 133.833 34.7543 133.645L38.0364 131.311L38.2878 127.539L29.3209 128.688H29.3215Z" fill="url(#paint89_linear_309_6186)"/>
<path d="M40.8858 107.935C35.4471 107.845 29.4459 109.363 29.4459 109.363C27.8247 118.823 29.1626 129.734 29.1626 129.734C33.3731 130.838 38.1231 129.058 38.1231 129.058C38.8231 125.105 42.0881 113.977 42.0881 113.977C44.7458 113.647 46.9348 112.88 48.7373 111.867C47.3621 110.273 46.7141 108.245 46.4326 107.046C44.5097 107.644 42.5638 107.962 40.8864 107.935H40.8858Z" fill="url(#paint90_linear_309_6186)"/>
<path d="M56.9511 99.9231C56.4169 99.278 55.7406 99.5831 55.7406 99.5831C54.9402 102.964 50.7433 105.705 46.4319 107.045C46.7134 108.244 47.3615 110.272 48.7366 111.866C55.8922 107.843 56.9511 99.9231 56.9511 99.9231Z" fill="url(#paint91_linear_309_6186)"/>
<path d="M56.8219 100.087C56.878 100.265 56.2306 100.536 55.8493 99.8086C55.8357 99.4604 55.6238 97.9678 55.8322 97.6839C56.9406 96.1724 59.0901 94.2778 59.0901 94.2778C59.4537 94.6361 59.1538 94.9884 59.1538 94.9884L58.1109 96.075C58.3293 96.4693 58.5949 96.8015 58.72 97.2784C58.8145 97.6396 58.7566 98.025 58.5743 98.3538C58.3913 98.6837 58.1416 99.1122 57.9056 99.4474C57.4588 100.082 56.8214 100.087 56.8214 100.087H56.8219Z" fill="url(#paint92_linear_309_6186)"/>
<path d="M57.6552 96.7795L56.705 97.5852L56.4064 98.3873L57.2539 99.3269C57.2539 99.3269 57.539 97.7357 57.7503 97.391C57.9621 97.0463 57.8524 96.8799 57.6552 96.7795Z" fill="url(#paint93_linear_309_6186)"/>
<path d="M31.5318 114.629L29.4454 109.362C29.4454 109.362 24.3649 112.814 23.5298 117.191C24.4895 117.262 26.2365 117.511 27.9463 118.375C28.3222 116.308 31.5318 114.629 31.5318 114.629V114.629Z" fill="url(#paint94_linear_309_6186)"/>
<path d="M35.9713 119.585C35.9713 119.585 30.2675 122.808 28.3429 120.056C27.9433 119.484 27.8477 118.916 27.9463 118.375C26.2365 117.511 24.49 117.261 23.5298 117.191C23.2778 118.51 23.4112 119.913 24.1861 121.332C27.5573 127.499 36.7255 120.991 36.7255 120.991L35.9707 119.585H35.9713Z" fill="url(#paint95_linear_309_6186)"/>
<path d="M38.8131 113.342L49.6291 112.482L48.418 111.218L38.2512 112.57L38.8131 113.342Z" fill="white"/>
<path d="M35.6254 124.084L38.7381 113.213C38.7735 113.089 38.8786 112.999 39.0061 112.984C39.5703 112.919 41.2046 112.734 43.0915 112.574C45.3643 112.382 48.0037 112.226 49.5813 112.359C49.8056 112.377 49.9414 112.615 49.8416 112.817C48.9445 114.631 45.2552 122.013 43.4078 124.431C43.3464 124.511 43.252 124.557 43.1511 124.556L35.9288 124.489C35.7187 124.487 35.5682 124.285 35.626 124.084H35.6254Z" fill="url(#paint96_linear_309_6186)"/>
<path d="M37.8687 112.375L48.3684 111.07C48.5071 111.053 48.6446 111.112 48.7284 111.223C48.785 111.299 48.739 111.408 48.6452 111.42L38.1024 112.728L37.8687 112.375Z" fill="url(#paint97_linear_309_6186)"/>
<path d="M39.0067 112.984L35.7192 124.408L34.5447 123.687C34.4184 123.61 34.36 123.456 34.4031 123.314L37.7082 112.44C37.7289 112.372 37.8068 112.34 37.8694 112.374L39.0067 112.984V112.984Z" fill="url(#paint98_linear_309_6186)"/>
<path d="M34.6356 122.24C34.4391 122.168 34.965 119.751 35.3834 119.207C35.7836 118.687 36.0008 117.912 37.1304 118.092C38.2601 118.273 39.5927 118.749 39.5927 118.749C39.5927 118.749 39.5255 119.573 38.6667 119.307L39.1991 119.719C39.1991 119.719 39.1229 120.379 38.3976 120.026L38.8928 120.573C38.8928 120.573 38.6443 120.99 38.0476 120.767C35.3687 119.77 36.1483 122.455 34.6356 122.24Z" fill="url(#paint99_linear_309_6186)"/>
<path d="M35.3769 103.519L33.6464 108.523C33.6175 108.607 33.6517 108.698 33.7285 108.741C34.2 109.002 35.8998 109.755 37.9478 108.457C38.1609 108.322 38.3067 108.101 38.3385 107.85L38.8992 103.519H35.3769Z" fill="url(#paint100_linear_309_6186)"/>
<path d="M39.1424 98.8844C39.1424 98.8844 41.0428 102.462 40.7991 103.906C40.5553 105.351 38.2004 105.248 36.1436 104.074L34.7064 100.211L39.1424 98.8838V98.8844Z" fill="url(#paint101_linear_309_6186)"/>
<path d="M36.2345 102.177C36.3183 102.14 36.349 102.038 36.2988 101.961C36.1465 101.729 35.8615 101.254 35.77 100.839C35.77 100.839 35.4283 100.62 36.6394 100.33C37.8505 100.04 39.6565 99.5897 40.036 98.5592C40.406 97.5541 39.4334 95.0262 37.8823 97.0406C37.8233 97.1173 37.7076 97.1191 37.6486 97.0424C37.3942 96.7113 36.7255 96.0243 35.7971 96.441C34.9284 96.8305 34.8304 97.4673 34.8422 97.7884C34.8457 97.8828 34.7613 97.956 34.6687 97.9383C34.2296 97.8545 33.1755 97.7825 32.6832 98.8637C32.2778 99.7543 32.5416 100.258 32.7812 100.505C32.8591 100.585 32.8249 100.716 32.718 100.749C32.4294 100.838 32.0564 101.083 32.0942 101.759C32.1456 102.694 33.1914 102.612 33.4889 102.568C33.5378 102.561 33.5868 102.578 33.6199 102.614C33.8748 102.897 35.0252 104.096 36.2693 104.24C36.3773 104.253 36.4605 104.147 36.4251 104.044L35.8863 102.478C35.8615 102.406 35.8963 102.326 35.9665 102.295L36.2339 102.177L36.2345 102.177Z" fill="url(#paint102_linear_309_6186)"/>
<path d="M36.451 102.4C36.451 102.4 35.0977 101.471 34.9991 102.253C34.9006 103.035 36.2173 103.386 36.8701 103.094L36.451 102.4Z" fill="url(#paint103_linear_309_6186)"/>
<path d="M81.5449 158.756H163.219V142.409H81.5449C83.2931 142.409 83.2931 158.756 81.5449 158.756Z" fill="#91B3FA"/>
<path d="M163.22 154.665V147.184C163.22 144.547 161.605 142.408 159.615 142.408H81.8897C80.3238 142.408 79.0549 141.139 79.0549 139.574C79.0549 139.098 79.4403 138.712 79.916 138.712H164.863C166.812 138.712 169.904 141.776 169.904 145.553V156.002C169.904 159.564 166.901 162.452 165.065 162.452H80.3628C79.6404 162.452 79.0543 161.867 79.0543 161.144C79.0543 159.825 80.1238 158.756 81.4423 158.756H160.131C161.837 158.756 163.22 156.924 163.22 154.665Z" fill="url(#paint104_linear_309_6186)"/>
<path d="M160.954 145.968H84.3737C84.2604 145.968 84.1683 145.877 84.1683 145.763C84.1683 145.649 84.2598 145.558 84.3737 145.558H160.954C161.068 145.558 161.16 145.649 161.16 145.763C161.16 145.877 161.068 145.968 160.954 145.968Z" fill="url(#paint105_linear_309_6186)"/>
<path d="M160.954 148.395H84.3737C84.2604 148.395 84.1683 148.303 84.1683 148.189C84.1683 148.075 84.2598 147.984 84.3737 147.984H160.954C161.068 147.984 161.16 148.075 161.16 148.189C161.16 148.303 161.068 148.395 160.954 148.395Z" fill="url(#paint106_linear_309_6186)"/>
<path d="M160.954 150.821H84.3737C84.2604 150.821 84.1683 150.729 84.1683 150.616C84.1683 150.502 84.2598 150.41 84.3737 150.41H160.954C161.068 150.41 161.16 150.502 161.16 150.616C161.16 150.729 161.068 150.821 160.954 150.821Z" fill="url(#paint107_linear_309_6186)"/>
<path d="M160.954 153.247H84.3737C84.2604 153.247 84.1683 153.156 84.1683 153.042C84.1683 152.928 84.2598 152.836 84.3737 152.836H160.954C161.068 152.836 161.16 152.928 161.16 153.042C161.16 153.156 161.068 153.247 160.954 153.247Z" fill="url(#paint108_linear_309_6186)"/>
<path d="M160.954 155.674H84.3737C84.2604 155.674 84.1683 155.582 84.1683 155.468C84.1683 155.354 84.2598 155.263 84.3737 155.263H160.954C161.068 155.263 161.16 155.354 161.16 155.468C161.16 155.582 161.068 155.674 160.954 155.674Z" fill="url(#paint109_linear_309_6186)"/>
<path d="M97.9066 140.102H162.695C163.158 140.102 163.534 139.726 163.534 139.263V124.897C163.534 124.434 163.158 124.058 162.695 124.058H97.9066C97.4434 124.058 97.0679 124.434 97.0679 124.897V139.263C97.0679 139.726 97.4434 140.102 97.9066 140.102Z" fill="url(#paint110_linear_309_6186)"/>
<path d="M154.537 125.902H149.7C148.879 125.902 148.214 126.567 148.214 127.388V136.772C148.214 137.593 148.879 138.258 149.7 138.258H154.537C155.358 138.258 156.023 137.593 156.023 136.772V127.388C156.023 126.567 155.358 125.902 154.537 125.902Z" fill="#7D97F4"/>
<path d="M144.889 125.902H146.313C146.729 125.902 147.066 126.24 147.066 126.655V137.505C147.066 137.921 146.729 138.259 146.313 138.259H144.889C144.474 138.259 144.136 137.921 144.136 137.505V126.655C144.136 126.24 144.474 125.902 144.889 125.902Z" fill="#7D97F4"/>
<path d="M119.205 91.8817C119.205 91.8817 119.208 92.5339 121.314 92.4931C122.489 92.4701 124.668 92.214 125.898 94.0519C126.534 95.0009 127.691 95.4341 128.777 95.08C131.482 94.1994 136.008 93.5531 138.824 97.6002C140.974 100.689 139.913 102.806 138.353 104.14C137.208 105.119 136.979 106.829 137.909 108.015C138.801 109.154 139.161 110.808 137.55 113.071C133.943 118.142 124.63 111.878 124.63 111.878L115.934 97.128L119.204 91.8811L119.205 91.8817Z" fill="url(#paint111_linear_309_6186)"/>
<path d="M136.665 102.521C136.638 102.521 136.611 102.515 136.585 102.501C136.572 102.495 136.567 102.479 136.574 102.467C136.581 102.455 136.596 102.449 136.608 102.456C136.724 102.516 136.851 102.37 136.908 102.273C137.67 100.962 137.505 99.1312 136.508 97.8209C135.911 97.0359 135.106 96.5059 134.241 96.3277C133.627 96.2008 132.995 96.2522 132.4 96.3147C131.393 96.4215 130.38 96.5791 129.389 96.7827C129.308 96.7993 129.227 96.8164 129.147 96.8335C128.564 96.9557 127.961 97.0826 127.356 97.0843H127.345C126.57 97.0843 125.891 96.8589 125.432 96.4493C125.146 96.1943 124.934 95.862 124.729 95.5416C124.482 95.1562 124.227 94.7572 123.847 94.5028C123.835 94.4951 123.832 94.4792 123.839 94.4674C123.847 94.4556 123.863 94.4526 123.875 94.4603C124.264 94.7206 124.522 95.1237 124.772 95.5138C124.976 95.8319 125.186 96.1607 125.466 96.4109C125.916 96.8123 126.583 97.0324 127.345 97.0324H127.356C127.956 97.0306 128.556 96.9043 129.137 96.7827C129.217 96.7656 129.298 96.7491 129.378 96.7326C130.372 96.5284 131.386 96.3702 132.395 96.2634C132.993 96.1996 133.629 96.1489 134.251 96.2769C135.128 96.4575 135.944 96.9946 136.549 97.789C137.558 99.1158 137.724 100.97 136.952 102.298C136.882 102.419 136.773 102.521 136.665 102.521V102.521Z" fill="#BDD0FB"/>
<path d="M136.678 101.89H136.675C136.659 101.887 136.65 101.873 136.653 101.86C136.816 100.992 136.75 100.185 136.46 99.5243C136.122 98.7541 135.458 98.1887 134.725 98.0482C134.711 98.0452 134.702 98.0323 134.705 98.0181C134.707 98.0039 134.72 97.9963 134.735 97.9974C135.483 98.1414 136.162 98.7187 136.506 99.5036C136.8 100.174 136.868 100.992 136.703 101.869C136.701 101.882 136.69 101.89 136.678 101.89Z" fill="#BDD0FB"/>
<path d="M95.3593 138.222C95.3805 138.214 106.932 117.985 108.492 116.081C108.755 115.761 109.161 115.598 109.573 115.647L112.797 116.031L116.585 124.225L110.275 120.55C110.899 124.868 102.793 131.285 100.013 133.627C99.7309 133.865 99.7079 134.291 99.9623 134.557L101.072 135.72C99.2505 137.566 97.1476 138.753 94.7744 139.301L95.3593 138.221V138.222Z" fill="url(#paint112_linear_309_6186)"/>
<path d="M100.43 135.093C100.43 135.093 101.139 135.322 101.379 135.953C101.493 136.254 101.37 136.597 101.107 136.784C99.9411 137.62 96.0936 140.318 94.3182 140.846C94.1724 140.889 94.0343 140.758 94.0668 140.609C94.1577 140.197 94.4528 139.374 95.4018 138.168L95.3168 138.34C95.2088 138.558 95.4467 138.785 95.6586 138.666C96.8461 137.995 99.2647 136.528 100.431 135.093L100.43 135.093Z" fill="url(#paint113_linear_309_6186)"/>
<path d="M99.8584 143.187C99.8778 143.175 101.611 138.999 101.63 138.986C103.219 129.312 107.096 121.027 108.239 118.846C108.432 118.48 108.796 118.238 109.209 118.202L112.444 117.926L117.811 125.184L110.888 122.862C112.374 126.965 105.734 134.89 103.485 137.746C103.257 138.036 103.32 138.457 103.624 138.667L104.946 139.58C103.535 141.757 101.716 143.344 99.5031 144.361L99.8578 143.186L99.8584 143.187Z" fill="url(#paint114_linear_309_6186)"/>
<path d="M104.191 139.096C104.191 139.096 104.931 139.177 105.294 139.746C105.467 140.018 105.415 140.378 105.196 140.615C104.223 141.67 101.001 145.09 99.3698 145.967C99.2358 146.039 99.0735 145.938 99.0758 145.787C99.0817 145.364 99.2033 144.498 99.8891 143.125L99.8407 143.311C99.7794 143.546 100.058 143.72 100.241 143.56C101.268 142.663 103.34 140.737 104.191 139.095V139.096Z" fill="url(#paint115_linear_309_6186)"/>
<path d="M127.588 116.398C127.588 116.398 130.515 120.751 130.755 122.737C130.995 124.722 129.946 125.409 126.883 125.663C117.767 126.416 113.274 123.684 113.274 123.684C112.65 119.709 112.207 118.697 106.999 116.535C106.999 116.535 113.586 117.058 114.911 116.543C116.237 116.029 127.588 116.398 127.588 116.398H127.588Z" fill="url(#paint116_linear_309_6186)"/>
<path d="M119.673 115.822C119.673 115.822 116.265 112.577 114.588 110.427C113.681 109.265 113.396 107.736 113.816 106.323C114.582 103.743 115.943 101.07 116.067 100.654C116.257 100.017 120.078 100.043 120.078 100.043C120.078 100.043 127.598 104.924 130.552 113.19L127.234 114.223C127.234 114.223 125.271 110.929 123.331 108.835C123.331 108.835 126.688 113.27 126.806 115.085L119.674 115.822L119.673 115.822Z" fill="url(#paint117_linear_309_6186)"/>
<path d="M115.604 97.0908C115.645 97.2236 116.642 100.53 116.72 100.598C116.798 100.667 118.907 100.78 119.9 100.102L117.874 95.6194L115.605 97.0908H115.604Z" fill="url(#paint118_linear_309_6186)"/>
<path d="M113.18 117.102L115.741 114.316L118.698 115.112C118.698 115.112 122.146 115.646 124.12 115.112L126.093 114.578L130.553 113.19L131.254 115.169C131.431 115.671 131.252 116.23 130.818 116.539C130.432 116.812 129.98 117.114 129.692 117.24C129.105 117.497 116.164 117.322 116.164 117.322L113.181 117.103L113.18 117.102Z" fill="url(#paint119_linear_309_6186)"/>
<path d="M121.656 118.205C121.648 118.205 121.638 118.205 121.629 118.205L109.851 118.192C109.56 118.192 109.324 117.956 109.324 117.665C109.324 117.373 109.561 117.133 109.852 117.138L121.63 117.151C121.921 117.151 122.157 117.388 122.157 117.679C122.157 117.961 121.935 118.191 121.656 118.205Z" fill="url(#paint120_linear_309_6186)"/>
<path d="M99.2624 107.511H109.072C109.795 107.511 110.454 107.929 110.762 108.583L115.298 118.198H103.108C102.641 118.198 102.222 117.913 102.051 117.479L98.5346 108.581C98.3316 108.067 98.7105 107.51 99.263 107.51L99.2624 107.511Z" fill="url(#paint121_linear_309_6186)"/>
<path d="M106.173 112.441C106.385 113.102 106.228 113.743 105.822 113.874C105.416 114.005 104.915 113.575 104.702 112.915C104.489 112.254 104.646 111.613 105.052 111.482C105.458 111.351 105.96 111.781 106.173 112.441Z" fill="#7D97F4"/>
<path d="M113.72 92.6024C113.72 92.6024 112.825 94.2071 113.421 96.8436C114.018 99.48 115.39 99.8424 116.337 99.3006C117.284 98.7588 118.542 97.7472 118.917 95.4513C119.292 93.1548 114.934 90.5809 113.72 92.6024Z" fill="url(#paint122_linear_309_6186)"/>
<path d="M117.209 95.1272C117.209 95.1272 116.015 91.5199 113.487 93.438L113.219 94.3086C113.219 94.3086 111.081 93.4598 112.005 91.5381C112.93 89.6164 115.174 88.858 117.399 90.3878C119.623 91.9176 120.792 93.1913 120.483 94.9944C120.174 96.7974 118.875 96.039 118.875 96.039C118.875 96.039 118.748 94.6774 118.132 94.3758C117.517 94.0743 117.429 95.0864 117.429 95.0864L117.209 95.1278V95.1272Z" fill="url(#paint123_linear_309_6186)"/>
<path d="M117.735 95.636C117.735 95.636 117.111 93.7851 118.241 93.8347C119.372 93.8837 118.737 95.6083 118.447 96.2315L117.735 95.6366V95.636Z" fill="url(#paint124_linear_309_6186)"/>
<defs>
<linearGradient id="paint0_linear_309_6186" x1="178.55" y1="166.242" x2="56.5682" y2="59.5078" gradientUnits="userSpaceOnUse">
<stop stop-color="#DAE3FE"/>
<stop offset="1" stop-color="#E9EFFD"/>
</linearGradient>
<linearGradient id="paint1_linear_309_6186" x1="170.723" y1="32.9303" x2="128.461" y2="135.918" gradientUnits="userSpaceOnUse">
<stop stop-color="#FF928E"/>
<stop offset="1" stop-color="#FE7062"/>
</linearGradient>
<linearGradient id="paint2_linear_309_6186" x1="151.841" y1="116.038" x2="93.0841" y2="163.633" gradientUnits="userSpaceOnUse">
<stop stop-color="#FF928E"/>
<stop offset="1" stop-color="#FE7062"/>
</linearGradient>
<linearGradient id="paint3_linear_309_6186" x1="151.27" y1="138.64" x2="255.116" y2="70.3701" gradientUnits="userSpaceOnUse">
<stop stop-color="#FF928E"/>
<stop offset="1" stop-color="#FE7062"/>
</linearGradient>
<linearGradient id="paint4_linear_309_6186" x1="156.02" y1="145.361" x2="256.289" y2="79.4433" gradientUnits="userSpaceOnUse">
<stop stop-color="#FF928E"/>
<stop offset="1" stop-color="#FE7062"/>
</linearGradient>
<linearGradient id="paint5_linear_309_6186" x1="137.426" y1="77.7936" x2="135.851" y2="97.5034" gradientUnits="userSpaceOnUse">
<stop stop-color="#FF928E"/>
<stop offset="1" stop-color="#FE7062"/>
</linearGradient>
<linearGradient id="paint6_linear_309_6186" x1="134.473" y1="77.5192" x2="132.899" y2="97.2284" gradientUnits="userSpaceOnUse">
<stop stop-color="#FF928E"/>
<stop offset="1" stop-color="#FE7062"/>
</linearGradient>
<linearGradient id="paint7_linear_309_6186" x1="137.478" y1="95.1099" x2="135.904" y2="114.819" gradientUnits="userSpaceOnUse">
<stop stop-color="#FF928E"/>
<stop offset="1" stop-color="#FE7062"/>
</linearGradient>
<linearGradient id="paint8_linear_309_6186" x1="134.526" y1="94.8349" x2="132.951" y2="114.545" gradientUnits="userSpaceOnUse">
<stop stop-color="#FF928E"/>
<stop offset="1" stop-color="#FE7062"/>
</linearGradient>
<linearGradient id="paint9_linear_309_6186" x1="137.532" y1="113.379" x2="135.957" y2="133.088" gradientUnits="userSpaceOnUse">
<stop stop-color="#FF928E"/>
<stop offset="1" stop-color="#FE7062"/>
</linearGradient>
<linearGradient id="paint10_linear_309_6186" x1="134.579" y1="113.104" x2="133.004" y2="132.814" gradientUnits="userSpaceOnUse">
<stop stop-color="#FF928E"/>
<stop offset="1" stop-color="#FE7062"/>
</linearGradient>
<linearGradient id="paint11_linear_309_6186" x1="153.051" y1="77.6104" x2="151.477" y2="97.3197" gradientUnits="userSpaceOnUse">
<stop stop-color="#FF928E"/>
<stop offset="1" stop-color="#FE7062"/>
</linearGradient>
<linearGradient id="paint12_linear_309_6186" x1="150.099" y1="77.3354" x2="148.524" y2="97.0452" gradientUnits="userSpaceOnUse">
<stop stop-color="#FF928E"/>
<stop offset="1" stop-color="#FE7062"/>
</linearGradient>
<linearGradient id="paint13_linear_309_6186" x1="153.104" y1="95.121" x2="151.53" y2="114.83" gradientUnits="userSpaceOnUse">
<stop stop-color="#FF928E"/>
<stop offset="1" stop-color="#FE7062"/>
</linearGradient>
<linearGradient id="paint14_linear_309_6186" x1="150.151" y1="94.846" x2="148.577" y2="114.556" gradientUnits="userSpaceOnUse">
<stop stop-color="#FF928E"/>
<stop offset="1" stop-color="#FE7062"/>
</linearGradient>
<linearGradient id="paint15_linear_309_6186" x1="153.157" y1="113.39" x2="151.583" y2="133.099" gradientUnits="userSpaceOnUse">
<stop stop-color="#FF928E"/>
<stop offset="1" stop-color="#FE7062"/>
</linearGradient>
<linearGradient id="paint16_linear_309_6186" x1="150.204" y1="113.115" x2="148.63" y2="132.825" gradientUnits="userSpaceOnUse">
<stop stop-color="#FF928E"/>
<stop offset="1" stop-color="#FE7062"/>
</linearGradient>
<linearGradient id="paint17_linear_309_6186" x1="184.121" y1="92.7388" x2="74.8072" y2="27.6094" gradientUnits="userSpaceOnUse">
<stop stop-color="#E1473D"/>
<stop offset="1" stop-color="#E9605A"/>
</linearGradient>
<linearGradient id="paint18_linear_309_6186" x1="127.647" y1="50.6918" x2="149.393" y2="-11.6761" gradientUnits="userSpaceOnUse">
<stop stop-color="#E1473D"/>
<stop offset="1" stop-color="#E9605A"/>
</linearGradient>
<linearGradient id="paint19_linear_309_6186" x1="27.9728" y1="30.4232" x2="32.4637" y2="196.866" gradientUnits="userSpaceOnUse">
<stop stop-color="#FF928E"/>
<stop offset="1" stop-color="#FE7062"/>
</linearGradient>
<linearGradient id="paint20_linear_309_6186" x1="18.2304" y1="116.999" x2="77.4112" y2="164.938" gradientUnits="userSpaceOnUse">
<stop stop-color="#FF928E"/>
<stop offset="1" stop-color="#FE7062"/>
</linearGradient>
<linearGradient id="paint21_linear_309_6186" x1="18.9546" y1="139.875" x2="-87.1072" y2="70.1499" gradientUnits="userSpaceOnUse">
<stop stop-color="#FF928E"/>
<stop offset="1" stop-color="#FE7062"/>
</linearGradient>
<linearGradient id="paint22_linear_309_6186" x1="14.0004" y1="146.538" x2="-86.6049" y2="80.3993" gradientUnits="userSpaceOnUse">
<stop stop-color="#FF928E"/>
<stop offset="1" stop-color="#FE7062"/>
</linearGradient>
<linearGradient id="paint23_linear_309_6186" x1="32.5747" y1="78.4155" x2="34.1487" y2="98.1253" gradientUnits="userSpaceOnUse">
<stop stop-color="#FF928E"/>
<stop offset="1" stop-color="#FE7062"/>
</linearGradient>
<linearGradient id="paint24_linear_309_6186" x1="35.5274" y1="78.1411" x2="37.1015" y2="97.8509" gradientUnits="userSpaceOnUse">
<stop stop-color="#FF928E"/>
<stop offset="1" stop-color="#FE7062"/>
</linearGradient>
<linearGradient id="paint25_linear_309_6186" x1="32.5216" y1="95.7314" x2="34.0962" y2="115.441" gradientUnits="userSpaceOnUse">
<stop stop-color="#FF928E"/>
<stop offset="1" stop-color="#FE7062"/>
</linearGradient>
<linearGradient id="paint26_linear_309_6186" x1="35.4743" y1="95.457" x2="37.049" y2="115.166" gradientUnits="userSpaceOnUse">
<stop stop-color="#FF928E"/>
<stop offset="1" stop-color="#FE7062"/>
</linearGradient>
<linearGradient id="paint27_linear_309_6186" x1="32.4691" y1="114" x2="34.0431" y2="133.709" gradientUnits="userSpaceOnUse">
<stop stop-color="#FF928E"/>
<stop offset="1" stop-color="#FE7062"/>
</linearGradient>
<linearGradient id="paint28_linear_309_6186" x1="35.4218" y1="113.726" x2="36.9959" y2="133.435" gradientUnits="userSpaceOnUse">
<stop stop-color="#FF928E"/>
<stop offset="1" stop-color="#FE7062"/>
</linearGradient>
<linearGradient id="paint29_linear_309_6186" x1="16.949" y1="78.2319" x2="18.5231" y2="97.9411" gradientUnits="userSpaceOnUse">
<stop stop-color="#FF928E"/>
<stop offset="1" stop-color="#FE7062"/>
</linearGradient>
<linearGradient id="paint30_linear_309_6186" x1="19.9018" y1="77.9572" x2="21.4759" y2="97.6665" gradientUnits="userSpaceOnUse">
<stop stop-color="#FF928E"/>
<stop offset="1" stop-color="#FE7062"/>
</linearGradient>
<linearGradient id="paint31_linear_309_6186" x1="16.896" y1="95.7427" x2="18.4706" y2="115.452" gradientUnits="userSpaceOnUse">
<stop stop-color="#FF928E"/>
<stop offset="1" stop-color="#FE7062"/>
</linearGradient>
<linearGradient id="paint32_linear_309_6186" x1="19.8487" y1="95.4682" x2="21.4234" y2="115.177" gradientUnits="userSpaceOnUse">
<stop stop-color="#FF928E"/>
<stop offset="1" stop-color="#FE7062"/>
</linearGradient>
<linearGradient id="paint33_linear_309_6186" x1="16.8435" y1="114.011" x2="18.4175" y2="133.721" gradientUnits="userSpaceOnUse">
<stop stop-color="#FF928E"/>
<stop offset="1" stop-color="#FE7062"/>
</linearGradient>
<linearGradient id="paint34_linear_309_6186" x1="19.7962" y1="113.737" x2="21.3703" y2="133.446" gradientUnits="userSpaceOnUse">
<stop stop-color="#FF928E"/>
<stop offset="1" stop-color="#FE7062"/>
</linearGradient>
<linearGradient id="paint35_linear_309_6186" x1="-13.6476" y1="93.8091" x2="94.6179" y2="29.3046" gradientUnits="userSpaceOnUse">
<stop stop-color="#E1473D"/>
<stop offset="1" stop-color="#E9605A"/>
</linearGradient>
<linearGradient id="paint36_linear_309_6186" x1="47.2837" y1="50.3585" x2="80.109" y2="-15.7017" gradientUnits="userSpaceOnUse">
<stop stop-color="#E1473D"/>
<stop offset="1" stop-color="#E9605A"/>
</linearGradient>
<linearGradient id="paint37_linear_309_6186" x1="96.2404" y1="-25.1192" x2="85.5725" y2="92.2308" gradientUnits="userSpaceOnUse">
<stop stop-color="#FF928E"/>
<stop offset="1" stop-color="#FE7062"/>
</linearGradient>
<linearGradient id="paint38_linear_309_6186" x1="113.628" y1="116.714" x2="54.8259" y2="164.346" gradientUnits="userSpaceOnUse">
<stop stop-color="#FF928E"/>
<stop offset="1" stop-color="#FE7062"/>
</linearGradient>
<linearGradient id="paint39_linear_309_6186" x1="113.059" y1="139.334" x2="216.972" y2="71.0203" gradientUnits="userSpaceOnUse">
<stop stop-color="#FF928E"/>
<stop offset="1" stop-color="#FE7062"/>
</linearGradient>
<linearGradient id="paint40_linear_309_6186" x1="117.814" y1="146.06" x2="218.119" y2="80.1187" gradientUnits="userSpaceOnUse">
<stop stop-color="#FF928E"/>
<stop offset="1" stop-color="#FE7062"/>
</linearGradient>
<linearGradient id="paint41_linear_309_6186" x1="81.526" y1="-46.5035" x2="82.7566" y2="2.32399" gradientUnits="userSpaceOnUse">
<stop stop-color="#E1473D"/>
<stop offset="1" stop-color="#E9605A"/>
</linearGradient>
<linearGradient id="paint42_linear_309_6186" x1="105.385" y1="-19.9597" x2="92.2548" y2="37.4842" gradientUnits="userSpaceOnUse">
<stop stop-color="#FF928E"/>
<stop offset="1" stop-color="#FE7062"/>
</linearGradient>
<linearGradient id="paint43_linear_309_6186" x1="37.4509" y1="116.555" x2="-21.1526" y2="164.026" gradientUnits="userSpaceOnUse">
<stop stop-color="#FF928E"/>
<stop offset="1" stop-color="#FE7062"/>
</linearGradient>
<linearGradient id="paint44_linear_309_6186" x1="36.7562" y1="139.129" x2="141.574" y2="70.221" gradientUnits="userSpaceOnUse">
<stop stop-color="#FF928E"/>
<stop offset="1" stop-color="#FE7062"/>
</linearGradient>
<linearGradient id="paint45_linear_309_6186" x1="41.6025" y1="145.795" x2="141.908" y2="79.8543" gradientUnits="userSpaceOnUse">
<stop stop-color="#FF928E"/>
<stop offset="1" stop-color="#FE7062"/>
</linearGradient>
<linearGradient id="paint46_linear_309_6186" x1="62.1284" y1="118.824" x2="3.32589" y2="166.456" gradientUnits="userSpaceOnUse">
<stop stop-color="#FF928E"/>
<stop offset="1" stop-color="#FE7062"/>
</linearGradient>
<linearGradient id="paint47_linear_309_6186" x1="61.3883" y1="141.555" x2="166.981" y2="72.1379" gradientUnits="userSpaceOnUse">
<stop stop-color="#FF928E"/>
<stop offset="1" stop-color="#FE7062"/>
</linearGradient>
<linearGradient id="paint48_linear_309_6186" x1="66.3136" y1="148.17" x2="166.618" y2="82.2285" gradientUnits="userSpaceOnUse">
<stop stop-color="#FF928E"/>
<stop offset="1" stop-color="#FE7062"/>
</linearGradient>
<linearGradient id="paint49_linear_309_6186" x1="91.4875" y1="118.483" x2="32.685" y2="166.115" gradientUnits="userSpaceOnUse">
<stop stop-color="#FF928E"/>
<stop offset="1" stop-color="#FE7062"/>
</linearGradient>
<linearGradient id="paint50_linear_309_6186" x1="90.7303" y1="141.226" x2="196.494" y2="71.6966" gradientUnits="userSpaceOnUse">
<stop stop-color="#FF928E"/>
<stop offset="1" stop-color="#FE7062"/>
</linearGradient>
<linearGradient id="paint51_linear_309_6186" x1="95.6726" y1="147.83" x2="195.977" y2="81.8882" gradientUnits="userSpaceOnUse">
<stop stop-color="#FF928E"/>
<stop offset="1" stop-color="#FE7062"/>
</linearGradient>
<linearGradient id="paint52_linear_309_6186" x1="62.3114" y1="111.995" x2="60.5792" y2="133.676" gradientUnits="userSpaceOnUse">
<stop stop-color="#FF928E"/>
<stop offset="1" stop-color="#FE7062"/>
</linearGradient>
<linearGradient id="paint53_linear_309_6186" x1="59.3604" y1="111.693" x2="57.6288" y2="133.374" gradientUnits="userSpaceOnUse">
<stop stop-color="#FF928E"/>
<stop offset="1" stop-color="#FE7062"/>
</linearGradient>
<linearGradient id="paint54_linear_309_6186" x1="62.161" y1="94.8355" x2="60.4294" y2="116.517" gradientUnits="userSpaceOnUse">
<stop stop-color="#FF928E"/>
<stop offset="1" stop-color="#FE7062"/>
</linearGradient>
<linearGradient id="paint55_linear_309_6186" x1="59.2106" y1="94.5333" x2="57.4784" y2="116.215" gradientUnits="userSpaceOnUse">
<stop stop-color="#FF928E"/>
<stop offset="1" stop-color="#FE7062"/>
</linearGradient>
<linearGradient id="paint56_linear_309_6186" x1="115.084" y1="111.727" x2="113.352" y2="133.408" gradientUnits="userSpaceOnUse">
<stop stop-color="#FF928E"/>
<stop offset="1" stop-color="#FE7062"/>
</linearGradient>
<linearGradient id="paint57_linear_309_6186" x1="112.133" y1="111.425" x2="110.401" y2="133.106" gradientUnits="userSpaceOnUse">
<stop stop-color="#FF928E"/>
<stop offset="1" stop-color="#FE7062"/>
</linearGradient>
<linearGradient id="paint58_linear_309_6186" x1="114.933" y1="94.5675" x2="113.202" y2="116.249" gradientUnits="userSpaceOnUse">
<stop stop-color="#FF928E"/>
<stop offset="1" stop-color="#FE7062"/>
</linearGradient>
<linearGradient id="paint59_linear_309_6186" x1="111.983" y1="94.2653" x2="110.251" y2="115.946" gradientUnits="userSpaceOnUse">
<stop stop-color="#FF928E"/>
<stop offset="1" stop-color="#FE7062"/>
</linearGradient>
<linearGradient id="paint60_linear_309_6186" x1="86.3262" y1="60.5305" x2="89.0618" y2="37.5533" gradientUnits="userSpaceOnUse">
<stop stop-color="#FEBBBA"/>
<stop offset="1" stop-color="#FF928E"/>
</linearGradient>
<linearGradient id="paint61_linear_309_6186" x1="91.0986" y1="52.3892" x2="81.915" y2="71.0928" gradientUnits="userSpaceOnUse">
<stop stop-color="#E1473D"/>
<stop offset="1" stop-color="#E9605A"/>
</linearGradient>
<linearGradient id="paint62_linear_309_6186" x1="80.6461" y1="177.64" x2="94.1865" y2="82.4478" gradientUnits="userSpaceOnUse">
<stop stop-color="#FEBBBA"/>
<stop offset="1" stop-color="#FF928E"/>
</linearGradient>
<linearGradient id="paint63_linear_309_6186" x1="153.368" y1="60.2071" x2="66.997" y2="155.605" gradientUnits="userSpaceOnUse">
<stop stop-color="#FF928E"/>
<stop offset="1" stop-color="#FE7062"/>
</linearGradient>
<linearGradient id="paint64_linear_309_6186" x1="86.528" y1="137.818" x2="87.3018" y2="149.227" gradientUnits="userSpaceOnUse">
<stop stop-color="#FF928E"/>
<stop offset="1" stop-color="#FE7062"/>
</linearGradient>
<linearGradient id="paint65_linear_309_6186" x1="86.7795" y1="142.78" x2="87.5532" y2="154.19" gradientUnits="userSpaceOnUse">
<stop stop-color="#FF928E"/>
<stop offset="1" stop-color="#FE7062"/>
</linearGradient>
<linearGradient id="paint66_linear_309_6186" x1="114.836" y1="77.6607" x2="113.104" y2="99.3418" gradientUnits="userSpaceOnUse">
<stop stop-color="#FF928E"/>
<stop offset="1" stop-color="#FE7062"/>
</linearGradient>
<linearGradient id="paint67_linear_309_6186" x1="111.886" y1="77.3585" x2="110.153" y2="99.0396" gradientUnits="userSpaceOnUse">
<stop stop-color="#FF928E"/>
<stop offset="1" stop-color="#FE7062"/>
</linearGradient>
<linearGradient id="paint68_linear_309_6186" x1="113.542" y1="78.2679" x2="110.984" y2="88.5486" gradientUnits="userSpaceOnUse">
<stop stop-color="#FF928E"/>
<stop offset="1" stop-color="#FE7062"/>
</linearGradient>
<linearGradient id="paint69_linear_309_6186" x1="82.5507" y1="77.6607" x2="80.819" y2="99.3418" gradientUnits="userSpaceOnUse">
<stop stop-color="#FF928E"/>
<stop offset="1" stop-color="#FE7062"/>
</linearGradient>
<linearGradient id="paint70_linear_309_6186" x1="79.6003" y1="77.3585" x2="77.868" y2="99.0396" gradientUnits="userSpaceOnUse">
<stop stop-color="#FF928E"/>
<stop offset="1" stop-color="#FE7062"/>
</linearGradient>
<linearGradient id="paint71_linear_309_6186" x1="81.2569" y1="78.2679" x2="78.6989" y2="88.5486" gradientUnits="userSpaceOnUse">
<stop stop-color="#FF928E"/>
<stop offset="1" stop-color="#FE7062"/>
</linearGradient>
<linearGradient id="paint72_linear_309_6186" x1="94.4503" y1="77.6607" x2="92.7187" y2="99.3418" gradientUnits="userSpaceOnUse">
<stop stop-color="#FF928E"/>
<stop offset="1" stop-color="#FE7062"/>
</linearGradient>
<linearGradient id="paint73_linear_309_6186" x1="91.4999" y1="77.3585" x2="89.7677" y2="99.0396" gradientUnits="userSpaceOnUse">
<stop stop-color="#FF928E"/>
<stop offset="1" stop-color="#FE7062"/>
</linearGradient>
<linearGradient id="paint74_linear_309_6186" x1="93.1567" y1="78.2679" x2="90.5987" y2="88.5486" gradientUnits="userSpaceOnUse">
<stop stop-color="#FF928E"/>
<stop offset="1" stop-color="#FE7062"/>
</linearGradient>
<linearGradient id="paint75_linear_309_6186" x1="62.3604" y1="77.6607" x2="60.6281" y2="99.3418" gradientUnits="userSpaceOnUse">
<stop stop-color="#FF928E"/>
<stop offset="1" stop-color="#FE7062"/>
</linearGradient>
<linearGradient id="paint76_linear_309_6186" x1="59.4094" y1="77.3585" x2="57.6777" y2="99.0396" gradientUnits="userSpaceOnUse">
<stop stop-color="#FF928E"/>
<stop offset="1" stop-color="#FE7062"/>
</linearGradient>
<linearGradient id="paint77_linear_309_6186" x1="61.0661" y1="78.2679" x2="58.5088" y2="88.5486" gradientUnits="userSpaceOnUse">
<stop stop-color="#FF928E"/>
<stop offset="1" stop-color="#FE7062"/>
</linearGradient>
<linearGradient id="paint78_linear_309_6186" x1="84.8672" y1="68.441" x2="80.9294" y2="139.517" gradientUnits="userSpaceOnUse">
<stop stop-color="#FF928E"/>
<stop offset="1" stop-color="#FE7062"/>
</linearGradient>
<linearGradient id="paint79_linear_309_6186" x1="82.232" y1="79.7287" x2="59.4697" y2="135.627" gradientUnits="userSpaceOnUse">
<stop stop-color="#FF928E"/>
<stop offset="1" stop-color="#FE7062"/>
</linearGradient>
<linearGradient id="paint80_linear_309_6186" x1="9.04318" y1="-0.737636" x2="19.3009" y2="42.3454" gradientUnits="userSpaceOnUse">
<stop stop-color="#4F52FF"/>
<stop offset="1" stop-color="#4042E2"/>
</linearGradient>
<linearGradient id="paint81_linear_309_6186" x1="14.9215" y1="49.7947" x2="-18.4608" y2="84.352" gradientUnits="userSpaceOnUse">
<stop stop-color="#4F52FF"/>
<stop offset="1" stop-color="#4042E2"/>
</linearGradient>
<linearGradient id="paint82_linear_309_6186" x1="40.3717" y1="36.6731" x2="42.2628" y2="57.8484" gradientUnits="userSpaceOnUse">
<stop stop-color="#09005D"/>
<stop offset="1" stop-color="#1A0F91"/>
</linearGradient>
<linearGradient id="paint83_linear_309_6186" x1="38.5356" y1="36.837" x2="40.426" y2="58.0117" gradientUnits="userSpaceOnUse">
<stop stop-color="#09005D"/>
<stop offset="1" stop-color="#1A0F91"/>
</linearGradient>
<linearGradient id="paint84_linear_309_6186" x1="45.4835" y1="157.533" x2="22.3033" y2="182.747" gradientUnits="userSpaceOnUse">
<stop stop-color="#09005D"/>
<stop offset="1" stop-color="#1A0F91"/>
</linearGradient>
<linearGradient id="paint85_linear_309_6186" x1="37.9596" y1="159.406" x2="40.0182" y2="159.406" gradientUnits="userSpaceOnUse">
<stop stop-color="#A22B25"/>
<stop offset="1" stop-color="#C0423C"/>
</linearGradient>
<linearGradient id="paint86_linear_309_6186" x1="33.0769" y1="143.662" x2="39.8855" y2="143.662" gradientUnits="userSpaceOnUse">
<stop stop-color="#09005D"/>
<stop offset="1" stop-color="#1A0F91"/>
</linearGradient>
<linearGradient id="paint87_linear_309_6186" x1="40.2832" y1="152.752" x2="17.1029" y2="177.966" gradientUnits="userSpaceOnUse">
<stop stop-color="#09005D"/>
<stop offset="1" stop-color="#1A0F91"/>
</linearGradient>
<linearGradient id="paint88_linear_309_6186" x1="30.5391" y1="159.3" x2="32.3168" y2="159.3" gradientUnits="userSpaceOnUse">
<stop stop-color="#A22B25"/>
<stop offset="1" stop-color="#C0423C"/>
</linearGradient>
<linearGradient id="paint89_linear_309_6186" x1="12.1873" y1="182.118" x2="28.7372" y2="148.336" gradientUnits="userSpaceOnUse">
<stop stop-color="#09005D"/>
<stop offset="1" stop-color="#1A0F91"/>
</linearGradient>
<linearGradient id="paint90_linear_309_6186" x1="45.0562" y1="128.749" x2="31.1994" y2="108.973" gradientUnits="userSpaceOnUse">
<stop stop-color="#4F52FF"/>
<stop offset="1" stop-color="#4042E2"/>
</linearGradient>
<linearGradient id="paint91_linear_309_6186" x1="41.1266" y1="116.285" x2="59.9611" y2="97.5398" gradientUnits="userSpaceOnUse">
<stop stop-color="#A22B25"/>
<stop offset="1" stop-color="#C0423C"/>
</linearGradient>
<linearGradient id="paint92_linear_309_6186" x1="40.0507" y1="115.203" x2="58.8853" y2="96.4586" gradientUnits="userSpaceOnUse">
<stop stop-color="#A22B25"/>
<stop offset="1" stop-color="#C0423C"/>
</linearGradient>
<linearGradient id="paint93_linear_309_6186" x1="57.4717" y1="94.3066" x2="56.8661" y2="100.495" gradientUnits="userSpaceOnUse">
<stop stop-color="#A22B25"/>
<stop offset="1" stop-color="#C0423C"/>
</linearGradient>
<linearGradient id="paint94_linear_309_6186" x1="39.8737" y1="132.381" x2="26.0169" y2="112.604" gradientUnits="userSpaceOnUse">
<stop stop-color="#4F52FF"/>
<stop offset="1" stop-color="#4042E2"/>
</linearGradient>
<linearGradient id="paint95_linear_309_6186" x1="26.0659" y1="119.081" x2="38.6207" y2="125.121" gradientUnits="userSpaceOnUse">
<stop stop-color="#A22B25"/>
<stop offset="1" stop-color="#C0423C"/>
</linearGradient>
<linearGradient id="paint96_linear_309_6186" x1="66.8696" y1="87.2295" x2="57.7055" y2="98.4445" gradientUnits="userSpaceOnUse">
<stop stop-color="#09005D"/>
<stop offset="1" stop-color="#1A0F91"/>
</linearGradient>
<linearGradient id="paint97_linear_309_6186" x1="52.1811" y1="113.8" x2="40.5694" y2="111.318" gradientUnits="userSpaceOnUse">
<stop stop-color="#09005D"/>
<stop offset="1" stop-color="#1A0F91"/>
</linearGradient>
<linearGradient id="paint98_linear_309_6186" x1="26.9742" y1="108.541" x2="37.1883" y2="118.755" gradientUnits="userSpaceOnUse">
<stop stop-color="#09005D"/>
<stop offset="1" stop-color="#1A0F91"/>
</linearGradient>
<linearGradient id="paint99_linear_309_6186" x1="33.4121" y1="118.413" x2="39.4688" y2="121.818" gradientUnits="userSpaceOnUse">
<stop stop-color="#A22B25"/>
<stop offset="1" stop-color="#C0423C"/>
</linearGradient>
<linearGradient id="paint100_linear_309_6186" x1="35.649" y1="109.681" x2="38.1107" y2="99.0135" gradientUnits="userSpaceOnUse">
<stop stop-color="#A22B25"/>
<stop offset="1" stop-color="#C0423C"/>
</linearGradient>
<linearGradient id="paint101_linear_309_6186" x1="43.0749" y1="107.569" x2="48.994" y2="114.207" gradientUnits="userSpaceOnUse">
<stop stop-color="#A22B25"/>
<stop offset="1" stop-color="#C0423C"/>
</linearGradient>
<linearGradient id="paint102_linear_309_6186" x1="31.2814" y1="95.7457" x2="38.757" y2="101.651" gradientUnits="userSpaceOnUse">
<stop stop-color="#09005D"/>
<stop offset="1" stop-color="#1A0F91"/>
</linearGradient>
<linearGradient id="paint103_linear_309_6186" x1="37.3971" y1="101.938" x2="45.4693" y2="98.4399" gradientUnits="userSpaceOnUse">
<stop stop-color="#A22B25"/>
<stop offset="1" stop-color="#C0423C"/>
</linearGradient>
<linearGradient id="paint104_linear_309_6186" x1="133.784" y1="-11.8571" x2="128.86" y2="72.6676" gradientUnits="userSpaceOnUse">
<stop stop-color="#4F52FF"/>
<stop offset="1" stop-color="#4042E2"/>
</linearGradient>
<linearGradient id="paint105_linear_309_6186" x1="84.1683" y1="145.763" x2="161.159" y2="145.763" gradientUnits="userSpaceOnUse">
<stop stop-color="#DAE3FE"/>
<stop offset="1" stop-color="#E9EFFD"/>
</linearGradient>
<linearGradient id="paint106_linear_309_6186" x1="84.1683" y1="148.189" x2="161.159" y2="148.189" gradientUnits="userSpaceOnUse">
<stop stop-color="#DAE3FE"/>
<stop offset="1" stop-color="#E9EFFD"/>
</linearGradient>
<linearGradient id="paint107_linear_309_6186" x1="84.1683" y1="150.616" x2="161.159" y2="150.616" gradientUnits="userSpaceOnUse">
<stop stop-color="#DAE3FE"/>
<stop offset="1" stop-color="#E9EFFD"/>
</linearGradient>
<linearGradient id="paint108_linear_309_6186" x1="84.1683" y1="153.042" x2="161.159" y2="153.042" gradientUnits="userSpaceOnUse">
<stop stop-color="#DAE3FE"/>
<stop offset="1" stop-color="#E9EFFD"/>
</linearGradient>
<linearGradient id="paint109_linear_309_6186" x1="84.1683" y1="155.469" x2="161.159" y2="155.469" gradientUnits="userSpaceOnUse">
<stop stop-color="#DAE3FE"/>
<stop offset="1" stop-color="#E9EFFD"/>
</linearGradient>
<linearGradient id="paint110_linear_309_6186" x1="131.068" y1="106.964" x2="127.835" y2="212.784" gradientUnits="userSpaceOnUse">
<stop stop-color="#4F52FF"/>
<stop offset="1" stop-color="#4042E2"/>
</linearGradient>
<linearGradient id="paint111_linear_309_6186" x1="114.926" y1="82.2218" x2="145.338" y2="122.973" gradientUnits="userSpaceOnUse">
<stop stop-color="#09005D"/>
<stop offset="1" stop-color="#1A0F91"/>
</linearGradient>
<linearGradient id="paint112_linear_309_6186" x1="92.5907" y1="121.277" x2="110.801" y2="131.671" gradientUnits="userSpaceOnUse">
<stop stop-color="#FEBBBA"/>
<stop offset="1" stop-color="#FF928E"/>
</linearGradient>
<linearGradient id="paint113_linear_309_6186" x1="94.9684" y1="131.665" x2="103.171" y2="151.519" gradientUnits="userSpaceOnUse">
<stop stop-color="#09005D"/>
<stop offset="1" stop-color="#1A0F91"/>
</linearGradient>
<linearGradient id="paint114_linear_309_6186" x1="111.462" y1="129.53" x2="133.465" y2="124.127" gradientUnits="userSpaceOnUse">
<stop stop-color="#FEBBBA"/>
<stop offset="1" stop-color="#FF928E"/>
</linearGradient>
<linearGradient id="paint115_linear_309_6186" x1="98.1397" y1="136.856" x2="110.191" y2="154.636" gradientUnits="userSpaceOnUse">
<stop stop-color="#09005D"/>
<stop offset="1" stop-color="#1A0F91"/>
</linearGradient>
<linearGradient id="paint116_linear_309_6186" x1="1068.43" y1="714.423" x2="1119.52" y2="746.456" gradientUnits="userSpaceOnUse">
<stop stop-color="#09005D"/>
<stop offset="1" stop-color="#1A0F91"/>
</linearGradient>
<linearGradient id="paint117_linear_309_6186" x1="111.78" y1="98.1179" x2="127.941" y2="116.81" gradientUnits="userSpaceOnUse">
<stop stop-color="#4F52FF"/>
<stop offset="1" stop-color="#4042E2"/>
</linearGradient>
<linearGradient id="paint118_linear_309_6186" x1="118.291" y1="102.054" x2="117.054" y2="94.115" gradientUnits="userSpaceOnUse">
<stop stop-color="#FEBBBA"/>
<stop offset="1" stop-color="#FF928E"/>
</linearGradient>
<linearGradient id="paint119_linear_309_6186" x1="126.482" y1="115.285" x2="144.623" y2="115.285" gradientUnits="userSpaceOnUse">
<stop stop-color="#FEBBBA"/>
<stop offset="1" stop-color="#FF928E"/>
</linearGradient>
<linearGradient id="paint120_linear_309_6186" x1="123.66" y1="115.063" x2="114.31" y2="118.129" gradientUnits="userSpaceOnUse">
<stop stop-color="#4F52FF"/>
<stop offset="1" stop-color="#4042E2"/>
</linearGradient>
<linearGradient id="paint121_linear_309_6186" x1="110.81" y1="108.945" x2="104.077" y2="116.062" gradientUnits="userSpaceOnUse">
<stop stop-color="#09005D"/>
<stop offset="1" stop-color="#1A0F91"/>
</linearGradient>
<linearGradient id="paint122_linear_309_6186" x1="30.1246" y1="-220.215" x2="26.2849" y2="-234.32" gradientUnits="userSpaceOnUse">
<stop stop-color="#FEBBBA"/>
<stop offset="1" stop-color="#FF928E"/>
</linearGradient>
<linearGradient id="paint123_linear_309_6186" x1="110.44" y1="85.57" x2="140.851" y2="126.321" gradientUnits="userSpaceOnUse">
<stop stop-color="#09005D"/>
<stop offset="1" stop-color="#1A0F91"/>
</linearGradient>
<linearGradient id="paint124_linear_309_6186" x1="32.3228" y1="-220.814" x2="28.4837" y2="-234.919" gradientUnits="userSpaceOnUse">
<stop stop-color="#FEBBBA"/>
<stop offset="1" stop-color="#FF928E"/>
</linearGradient>
</defs>
</svg>
